SplineFontDB: 3.0
FontName: Crimson-Italic
FullName: Crimson Italic
FamilyName: Crimson
Weight: Italic
Copyright: Copyright (c) 2010, Sebastian Kosch (sebastian@aldusleaf.org),\nwith Reserved Font Name "Crimson".\nThis Font Software is licensed under the SIL Open Font License, Version 1.1.\nThis license is available with a FAQ at: http://scripts.sil.org/OFL
UComments: "2010-5-9: Created." 
Version: 0.8
ItalicAngle: -11
UnderlinePosition: -102
UnderlineWidth: 51
Ascent: 819
Descent: 205
LayerCount: 2
Layer: 0 0 "Back"  1
Layer: 1 0 "Fore"  0
XUID: [1021 85 519305545 10852408]
FSType: 0
OS2Version: 0
OS2_WeightWidthSlopeOnly: 0
OS2_UseTypoMetrics: 1
CreationTime: 1273443993
PfmFamily: 17
TTFWeight: 400
TTFWidth: 5
LineGap: 92
VLineGap: 0
OS2TypoAscent: 717
OS2TypoAOffset: 0
OS2TypoDescent: -307
OS2TypoDOffset: 0
OS2TypoLinegap: 92
OS2WinAscent: 0
OS2WinAOffset: 1
OS2WinDescent: 0
OS2WinDOffset: 1
HheadAscent: 717
HheadAOffset: 0
HheadDescent: -307
HheadDOffset: 0
OS2SubXSize: 665
OS2SubYSize: 716
OS2SubXOff: 27
OS2SubYOff: 143
OS2SupXSize: 665
OS2SupYSize: 716
OS2SupXOff: -93
OS2SupYOff: 491
OS2StrikeYSize: 51
OS2StrikeYPos: 265
OS2Vendor: 'PfEd'
Lookup: 1 0 0 "'ccmp' Turkish i"  {"'ccmp' Turkish i-1"  } ['ccmp' ('latn' <'TRK ' > ) ]
Lookup: 1 0 0 "'onum' Oldstyle Figures in Latin lookup 5"  {"'onum' Oldstyle Figures in Latin lookup 5-1" ("onum" ) } ['onum' ('DFLT' <'dflt' > 'latn' <'TRK ' 'dflt' > ) ]
Lookup: 1 0 0 "'pnum' Proportional Numbers lookup 12"  {"'pnum' Proportional Numbers lookup 12-1" ("prop" ) } ['pnum' ('DFLT' <'dflt' > 'grek' <'dflt' > 'latn' <'TRK ' 'dflt' > ) ]
Lookup: 1 0 0 "'smcp' Lowercase to Small Capitals in Latin lookup 3"  {"'smcp' Lowercase to Small Capitals in Latin lookup 3-1" ("sc" ) } ['smcp' ('DFLT' <'dflt' > 'latn' <'TRK ' 'dflt' > ) ]
Lookup: 4 0 1 "'liga' Standard Ligatures lookup 0"  {"'liga' Standard Ligatures lookup 0-1"  } ['liga' ('DFLT' <'dflt' > 'cyrl' <'dflt' > 'grek' <'dflt' > 'latn' <'TRK ' 'dflt' > ) ]

StartChar: exclam
Encoding: 33 33 0
Width: 234
VWidth: 0
Flags: W
HStem: -14 116<36.9533 111.814>
VStem: 20 109<3.29198 85.0467> 133 90<492.709 614.186>
LayerCount: 2
Fore
SplineSet
20 36 m 27
 20 73 49 102 86 102 c 27
 110 102 129 80 129 56 c 27
 129 18 102 -14 64 -14 c 27
 38 -14 20 10 20 36 c 27
192 631 m 3
 213 631 223 609 223 588 c 3
 223 561 160 352 114 170 c 0
 111 156 90 148 86 148 c 3
 81 148 80 159 80 166 c 3
 80 170 112 429 133 577 c 0
 136 596 160 631 192 631 c 3
EndSplineSet
Substitution2: "'smcp' Lowercase to Small Capitals in Latin lookup 3-1" exclam.sc
EndChar

StartChar: quotedbl
Encoding: 34 34 1
Width: 331
VWidth: 0
Flags: W
HStem: 434 264<138.076 144.886 288.076 294.886>
VStem: 107.076 95<556.545 674.219> 257.076 95<556.545 674.219>
LayerCount: 2
Fore
SplineSet
324.076 698 m 27
 352.076 698 363.076 692 352.076 633 c 0
 341.076 577 312.076 516 293.076 449 c 0
 290.076 439 279.076 434 272.076 434 c 0
 265.076 434 256.076 439 257.076 447 c 0
 266.076 537 257.076 590 257.076 636 c 1
 260.076 654 288.076 698 324.076 698 c 27
174.076 698 m 27
 202.076 698 213.076 692 202.076 633 c 0
 191.076 577 162.076 516 143.076 449 c 0
 140.076 439 129.076 434 122.076 434 c 0
 115.076 434 106.076 439 107.076 447 c 0
 116.076 537 107.076 590 107.076 636 c 1
 110.076 654 138.076 698 174.076 698 c 27
EndSplineSet
EndChar

StartChar: numbersign
Encoding: 35 35 2
Width: 447
VWidth: 0
Flags: W
HStem: 178 50<19.3572 98 163 238 303 380.643> 320 50<67.3572 145 210 285 350 428.229>
LayerCount: 2
Fore
SplineSet
350 370 m 1
 430 370 l 0
 435 370 435 370 435 368 c 0
 435 352 420 320 412 320 c 0
 333 320 l 1
 303 228 l 1
 382 228 l 0
 386 228 387 228 387 225 c 0
 387 209 372 178 364 178 c 0
 285 178 l 1
 234 25 l 0
 234 24 231 18 203 18 c 0
 195 18 186 20 184 21 c 1
 186 30 236 173 236 174 c 0
 238 178 l 1
 145 178 l 1
 94 25 l 0
 94 24 91 18 63 18 c 0
 55 18 46 20 44 21 c 1
 46 30 96 173 96 174 c 0
 98 178 l 1
 18 178 l 0
 14 178 13 178 13 181 c 0
 13 197 28 228 36 228 c 0
 115 228 l 1
 145 320 l 1
 66 320 l 0
 62 320 61 320 61 323 c 0
 61 339 76 370 84 370 c 0
 163 370 l 1
 214 523 l 0
 214 524 217 530 245 530 c 0
 253 530 262 527 264 526 c 1
 262 519 212 375 212 374 c 0
 210 370 l 1
 303 370 l 1
 354 523 l 0
 354 524 357 530 385 530 c 0
 393 530 402 527 404 526 c 1
 402 519 352 375 352 374 c 0
 350 370 l 1
285 320 m 1
 193 320 l 1
 163 228 l 1
 255 228 l 1
 285 320 l 1
EndSplineSet
EndChar

StartChar: dollar
Encoding: 36 36 3
Width: 435
UnlinkRmOvrlpSave: 1
Flags: W
HStem: -8 33.6875<141.388 247.62> 607.037 33.688<208.385 319.413>
VStem: 18.7676 33.6875<106.252 182.066> 84.2168 75.0752<428.184 537.438> 305.594 85.661<103.511 212.838> 368.155 29.837<472.76 569.478>
LayerCount: 2
Fore
SplineSet
286.344 640.725 m 0xf8
 342.167 640.725 371.236 629.175 418.4 617.625 c 1
 415.513 584.9 403.962 507.9 397.992 479.025 c 0
 396.614 472.359 391.449 472.287 388.562 472.287 c 0
 384.712 472.287 374.124 473.25 368.155 479.025 c 1xf4
 372.969 556.025 352.755 607.037 271.905 607.037 c 0
 192.98 607.037 159.292 549.287 159.292 500.2 c 0
 159.292 421.676 218.969 390.475 269.98 350.05 c 0
 320.992 309.625 391.255 274.98 391.255 185.463 c 0
 391.255 66.1123 268.056 -8 171.806 -8 c 0
 117.138 -8 68.8174 14.1377 30.3174 32.4248 c 1
 17.8047 84.4004 16.8418 165.25 18.7676 176.8 c 1
 21.6543 180.65 36.0918 182.575 42.8301 182.575 c 0
 47.6426 182.575 50.5293 180.65 52.4551 176.8 c 1
 52.4551 123.862 88.0674 25.6875 186.242 25.6875 c 0
 242.068 25.6875 305.594 64.7363 305.594 141.188 c 0
 305.594 210.487 262.28 238.4 214.155 276.9 c 0
 155.967 323.45 84.2168 358.75 84.2168 457.85 c 0
 84.2168 568.537 196.83 640.725 286.344 640.725 c 0xf8
119.842 -52 m 17
 111.842 -52 87.8408 -50 88.8408 -43 c 9
 341.842 683 l 17
 348.842 683 373.842 683 372.842 676 c 9
 119.842 -52 l 17
EndSplineSet
EndChar

StartChar: percent
Encoding: 37 37 4
Width: 630
VWidth: 0
Flags: W
HStem: -8 28<381.061 451.221> 300 27<418.525 488.689> 338 28<169.061 239.221> 643 20G<615 626> 646 27<206.525 276.689>
VStem: 74 63<389.827 559.144> 286 63<43.8269 213.144> 304 65<451.145 624.049> 516 65<105.145 278.049>
LayerCount: 2
Fore
SplineSet
458 300 m 3xe680
 395 300 349 210 349 132 c 27
 349 81 366 20 414 20 c 3
 477 20 516 116 516 195 c 27
 516 242 503 300 458 300 c 3xe680
468 327 m 3
 545 327 581 263 581 195 c 3
 581 99 500 -8 402 -8 c 3
 326 -8 286 55 286 123 c 3
 286 221 366 327 468 327 c 3
246 646 m 3xed80
 183 646 137 556 137 478 c 27
 137 427 154 366 202 366 c 3
 265 366 304 462 304 541 c 27
 304 588 291 646 246 646 c 3xed80
256 673 m 3
 333 673 369 609 369 541 c 3
 369 445 288 338 190 338 c 3
 114 338 74 401 74 469 c 3
 74 567 154 673 256 673 c 3
647 650 m 9
 51 0 l 2
 47 -4 31 -12 17 -12 c 27
 10 -12 4 -9 2 -1 c 9
 598 652 l 2
 602 656 610 663 620 663 c 27xf480
 632 663 643 660 647 650 c 9
EndSplineSet
EndChar

StartChar: ampersand
Encoding: 38 38 5
Width: 781
UnlinkRmOvrlpSave: 1
Flags: W
HStem: -5 32<327.817 472.689> 494 42<323.969 441>
VStem: -7 50<99 180.239> 409 93<382.172 486.883> 431 37<130.403 207.5> 597 63<146.155 237.616> 737 42<434.8 531.738>
LayerCount: 2
Fore
SplineSet
418 536 m 27xee
 464 536 502 498 502 452 c 27
 502 300 247 241 185 227 c 0
 115.189 211.236 43 196 43 154 c 3
 43 136 55.0547 130.062 63 123 c 0
 72 115 82 106 82 90 c 3
 82 61 62 47 38 47 c 27
 28 47 20 48 13 52 c 1
 0 63 -7 91 -7 107 c 0
 -7 169 31 218 102 238 c 0
 180 260 409 313 409 435 c 3xf6
 409 470 396 494 358 494 c 3
 289 494 221 394 221 255 c 3
 221 102 290 27 410 27 c 3
 502 27 597 99 597 192 c 0
 597 209 588 232 582 238 c 1
 532 222 468 189 468 145 c 3
 468 136 469 128 472 123 c 1
 468 121 457 122 452 128 c 1
 441 137 431 160 431 185 c 3
 431 230 472.17 261.359 546 293 c 0
 637 332 746 402 737 542 c 1
 746 543 754 537 757 534 c 1
 769 510 779 482 779 440 c 3
 779 360 724 298 654 264 c 1
 658 256 660 243 660 228 c 0
 660 108 525 -5 378 -5 c 0
 247 -5 139.183 56 139.183 224 c 3
 139.183 370 255 536 418 536 c 27xee
EndSplineSet
EndChar

StartChar: quotesingle
Encoding: 39 39 6
Width: 181
VWidth: 0
Flags: W
HStem: 434 264<138.076 144.886>
VStem: 107.076 95<556.545 674.219>
LayerCount: 2
Fore
SplineSet
174.076 698 m 27
 202.076 698 213.076 692 202.076 633 c 0
 191.076 577 162.076 516 143.076 449 c 0
 140.076 439 129.076 434 122.076 434 c 0
 115.076 434 106.076 439 107.076 447 c 0
 116.076 537 107.076 590 107.076 636 c 1
 110.076 654 138.076 698 174.076 698 c 27
EndSplineSet
EndChar

StartChar: parenleft
Encoding: 40 40 7
Width: 260
VWidth: 0
Flags: W
VStem: 48.6221 235
LayerCount: 2
Fore
SplineSet
276.622 748 m 1
 281.622 746 283.622 739 283.622 735 c 1
 221.622 664 85.6221 418 107.622 164 c 0
 119.622 23 151.622 -54 202.622 -109 c 1
 202.622 -112 202.622 -119 197.622 -121 c 1
 138.622 -99 63.6221 4 48.6221 177 c 0
 22.6221 474 196.622 676 276.622 748 c 1
EndSplineSet
Substitution2: "'smcp' Lowercase to Small Capitals in Latin lookup 3-1" parenleft.sc
EndChar

StartChar: parenright
Encoding: 41 41 8
Width: 260
VWidth: 0
Flags: W
VStem: -4.80859 235
LayerCount: 2
Fore
SplineSet
2.19141 -121 m 1
 -2.80859 -119 -5.80859 -112 -4.80859 -108 c 1
 57.1914 -37 193.191 209 171.191 463 c 0
 159.191 604 127.191 681 76.1914 736 c 1
 76.1914 739 76.1914 746 81.1914 748 c 1
 140.191 726 215.191 623 230.191 450 c 0
 256.191 153 82.1914 -49 2.19141 -121 c 1
EndSplineSet
Substitution2: "'smcp' Lowercase to Small Capitals in Latin lookup 3-1" parenright.sc
EndChar

StartChar: asterisk
Encoding: 42 42 9
Width: 400
Flags: W
HStem: 432 68<70.7409 166.231> 466 48<245.834 267.802> 473 20<186.821 225.891> 644 20G<202.5 226.5>
VStem: 161 64<305.242 381.874> 226 167<409.5 471> 228 41<493.177 514.922>
LayerCount: 2
Fore
SplineSet
256 514 m 0x5a
 281 514 328 633 379 633 c 0
 393 633 402 623 402 609 c 0
 402 552 269 523 269 491 c 0x5a
 269 464 393 473 393 419 c 0
 393 400 376 383 356 383 c 0
 313 383 280 466 255 466 c 0x5c
 232 466 243 398 225 341 c 0
 216 311 198 298 184 298 c 0
 171 298 161 309 161 326 c 0
 161 366 226 438 226 464 c 0
 226 469 224 473 217 473 c 0x3c
 196 473 132 432 94 432 c 0
 77 432 64 440 64 456 c 0
 64 469 71 500 125 500 c 0x9c
 154 500 183 493 203 493 c 0x3c
 225 493 228 503 228 510 c 0
 228 534 177 580 177 623 c 0
 177 648 194 664 211 664 c 0
 242 664 244 620 244 580 c 0
 244 574 242 514 256 514 c 0x5a
EndSplineSet
EndChar

StartChar: plus
Encoding: 43 43 10
Width: 454
Flags: W
HStem: 217 43<19.6117 195 251 424.103>
LayerCount: 2
Fore
SplineSet
23 217 m 2
 20 217 18 220 18 225 c 0
 18 238 21 247 31 260 c 1
 203 260 l 1
 236 435 l 2
 239 448 273 451 277 451 c 0
 285 451 287 447 286 443 c 2
 251 260 l 1
 422 260 l 2
 424 260 425 257 425 252 c 0
 425 239 424 229 413 217 c 1
 243 217 l 1
 208 39 l 2
 206 29 189 23 173 23 c 0
 163 23 159 27 159 31 c 2
 195 217 l 1
 23 217 l 2
EndSplineSet
EndChar

StartChar: comma
Encoding: 44 44 11
Width: 200
VWidth: 0
Flags: W
HStem: -109 238
VStem: 23 86<0.260574 119.381>
LayerCount: 2
Fore
SplineSet
-28 -89 m 1
 -15 -83 40 -48 40 -2 c 0
 40 47 23 46 23 79 c 0
 23 110 49 129 78 129 c 0
 90 129 102 124 106 119 c 1
 108 114 109 98 109 95 c 0
 109 51.0439 98 13 73 -28 c 0
 44.9644 -73.9783 4 -102 -14 -109 c 1
 -18 -109 -28 -97 -28 -89 c 1
EndSplineSet
EndChar

StartChar: hyphen
Encoding: 45 45 12
Width: 371
VWidth: 0
Flags: W
VStem: 53 254<210.346 261>
LayerCount: 2
Fore
SplineSet
74 261 m 2
 301 273 l 2
 306 273 307 266 307 261 c 0
 307 248 294 211 284 210 c 10
 58 199 l 2
 55 199 53 206 53 214 c 0
 53 225 63 260 74 261 c 2
EndSplineSet
EndChar

StartChar: period
Encoding: 46 46 13
Width: 208
VWidth: 0
Flags: W
HStem: -14 116<27.9536 97.375>
VStem: 8 110<6.4082 82.5449>
LayerCount: 2
Fore
SplineSet
8 33 m 0
 8 70 42 102 75 102 c 0
 101 102 118 83 118 57 c 0
 118 20 85 -14 52 -14 c 0
 26 -14 8 6 8 33 c 0
EndSplineSet
Substitution2: "'smcp' Lowercase to Small Capitals in Latin lookup 3-1" period.sc
EndChar

StartChar: slash
Encoding: 47 47 14
Width: 382
VWidth: 0
Flags: W
LayerCount: 2
Fore
SplineSet
451 755 m 1
 27 -12 l 2
 24 -17 3 -34 -20 -34 c 0
 -24 -34 -31 -30 -32 -28 c 9
 393 739 l 2
 397.612 747.323 421 761 439 761 c 0
 445 761 449 758 451 755 c 1
EndSplineSet
Substitution2: "'smcp' Lowercase to Small Capitals in Latin lookup 3-1" slash.sc
EndChar

StartChar: zero
Encoding: 48 48 15
Width: 499
Flags: W
HStem: -3 35<153.668 238.966> 606 35<262.649 347.509>
LayerCount: 2
Fore
SplineSet
129 320 m 0
 98 163 121 32 190 32 c 0
 273 32 341 168 372 325 c 0
 403 482 379 606 310 606 c 0
 232 606 160 477 129 320 c 0
47 319 m 0
 81 493 184 641 312 641 c 0
 442 641 486 493 452 319 c 0
 418 145 315 -3 187 -3 c 0
 61 -3 13 145 47 319 c 0
EndSplineSet
Substitution2: "'pnum' Proportional Numbers lookup 12-1" zero.prop
Substitution2: "'onum' Oldstyle Figures in Latin lookup 5-1" zero.onum
EndChar

StartChar: one
Encoding: 49 49 16
Width: 498
Flags: W
HStem: -3 29<112.209 178.718 279.124 331.062> 622 20G<376.5 383>
VStem: 111 277
LayerCount: 2
Fore
SplineSet
206 534 m 1
 199 538 196 547 197 554 c 0
 197 556 197 559 200 560 c 0
 293 604 375 642 378 642 c 2
 380 642 l 2
 386 642 388 628 388 623 c 1
 388 623 372 590 360 529 c 2
 284 135 l 2
 278 102 273 73 274 46 c 0
 275 35 325 26 332 26 c 0
 335 26 333 15 332 8 c 0
 331 3 330 -1 329 -3 c 1
 292 -1 256 2 219 2 c 0
 182 2 149 -1 111 -3 c 1
 107 2 112 26 117 26 c 0
 128 26 181 35 186 46 c 0
 195 66 198 84 202 103 c 2
 272 463 l 2
 284 523 289 554 270 554 c 0
 263 554 224 543 206 534 c 1
EndSplineSet
Substitution2: "'pnum' Proportional Numbers lookup 12-1" one.prop
Substitution2: "'onum' Oldstyle Figures in Latin lookup 5-1" one.onum
EndChar

StartChar: two
Encoding: 50 50 17
Width: 499
Flags: W
HStem: 0 73<130 366.771> 577 65<255.288 357.6>
VStem: 383 89<411.7 550.393>
LayerCount: 2
Fore
SplineSet
472 512 m 0
 472 421 425 358 354 286 c 0
 270 200 128 73 130 73 c 9
 300 73 l 2
 354 73 386 105 405 147 c 0
 407 152 412 156 418 156 c 0
 422 156 434 152 435 150 c 1
 409 101 366 18 358 0 c 9
 358 0 40 0 33 0 c 1
 31 2 27 9 27 15 c 1
 82 65 225 212 284 279 c 0
 352 356 383 418 383 486 c 0
 383 542 350 577 301 577 c 0
 227 577 167 511 152 491 c 1
 145 491 137 503 138 507 c 1
 149 532 237 642 334 642 c 0
 407 642 472 590 472 512 c 0
EndSplineSet
Substitution2: "'pnum' Proportional Numbers lookup 12-1" two.prop
Substitution2: "'onum' Oldstyle Figures in Latin lookup 5-1" two.onum
EndChar

StartChar: three
Encoding: 51 51 18
Width: 498
Flags: W
HStem: -5 40<148.412 248.633> 317 31<190.037 243.434> 588 54<261.863 356.563>
VStem: 350 85<156.672 292.44> 375 73<465.959 570.265>
LayerCount: 2
Fore
SplineSet
347 642 m 0xe8
 394 642 448 607 448 533 c 0xe8
 448 467 384 408 332 379 c 1
 388 372 435 304 435 244 c 0
 435 90 252 -5 164 -5 c 0
 116 -5 82 4 59 20 c 1
 55 25 50 37 50 48 c 0
 50 78 70 106 92 106 c 0
 125 106 130 76 144 59 c 0
 161 38 183 35 208 35 c 0
 265 35 350 106 350 219 c 0xf0
 350 286 314 327 253 327 c 0
 233 327 206 320 194 317 c 1
 191 322 190 326 190 331 c 0
 190 335 191 345 193 348 c 1
 273 362 375 425 375 513 c 0
 375 568 340 588 298 588 c 0
 239 588 197 535 187 528 c 1
 181 528 180 543 182 552 c 1
 220 598 274 642 347 642 c 0xe8
EndSplineSet
Substitution2: "'pnum' Proportional Numbers lookup 12-1" three.prop
Substitution2: "'onum' Oldstyle Figures in Latin lookup 5-1" three.onum
EndChar

StartChar: four
Encoding: 52 52 19
Width: 498
Flags: W
HStem: -6 21G<288 317> 174 57<104 300 387 448.936> 624 20G<447.5 455.5>
LayerCount: 2
Fore
SplineSet
451 644 m 0
 460 644 466 634 464 626 c 2
 387 231 l 25
 443 231 l 18
 449 231 452 211 448 190 c 0
 446 181 443 177 441 174 c 1
 376 174 l 25
 342 -1 l 1
 342 -1 335 -6 299 -6 c 0
 277 -6 265 -5 266 2 c 2
 300 174 l 25
 38 174 l 1
 32 178 32 187 33 193 c 1
 418 619 l 2
 425 627 444 644 451 644 c 0
368 524 m 25
 104 231 l 25
 311 231 l 25
 368 524 l 25
EndSplineSet
Substitution2: "'pnum' Proportional Numbers lookup 12-1" four.prop
Substitution2: "'onum' Oldstyle Figures in Latin lookup 5-1" four.onum
EndChar

StartChar: five
Encoding: 53 53 20
Width: 498
Flags: W
HStem: -5 40<135.412 235.848> 332 63<178.543 295.08> 551 80<225.24 425.825> 624 20G<433.5 454>
VStem: 337 85<160.249 291.599>
LayerCount: 2
Fore
SplineSet
422 247 m 0xe8
 422 93 240 -5 151 -5 c 0
 103 -5 69 4 46 20 c 1
 42 25 37 37 37 48 c 0
 37 78 57 106 79 106 c 0
 112 106 117 76 131 59 c 0
 148 38 170 35 195 35 c 0
 252 35 337 106 337 219 c 0
 337 255 324 332 216 332 c 3
 196 332 160 325 141 319 c 1
 138 321 131 328 127 333 c 1
 172 465 202 589 217 631 c 1xe8
 283 633 416 636 451 644 c 1xd8
 457 641 461 635 461 631 c 0
 461 614 438 575 428 561 c 1
 383 551 247 554 232 551 c 1
 228 544 197 430 178 377 c 1
 198 385 250 395 275 395 c 0
 375 395 422 314 422 247 c 0xe8
EndSplineSet
Substitution2: "'pnum' Proportional Numbers lookup 12-1" five.prop
Substitution2: "'onum' Oldstyle Figures in Latin lookup 5-1" five.onum
EndChar

StartChar: six
Encoding: 54 54 21
Width: 497
VWidth: 0
Flags: W
HStem: -6 33<160.039 245.539> 333 47<220.122 302.949> 623 20G<391 452>
VStem: 41 82<70.6657 291.425> 335 80<143.812 301.216>
LayerCount: 2
Fore
SplineSet
285 380 m 0
 362 380 415 311 415 230 c 0
 415 114 297 -6 188 -6 c 0
 100 -6 41 61 41 173 c 0
 41 251 78 365 165 464 c 0
 223 530 333 603 449 643 c 1
 455 643 457 624 456 618 c 1
 341 569 225 491 165 350 c 0
 131 270 123 215 123 160 c 0
 123 99 142 27 200 27 c 0
 254 27 335 106 335 224 c 0
 335 286 308 333 239 333 c 0
 215 333 200 324 191 319 c 1
 188 321 185 325 185 329 c 3
 185 341 251 380 285 380 c 0
EndSplineSet
Substitution2: "'pnum' Proportional Numbers lookup 12-1" six.prop
Substitution2: "'onum' Oldstyle Figures in Latin lookup 5-1" six.onum
EndChar

StartChar: seven
Encoding: 55 55 22
Width: 499
Flags: W
HStem: -6 21G<59 68.5> 557 76<117 393>
LayerCount: 2
Fore
SplineSet
28 14 m 1
 160 180 393 557 393 557 c 1
 161 557 l 2
 124 557 97 512 79 480 c 0
 78 478 75 477 72 477 c 0
 65 477 56 479 51 482 c 1
 67 520 107 598 117 633 c 9
 403 633 l 2
 427 633 460 636 466 636 c 0
 472 636 471 632 470 627 c 0
 467 614 448 588 430 560 c 2
 76 -3 l 1
 74 -5 71 -6 66 -6 c 0
 52 -6 26 5 28 14 c 1
EndSplineSet
Substitution2: "'pnum' Proportional Numbers lookup 12-1" seven.prop
Substitution2: "'onum' Oldstyle Figures in Latin lookup 5-1" seven.onum
EndChar

StartChar: eight
Encoding: 56 56 23
Width: 499
Flags: W
HStem: -9 36<154.417 262.334> 608 35<267.852 356.212>
LayerCount: 2
Fore
SplineSet
326 643 m 0
 409 643 467 586 449 491 c 0
 436 424 364 373 316 344 c 1
 312 343 313 340 315 338 c 0
 364 304 418 239 404 167 c 0
 385 67 285 -9 192 -9 c 0
 90 -9 32 57 51 154 c 0
 68 242 162 293 203 318 c 0
 206 320 207 323 205 324 c 0
 171 349 126 406 140 480 c 0
 157 565 244 643 326 643 c 0
314 608 m 0
 269 608 225 562 211 492 c 0
 199 430 252 386 283 364 c 0
 285 363 286 362 288 362 c 0
 290 362 291 362 294 364 c 0
 337 391 370 431 381 486 c 0
 392 544 370 608 314 608 c 0
201 27 m 0
 262 27 310 70 323 138 c 0
 339 221 245 287 234 295 c 0
 232 296 232 297 229 297 c 0
 228 297 226 297 225 296 c 0
 167 261 137 221 125 157 c 0
 109 75 152 27 201 27 c 0
EndSplineSet
Substitution2: "'pnum' Proportional Numbers lookup 12-1" eight.prop
Substitution2: "'onum' Oldstyle Figures in Latin lookup 5-1" eight.onum
EndChar

StartChar: nine
Encoding: 57 57 24
Width: 497
VWidth: 0
Flags: W
HStem: -6 21G<45 106> 257 47<194.051 276.878> 610 33<251.461 336.961>
VStem: 82 80<335.784 493.188> 374 82<345.575 566.334>
LayerCount: 2
Fore
SplineSet
212 257 m 0
 135 257 82 326 82 407 c 0
 82 523 200 643 309 643 c 0
 397 643 456 576 456 464 c 0
 456 386 419 272 332 173 c 0
 274 107 164 34 48 -6 c 1
 42 -6 40 13 41 19 c 1
 156 68 272 146 332 287 c 0
 366 367 374 422 374 477 c 0
 374 538 355 610 297 610 c 0
 243 610 162 531 162 413 c 0
 162 351 189 304 258 304 c 0
 282 304 297 313 306 318 c 1
 309 316 312 312 312 308 c 3
 312 296 246 257 212 257 c 0
EndSplineSet
Substitution2: "'pnum' Proportional Numbers lookup 12-1" nine.prop
Substitution2: "'onum' Oldstyle Figures in Latin lookup 5-1" nine.onum
EndChar

StartChar: colon
Encoding: 58 58 25
Width: 236
VWidth: 0
Flags: W
HStem: -14 120<40.25 110.75> 318 120<103.544 175.353>
VStem: 19 113<6.94727 85.0527> 83 114<339.191 416.75>
LayerCount: 2
Fore
SplineSet
83 367 m 0xd0
 83 405 118 438 152 438 c 0
 179 438 197 418 197 391 c 0
 197 353 163 318 129 318 c 0
 102 318 83 339 83 367 c 0xd0
19 34 m 0xe0
 19 72 53 106 87 106 c 0
 114 106 132 85 132 58 c 0
 132 20 98 -14 64 -14 c 0
 37 -14 19 7 19 34 c 0xe0
EndSplineSet
Substitution2: "'smcp' Lowercase to Small Capitals in Latin lookup 3-1" colon.sc
EndChar

StartChar: semicolon
Encoding: 59 59 26
Width: 252
VWidth: 0
Flags: W
HStem: -109 238 318 120<119.544 191.353>
VStem: 34 86<0.260574 119.381> 99 114<339.191 416.75>
LayerCount: 2
Fore
SplineSet
99 367 m 0xd0
 99 405 134 438 168 438 c 0
 195 438 213 418 213 391 c 0
 213 353 179 318 145 318 c 0
 118 318 99 339 99 367 c 0xd0
EndSplineSet
Refer: 11 44 N 1 0 0 1 11 0 2
Substitution2: "'smcp' Lowercase to Small Capitals in Latin lookup 3-1" semicolon.sc
EndChar

StartChar: less
Encoding: 60 60 27
Width: 447
VWidth: 0
Flags: W
LayerCount: 2
Fore
SplineSet
87 209 m 1
 361 41 l 1
 361 41 363 40 363 36 c 0
 363 23 343 -14 338 -14 c 0
 337 -14 336 -14 334 -13 c 2
 22 177 l 2
 16 181 12 191 12 203 c 0
 12 217 18 232 35 241 c 2
 416 428 l 2
 418 429 419 429 420 429 c 0
 423 429 427 408 427 394 c 0
 427 391 426 376 422 374 c 2
 87 209 l 1
EndSplineSet
Substitution2: "'smcp' Lowercase to Small Capitals in Latin lookup 3-1" less.sc
EndChar

StartChar: equal
Encoding: 61 61 28
Width: 560
VWidth: 0
Flags: W
HStem: 117 56<43.0048 460.813> 259 56<71.458 488.858>
LayerCount: 2
Fore
SplineSet
39 117 m 1
 39 117 34 117 34 123 c 0
 34 126 48 173 57 173 c 2
 473 173 l 18
 478 173 479 170 479 168 c 0
 479 163 469 142 461 123 c 1
 457 117 454 117 454 117 c 1
 39 117 l 1
67 259 m 1
 67 259 63 259 63 265 c 0
 63 266 76 315 85 315 c 2
 500 315 l 2
 505 315 506 312 506 310 c 0
 506 305 497 284 489 265 c 0
 486 259 481 259 481 259 c 1
 67 259 l 1
EndSplineSet
Substitution2: "'smcp' Lowercase to Small Capitals in Latin lookup 3-1" equal.sc
EndChar

StartChar: greater
Encoding: 62 62 29
Width: 448
VWidth: 0
Flags: W
LayerCount: 2
Fore
SplineSet
339 209 m 1
 67 374 l 1
 67 374 65 375 65 378 c 0
 65 385 86 430 91 430 c 0
 92 430 93 429 95 428 c 2
 402 241 l 2
 409 237 414 230 414 221 c 0
 414 218 412 188 390 177 c 2
 5 -13 l 2
 3 -14 1 -15 -1 -15 c 0
 -6 -15 -7 4 -7 33 c 0
 -7 38 -2 41 -2 41 c 1
 339 209 l 1
EndSplineSet
Substitution2: "'smcp' Lowercase to Small Capitals in Latin lookup 3-1" greater.sc
EndChar

StartChar: question
Encoding: 63 63 30
Width: 320
VWidth: 0
Flags: W
HStem: -14 116<59.0005 128.844> 582 49<182.561 265.849>
VStem: 40 110<7.125 82.8877> 66 70<230.186 312.884> 277 51<467.125 570.128>
LayerCount: 2
Fore
SplineSet
40 32 m 0xe8
 40 70 72 102 105 102 c 0
 131 102 150 82 150 56 c 0
 150 19 115 -14 82 -14 c 0
 56 -14 40 6 40 32 c 0xe8
175 197 m 1
 175 193 170 184 165 181 c 1
 141 181 66 227 66 283 c 3
 66 325 89 348 115 366 c 0
 162 398 186 414 231 446 c 16
 251 460 277 484 277 522 c 3
 277 561 255 582 225 582 c 0
 181 582 181 536 143 536 c 0
 114 536 109 570 109 588 c 1
 114 603 157 631 195 631 c 0
 270 631 328 564 328 502 c 0
 328 460 316 428 283.608 398 c 0
 259.391 375.571 221.267 356.878 169 321 c 0
 144 304 136 288 136 261 c 27xd8
 136 232 164 205 175 197 c 1
EndSplineSet
Substitution2: "'smcp' Lowercase to Small Capitals in Latin lookup 3-1" question.sc
EndChar

StartChar: at
Encoding: 64 64 31
Width: 759
VWidth: 0
Flags: W
HStem: -6 36<443.5 539.027> -5 58<232.498 313.45> 395 40<376.703 478.5> 542 35<317.501 510.238>
VStem: 29 38<45.8709 265.271> 172 74<65.9005 219.522> 656 42<171.206 390.878>
LayerCount: 2
Fore
SplineSet
421 577 m 3xbe
 606 577 698 443 698 282 c 0
 698 76 550 -6 468 -6 c 0xbe
 419 -6 398 28 398 58 c 0
 398 66 399 77 403 98 c 0
 407 117 407 123 408 130 c 1
 386 91 318 -5 260 -5 c 3x7e
 205 -5 172 45 172 115 c 3
 172 275 324 435 461 435 c 0
 496 435 515 429 534 422 c 9
 470 105 l 2
 460 57 473 30 497 30 c 3
 572 30 656 163 656 267 c 0
 656 433 572 542 413 542 c 3
 244 542 67 380 67 140 c 0
 67 60 107 -16 160 -58 c 0
 177.872 -72.1628 197 -83 206 -87 c 1
 200 -92 193 -94 174 -94 c 0
 149 -94 113.687 -65.2689 100 -49 c 0
 47 14 29 76 29 141 c 0
 29 393 213 577 421 577 c 3xbe
413 395 m 3
 336 395 246 265 246 150 c 0
 246 88 262 53 297 53 c 3x7e
 347 53 418 177 437 273 c 2
 458 380 l 17
 449 390 426 395 413 395 c 3
EndSplineSet
Substitution2: "'smcp' Lowercase to Small Capitals in Latin lookup 3-1" at.sc
EndChar

StartChar: A
Encoding: 65 65 32
Width: 586
Flags: W
HStem: -3 29<-52.374 2.0531 79.0786 133.829 336.547 391.314 500.464 550.297> 256 33<192.219 367.383> 643 20G<381.532 387.032>
LayerCount: 2
Fore
SplineSet
341.001 26 m 1
 376.469 26 398 37 398 57 c 0
 398 67 398 87 395 106 c 2
 372.57 256 l 1
 174.011 256 l 1
 140.035 194.37 111.453 142.19 102.532 125 c 0
 84.4028 90.0669 74 65 74 50 c 0
 74 29 128.532 26 135.532 26 c 1
 137.532 23 134.532 3 131.532 -3 c 1
 94.5322 -1 83.5322 2 42.5322 2 c 0
 -0.467773 2 -12.4678 -1 -55.4678 -3 c 1
 -57.4678 0 -53.4678 19 -49.4678 26 c 1
 -38.4678 26 -4.59237 32.1161 7.53223 45 c 0
 32 71 49.4767 103.031 69.5322 139 c 2
 345.532 634 l 2
 354.532 650 377.532 663 385.532 663 c 0
 388.532 663 390 661 390.532 660 c 1
 476.572 126 l 2
 482.67 88.5957 487.202 61.8562 488 58 c 0
 494 29 544 26 551 26 c 1
 554 19 550 0 548 -3 c 1
 511.001 -1 479.532 2 438.532 2 c 0
 395.532 2 378.001 -1 335.001 -3 c 1
 331.001 2 335.001 21 341.001 26 c 1
192.219 289 m 1
 367.383 289 l 1
 328.532 535 l 1
 192.219 289 l 1
EndSplineSet
EndChar

StartChar: B
Encoding: 66 66 33
Width: 566
Flags: W
HStem: -3 29<-2.5654 67.4556 163.706 306.195> 339 31<218.064 350.718> 630 29<120.362 180.302 252.926 384.49>
VStem: 409 95<132.808 297.423> 433 88<454.807 592.757>
LayerCount: 2
Fore
SplineSet
218.064 370 m 1xe8
 312.064 370 l 2
 379.064 370 433 437 433 522 c 0
 433 578 405.453 630 319.453 630 c 0
 308.453 630 275.453 629 270.453 620 c 0
 263.453 608 257 575 251.453 545 c 2
 218.064 370 l 1xe8
211.425 339 m 1
 166.87 114 l 2
 164 100 156.481 50 161.481 43 c 0
 172.481 27 197.481 26 231.481 26 c 0
 334 26 409 95.6621 409 220 c 0xf0
 409 250 411.425 339 268.425 339 c 2
 211.425 339 l 1
233.453 657 m 0
 269.453 657 310.453 659 365.453 659 c 0
 450.453 659 521 623 521 537 c 0xe8
 521 437 441 387 401 366 c 1
 446 362 504 308 504 226 c 0
 504 90 378 -3 209.453 -3 c 0
 -4.54688 -3 l 1
 -8.54688 2 -3.54688 21 1.45312 26 c 1
 12.4531 26 63.4531 31 68.4531 42 c 0
 76.4531 58 81.4531 86 87.4531 116 c 2
 170.453 543 l 2
 176.453 573 181 602 180.453 617 c 0
 180.016 628.992 130.453 633 119.453 633 c 1
 116.453 638 118.453 657 124.453 662 c 1
 162.453 660 197.453 657 233.453 657 c 0
EndSplineSet
EndChar

StartChar: C
Encoding: 67 67 34
Width: 645
Flags: W
HStem: -8 29<284.692 432.749> 635 31<351.993 505.105>
VStem: 59 95<157.83 395.926> 585 31<489.428 561.331>
LayerCount: 2
Fore
SplineSet
569 173 m 1
 582 173 597 165 597 165 c 1
 593 145 540 40 525 28 c 1
 471 0 416 -8 330 -8 c 0
 168 -8 59 117 59 265 c 0
 59 517 257.628 670 465 666 c 0
 522.989 664.881 577 652 626 640 c 1
 624 604 619 522 616 494 c 0
 615.663 490.856 612 489 608 489 c 1
 601.57 488.827 593 490 585 494 c 1
 590 574 520 635 436 635 c 0
 280 635 153.375 498.999 154 282 c 0
 154.343 163 208 21 358 21 c 0
 460 21 526 91 569 173 c 1
EndSplineSet
EndChar

StartChar: D
Encoding: 68 68 35
Width: 684
Flags: W
HStem: -3 29<-2.5654 67.4556 159.256 322.824> 631 26<120.362 180.221 270.07 424.007>
LayerCount: 2
Fore
SplineSet
251.813 546 m 2
 167 112 l 2
 164 98 156 46 159 40 c 0
 164 29 198 26 232 26 c 0
 375 26 511.453 118 549.453 313 c 0
 593.453 539 490.813 631 337.813 631 c 0
 326.813 631 275.813 630 270.813 620 c 0
 262.813 604 257.36 575 251.813 546 c 2
368.453 658 m 0
 583.453 658 681.453 519 645.453 334 c 0
 612.453 164 499.453 -2 228.453 -3 c 1
 -4.54688 -3 l 1
 -8.54688 2 -3.54688 21 1.45312 26 c 1
 12.4531 26 63.4531 31 68.4531 42 c 0
 76.4531 58 81.4531 86 87.4531 116 c 2
 170.453 543 l 2
 176.453 573 182.453 601 180.453 617 c 0
 179.453 628 130.453 633 119.453 633 c 1
 116.453 638 118.453 657 124.453 662 c 1
 162.453 660 197.453 657 233.453 657 c 0
 269.453 657 327.453 658 368.453 658 c 0
EndSplineSet
EndChar

StartChar: E
Encoding: 69 69 36
Width: 554
Flags: W
HStem: 0 30<-2.03058 69.1056 158.472 357.333> 316 33<214.58 369.546> 630 27<120.525 179 269.882 468.353>
VStem: 383 29<230.036 271.632> 505 29<523.182 590.783>
LayerCount: 2
Back
SplineSet
417 630 m 2
 337 630 l 2
 326 630 276 629 271 619 c 0
 263 603 256 574 251 547 c 2
EndSplineSet
Fore
SplineSet
233 657 m 0
 320 657 432 664 533 664 c 1
 530 614 534 573 534 528 c 1
 531 525 523 523 516 523 c 0
 509 523 505 525 505 530 c 0
 500 610 466 630 417 630 c 2
 337 630 l 2
 326 630 276 629 271 619 c 0
 263 603 256 574 251 547 c 2
 214 355 l 2
 213 350 233 349 253 349 c 2
 302 349 l 2
 391 349 389 355 418 421 c 0
 420 426 427 428 434 428 c 0
 441 428 446 426 448 423 c 1
 412 234 l 1
 410 232 403 230 396 230 c 0
 389 230 384 233 383 238 c 0
 380 295 377 302 370 308 c 0
 361 315 308 316 273 316 c 0
 247 316 205.772 315.996 204 307 c 2
 165 109 l 2
 162 94 153 45 158 40 c 0
 168 30 183 30 222 30 c 2
 266 30 l 2
 317 30 358 40 390 61 c 0
 417 79 443 109 468 162 c 0
 470 166 476 168 483 168 c 0
 492 168 503 165 505 162 c 1
 477 108 437 40 422 -4 c 1
 321 -4 230 0 106 0 c 0
 62 0 31 -3 -5 -3 c 1
 -9 2 -5 21 -0 26 c 1
 11 26 63 31 68 42 c 0
 76 58 81 86 87 116 c 2
 170 543 l 2
 176 573 181 601 179 617 c 0
 178 628 129 633 118 633 c 1
 115 638 118 657 124 662 c 1
 162 660 197 657 233 657 c 0
EndSplineSet
EndChar

StartChar: F
Encoding: 70 70 37
Width: 508
Flags: W
HStem: -3 29<-3.82571 66.9961 158.506 226.284> 316 33<214.68 369.546> 630 27<120.525 179 269.882 468.353>
VStem: 383 29<230.036 271.632> 505 29<523.182 590.783>
LayerCount: 2
Fore
SplineSet
233 657 m 0
 320 657 432 664 533 664 c 1
 530 614 534 573 534 528 c 1
 531 525 523 523 516 523 c 0
 509 523 505 525 505 530 c 0
 500 610 466 630 417 630 c 2
 337 630 l 2
 326 630 276 629 271 619 c 0
 263 603 256 574 251 547 c 2
 214 355 l 2
 213 350 233 349 253 349 c 2
 302 349 l 2
 391 349 389 355 418 421 c 0
 420 426 427 428 434 428 c 0
 441 428 446 426 448 423 c 1
 412 234 l 1
 410 232 403 230 396 230 c 0
 389 230 384 233 383 238 c 0
 380 295 377 302 370 308 c 0
 361 315 308 316 273 316 c 0
 247 316 206 316 204 307 c 2
 167 116 l 2
 161 86 156 58 158 42 c 0
 159 31 217 26 228 26 c 1
 231 21 228 2 222 -3 c 1
 184 -1 141 2 105 2 c 0
 61 2 31 -3 -5 -3 c 1
 -9 2 -5 21 -0 26 c 1
 11 26 63 31 68 42 c 0
 76 58 81 86 87 116 c 2
 170 543 l 2
 176 573 181 601 179 617 c 0
 178 628 129 633 118 633 c 1
 115 638 118 657 124 662 c 1
 162 660 197 657 233 657 c 0
EndSplineSet
EndChar

StartChar: G
Encoding: 71 71 38
Width: 697
Flags: W
HStem: -8 29<282.257 427.998> 265 29<441.909 506.52 596.978 663.633> 635 31<351.993 505.105>
VStem: 59 95<159.906 395.926> 507 58<112.137 134.577> 585 31<489.428 562.104>
LayerCount: 2
Fore
SplineSet
585 494 m 1
 590 574 520 635 436 635 c 0
 280 635 153.375 498.999 154 282 c 0
 154.343 163 210 21 355 21 c 0
 403 21 446 41 467 55 c 0
 472.581 58.7209 476 65 477 72 c 0
 482 99 497 175 497 175 c 2
 503 205 509 233 507 249 c 0
 506 260 452 265 441 265 c 1
 438 270 440 289 446 294 c 1
 484 292 518 289 554 289 c 0
 590 289 625 292 664 294 c 1
 668 289 665 270 660 265 c 1
 649 265 601 260 596 249 c 0
 588 233 583 205 577 175 c 2
 563 104 l 2
 559 83 565 78 565 68 c 0
 565 61.917 560.842 55.3089 543 46 c 0
 497 22 447 -8 324 -8 c 0
 170 -8 59 117 59 265 c 0
 59 517 257.628 670 465 666 c 0
 522.989 664.881 577 652 626 640 c 1
 624 604 618 524 616 494 c 0
 615.663 490.855 612 489 608 489 c 1
 601.57 488.827 593 490 585 494 c 1
EndSplineSet
EndChar

StartChar: H
Encoding: 72 72 39
Width: 686
Flags: W
HStem: -3 29<-4.1929 66.6289 158.081 216.917 368.807 439.629 531.081 589.917> 316 40<214.284 498.509> 633 29<119.349 178.185 270.63 340.652 492.349 551.185 643.63 713.652>
LayerCount: 2
Fore
SplineSet
167.633 116 m 2
 162 86 155.633 58 157.633 42 c 0
 158.633 31 207.633 26 218.633 26 c 1
 221.633 21 218.633 2 212.633 -3 c 1
 174.633 -1 141.633 2 105.633 2 c 0
 69.6328 2 33.6328 -1 -5.36719 -3 c 1
 -9.36719 2 -5.36719 21 -0.367188 26 c 1
 10.6328 26 62.6328 31 67.6328 42 c 0
 75.6328 58 80.6328 86 86.6328 116 c 2
 169.633 543 l 2
 175.471 573.032 180.633 601 178.633 617 c 0
 177.633 628 128.633 633 117.633 633 c 1
 114.633 638 117.633 657 123.633 662 c 1
 161.633 660 196.633 657 232.633 657 c 0
 268.633 657 303.633 660 342.633 662 c 1
 346.633 657 341.633 638 336.633 633 c 1
 325.633 633 274.633 628 269.633 617 c 0
 261.633 601 256 573 250.633 543 c 2
 214.284 356 l 1
 506.284 356 l 1
 542.633 543 l 2
 548 573 553.633 601 551.633 617 c 0
 550.633 628 501.633 633 490.633 633 c 1
 487.633 638 490.633 657 496.633 662 c 1
 534.633 660 569.633 657 605.633 657 c 0
 641.633 657 676.633 660 715.633 662 c 1
 719.633 657 714.633 638 709.633 633 c 1
 698.633 633 647.633 628 642.633 617 c 0
 634.633 601 629.633 573 623.633 543 c 2
 540.633 116 l 2
 534.795 85.968 528.633 58 530.633 42 c 0
 531.633 31 580.633 26 591.633 26 c 1
 594.633 21 591.633 2 585.633 -3 c 1
 547.633 -1 513.633 2 477.633 2 c 0
 441.633 2 406.633 -1 367.633 -3 c 1
 363.633 2 367.633 21 372.633 26 c 1
 383.633 26 435.633 31 440.633 42 c 0
 448.633 58 453.809 86.0365 459.633 116 c 2
 498.509 316 l 1
 206.509 316 l 1
 167.633 116 l 2
EndSplineSet
EndChar

StartChar: I
Encoding: 73 73 40
Width: 313
Flags: W
HStem: -3 29<-4.1929 66.6289 158.081 216.917> 633 29<119.349 178.185 270.63 340.652>
LayerCount: 2
Fore
SplineSet
232.633 657 m 0
 268.633 657 303.633 660 342.633 662 c 1
 346.633 657 341.633 638 336.633 633 c 1
 325.633 633 274.633 628 269.633 617 c 0
 261.633 601 256.633 573 250.633 543 c 2
 167.633 116 l 2
 161.633 86 155.633 58 157.633 42 c 0
 158.633 31 207.633 26 218.633 26 c 1
 221.633 21 218.633 2 212.633 -3 c 1
 174.633 -1 141.633 2 105.633 2 c 0
 69.6328 2 33.6328 -1 -5.36719 -3 c 1
 -9.36719 2 -5.36719 21 -0.367188 26 c 1
 10.6328 26 62.6328 31 67.6328 42 c 0
 75.6328 58 80.6328 86 86.6328 116 c 2
 169.633 543 l 2
 175.633 573 180.633 601 178.633 617 c 0
 177.633 628 128.633 633 117.633 633 c 1
 114.633 638 117.633 657 123.633 662 c 1
 161.633 660 196.633 657 232.633 657 c 0
EndSplineSet
EndChar

StartChar: J
Encoding: 74 74 41
Width: 313
Flags: W
HStem: -233 19<-107.812 -85.2402> 633 29<113.349 172.185 264.63 334.652>
LayerCount: 2
Fore
SplineSet
163.633 543 m 2
 169 573 174.633 601 172.633 617 c 0
 171.633 628 122.633 633 111.633 633 c 1
 108.633 638 111.633 657 117.633 662 c 1
 155.633 660 190.633 657 226.633 657 c 0
 262.633 657 297.633 660 336.633 662 c 1
 340.633 657 335.633 638 330.633 633 c 1
 319.633 633 268.633 628 263.633 617 c 0
 255.633 601 250 573 244.633 543 c 2
 164 116 l 2
 114 -148 -25 -233 -105 -233 c 1
 -107 -230 -108 -225 -108 -220 c 0
 -108 -218 -107 -214 -107 -214 c 1
 5 -179 49 -83 84 109 c 2
 163.633 543 l 2
EndSplineSet
EndChar

StartChar: K
Encoding: 75 75 42
Width: 614
Flags: W
HStem: -3 29<-3.1929 66.6353 159.081 217.917 519.986 569.459> 633 29<120.349 179.185 270.637 341.086 455.486 497.838 595.127 662.272>
LayerCount: 2
Fore
SplineSet
480.633 72 m 0
 499.633 49 522.633 30 572.633 26 c 1
 576.633 21 567.633 -1 566.633 -3 c 1
 504.633 -3 453.633 1 436.633 8 c 0
 424.633 13 402.633 23 381.633 51 c 0
 366.633 72 301.633 175 221.633 304 c 0
 220.633 307 217.633 307 213.633 307 c 0
 210.633 307 206.633 306 204.633 305 c 1
 167.633 116 l 2
 161.633 86 156.633 58 158.633 42 c 0
 159.633 31 208.633 26 219.633 26 c 1
 222.633 21 219.633 2 213.633 -3 c 1
 175.633 -1 141.633 2 105.633 2 c 0
 69.6328 2 34.6328 -1 -4.36719 -3 c 1
 -8.36719 2 -4.36719 21 0.632812 26 c 1
 11.6328 26 62.6328 31 67.6328 42 c 0
 75.6328 58 80.6328 86 86.6328 116 c 2
 169.633 543 l 2
 175.633 573 181.633 601 179.633 617 c 0
 178.633 628 129.633 633 118.633 633 c 1
 115.633 638 118.633 657 124.633 662 c 1
 162.633 660 197.633 657 233.633 657 c 0
 269.633 657 303.633 660 342.633 662 c 1
 346.633 657 342.633 638 337.633 633 c 1
 326.633 633 274.633 628 269.633 617 c 0
 261.633 601 256.633 573 250.633 543 c 2
 211.633 340 l 1
 233.633 353 289.633 399 335.633 439 c 0
 423.633 516 424.633 515 480.633 576 c 0
 487.633 584 497.633 597 499.633 607 c 0
 504.633 632 460.633 632 452.633 632 c 1
 450.633 638 453.633 653 458.633 662 c 1
 492.633 660 529.633 656 563.633 656 c 0
 604.633 656 627.633 660 665.633 662 c 1
 666.633 656 662.633 632 657.633 632 c 0
 648.633 631 597.633 632 558.633 595 c 0
 460.633 501 398.633 450 301.633 366 c 0
 294.633 360 296.633 355 299.633 350 c 0
 367.633 238 423.633 145 480.633 72 c 0
EndSplineSet
EndChar

StartChar: L
Encoding: 76 76 43
Width: 530
Flags: W
HStem: 0 30<-0.631227 69.5587 158.565 356.367> 633 29<120.362 180.005 271.45 341.472>
LayerCount: 2
Fore
SplineSet
166.093 112 m 2
 163.093 97 153.093 45 158.093 40 c 0
 168.093 30 183.093 30 222.093 30 c 2
 275.093 30 l 2
 310.093 30 352.105 39.4929 383 57 c 0
 413 74 443.453 109 468.453 162 c 0
 470.453 166 476.453 168 483.453 168 c 0
 492.453 168 503.453 165 505.453 162 c 1
 477.453 108 437.453 40 422.453 -4 c 1
 321.453 -4 230.453 0 106.453 0 c 0
 62.4531 0 31.4531 -3 -4.54688 -3 c 1
 -8.54688 2 -3.54688 21 1.45312 26 c 1
 12.4531 26 63.4531 31 68.4531 42 c 0
 76.4531 58 81.4531 86 87.4531 116 c 2
 170.453 543 l 2
 176.453 573 182.453 601 180.453 617 c 0
 179.453 628 130.453 633 119.453 633 c 1
 116.453 638 118.453 657 124.453 662 c 1
 162.453 660 197.453 657 233.453 657 c 0
 269.453 657 304.453 660 343.453 662 c 1
 347.453 657 342.453 638 337.453 633 c 1
 326.453 633 275.453 628 270.453 617 c 0
 262.453 601 257 573 251.453 543 c 2
 166.093 112 l 2
EndSplineSet
EndChar

StartChar: M
Encoding: 77 77 44
Width: 838
Flags: W
HStem: -3 29<-20.7712 55.1434 119.506 185.668 529.229 594.622 692.589 751.656> 633 29<132.522 185.42 790.734 856.755>
LayerCount: 2
Fore
SplineSet
397.25 49 m 2
 392 40 363.25 0 352.25 -2 c 0
 349.25 -3 347.25 -1 344.25 0 c 1
 230.25 584 l 1
 184.25 366 121.25 85 119.25 75 c 0
 117.25 66 116.25 52 117.25 44 c 0
 120.25 29 180.25 26 187.25 26 c 1
 190.25 20 185.25 0 183.25 -3 c 1
 146.25 -1 127.25 2 86.25 2 c 0
 43.25 2 19.25 -1 -23.75 -3 c 1
 -24.75 -1 -22.75 18 -17.75 26 c 1
 -6.75 26 49.25 31 60.25 44 c 0
 71.25 57 76.25 73 81.25 94 c 0
 136.25 334 184.25 554 187.25 572 c 0
 190.25 586 193.25 601 191.25 612 c 1
 190.25 624 141.25 633 130.25 633 c 1
 128 639 132 659 136.25 662 c 1
 165 660 189 658 226 658 c 0
 254 658 286.25 660 307.25 662 c 1
 313.25 599 408 139 407 139 c 1
 406 139 632.25 542 632.25 542 c 2
 658 588 696.25 662 696.25 662 c 1
 725.25 660 748 658 766 658 c 0
 799 658 834.25 660 858.25 662 c 1
 858.25 659 856.25 633 856.25 633 c 1
 843.25 633 793.25 625 786.25 615 c 1
 781.25 606 776.25 589 774.25 577 c 2
 698.25 140 l 2
 691.25 101 687.25 67 691.25 43 c 0
 693.25 29 745.25 26 752.25 26 c 1
 755.25 17 751.25 0 749.25 -3 c 1
 712.25 -1 680.25 2 639.25 2 c 0
 596.25 2 569.25 -1 526.25 -3 c 1
 525.25 -1 527.25 18 532.25 26 c 1
 543.25 26 582.25 30 595.25 37 c 0
 602.25 41 608.25 65 611.25 79 c 0
 614.25 93 659 376 689.976 566 c 17
 676.976 545 397.25 49 397.25 49 c 2
EndSplineSet
EndChar

StartChar: N
Encoding: 78 78 45
Width: 732
Flags: W
HStem: -3 29<-9.54809 61.6612 138.383 196.885> 633 29<114.31 179.209 564.485 625.862 700.276 772.334>
LayerCount: 2
Fore
SplineSet
628 541 m 2
 635 577 637 597 631 613 c 0
 626 627 579 633 564 633 c 1
 561 640 564 657 567 662 c 1
 604 660 628 658 669 658 c 0
 712 658 730 660 773 662 c 1
 775 657 776 644 769 633 c 1
 758 633 703 626 694 614 c 0
 683 599 679 584 672 546 c 2
 593 139 l 2
 582 81 576 51 568 -1 c 1
 565 -4 554 -5 551 -5 c 0
 543 -5 531 4 524 18 c 2
 224 569 l 1
 136 115 l 2
 129 79 126 62 132 46 c 0
 136 36 184 26 199 26 c 1
 202 19 198 3 195 -3 c 1
 158 -1 132 2 91 2 c 0
 48 2 31 -1 -12 -3 c 1
 -14 2 -13 15 -6 26 c 1
 5 26 61 34 70 46 c 0
 81 61 86 76 93 114 c 2
 177 548 l 2
 184 586 186 601 181 616 c 0
 177 628 124 633 113 633 c 1
 110 644 114 657 118 662 c 1
 160 660 172 658 203 658 c 0
 231 658 272 661 285 662 c 1
 317 582 481 317 554 162 c 1
 628 541 l 2
EndSplineSet
EndChar

StartChar: O
Encoding: 79 79 46
Width: 710
Flags: W
HStem: -11 29<261.282 392.377> 635 30<340.452 472.82>
VStem: 61 94<148.992 404.767> 578 94<246.033 500.91>
LayerCount: 2
Fore
SplineSet
406 635 m 0
 280 635 155 478 155 268 c 0
 155 153 191 18 328 18 c 0
 481 18 578 214 578 393 c 0
 578 489 547.004 635 406 635 c 0
415 665 m 0
 573 665 672 542 672 382 c 0
 672 148 511 -11 319 -11 c 0
 157 -11 61 115 61 273 c 0
 61 503 232.656 665 415 665 c 0
EndSplineSet
EndChar

StartChar: P
Encoding: 80 80 47
Width: 511
Flags: W
HStem: -3 29<-4.1929 66.6289 158.081 216.917> 282 26<243.917 327.917> 630 29<119.349 178.722 253.18 379.773>
VStem: 433.633 89<413.546 584.428>
LayerCount: 2
Fore
SplineSet
522.633 508 m 0
 522.633 380 411.633 282 289.633 282 c 0
 268.633 282 250 288 245 292 c 0
 242.791 293.767 237 303 237 308 c 0
 237 310 239 311 241 312 c 1
 249 308 265 308 274 308 c 0
 348 308 433.633 382 433.633 494 c 0
 433.633 550 420.799 630 317.799 630 c 0
 306.799 630 274.799 629 269.799 620 c 0
 262.799 608 256.799 575 250.799 545 c 2
 166.633 116 l 2
 161 86 155.633 58 157.633 42 c 0
 158.633 31 207.633 26 218.633 26 c 1
 221.633 21 218.633 2 212.633 -3 c 1
 174.633 -1 140.633 2 104.633 2 c 0
 68.6328 2 33.6328 -1 -5.36719 -3 c 1
 -9.36719 2 -5.36719 21 -0.367188 26 c 1
 10.6328 26 62.6328 31 67.6328 42 c 0
 75.6328 58 80.6328 86 86.6328 116 c 2
 169.633 543 l 2
 175.633 573 180.633 601 178.633 617 c 0
 177.633 628 128.633 633 117.633 633 c 1
 114.633 638 117.633 657 123.633 662 c 1
 161.633 660 198.633 657 234.633 657 c 0
 270.633 657 287 659 342 659 c 0
 448 659 522.633 599 522.633 508 c 0
EndSplineSet
EndChar

StartChar: Q
Encoding: 81 81 48
Width: 710
Flags: W
HStem: -136 55<473.685 611.735> 635 30<340.452 472.82>
VStem: 61 94<150.603 404.767> 578 94<245.036 500.91>
LayerCount: 2
Fore
SplineSet
415 665 m 0
 573 665 672 542 672 382 c 0
 672 175.875 547.073 27.9454 386.076 -4.37318 c 1
 459.54 -46.991 483.706 -81 574.525 -81 c 0
 611.525 -81 659 -70 666 -68 c 1
 673 -68 685 -77 685 -81 c 1
 628 -110 566 -136 509 -136 c 0
 411.248 -136 343 -37 227.828 4.11914 c 16
 121.628 42.085 61.0001 147.438 61 273 c 0
 61 503 232.656 665 415 665 c 0
406 635 m 0
 280 635 155 478 155 268 c 0
 155 153 191 18 328 18 c 0
 481 18 578 214 578 393 c 0
 578 489 547.004 635 406 635 c 0
EndSplineSet
EndChar

StartChar: R
Encoding: 82 82 49
Width: 579
Flags: W
HStem: -3 29<-4.1929 66.6289 158.081 216.917 506.168 555.459> 303 30<209.633 278.412> 630 29<119.349 178.722 253.591 383.27>
VStem: 435 89<437.886 588.748>
LayerCount: 2
Fore
SplineSet
552.633 -3 m 1
 471 -3 407.516 0.750931 384 47 c 0
 354 106 311 204 278.633 291 c 0
 275.199 300.231 265.633 303 252.633 303 c 2
 203.633 303 l 1
 167.633 116 l 2
 162 86 155.633 58 157.633 42 c 0
 158.633 31 207.633 26 218.633 26 c 1
 221.633 21 218.633 2 212.633 -3 c 1
 174.633 -1 141.633 2 105.633 2 c 0
 69.6328 2 33.6328 -1 -5.36719 -3 c 1
 -9.36719 2 -5.36719 21 -0.367188 26 c 1
 10.6328 26 62.6328 31 67.6328 42 c 0
 75.6328 58 80.6328 86 86.6328 116 c 2
 169.633 543 l 2
 175.633 573 180.633 601 178.633 617 c 0
 177.633 628 128.633 633 117.633 633 c 1
 114.633 638 117.633 657 123.633 662 c 1
 161.633 660 199.633 657 235.633 657 c 0
 271.633 657 312.633 659 367.633 659 c 0
 452.633 659 524 611 524 518 c 0
 524 422 437 348 360 320 c 1
 393 230 441 129 465.633 86 c 0
 488.915 45.3588 508.633 30 558.633 26 c 1
 562.633 21 553.633 -1 552.633 -3 c 1
209.633 333 m 1
 259.633 333 l 2
 338.633 333 435 390 435 512 c 0
 435 553 421.604 630 318.604 630 c 0
 307.604 630 274.604 629 269.604 620 c 0
 262.604 608 256.604 575 250.604 545 c 2
 209.633 333 l 1
EndSplineSet
EndChar

StartChar: S
Encoding: 83 83 50
Width: 472
Flags: W
HStem: -8 30<147.381 265.179> 635 31<242.831 356.563>
VStem: 33.7979 35<108.572 189.471> 101.798 78<447.368 557.764> 331.798 89<107.625 222.662> 396.798 31<491.491 591.837>
LayerCount: 2
Fore
SplineSet
311.798 666 m 0xf8
 369.798 666 400 654 449 642 c 1
 446 608 434 528 427.798 498 c 0
 426.364 491.075 421 491 418 491 c 0
 414 491 403 492 396.798 498 c 1xf4
 401.798 578 375 635 303.798 635 c 0
 221.798 635 179.798 571 179.798 520 c 0
 179.798 438.416 241.798 406 294.798 364 c 0
 347.798 322 420.798 286.006 420.798 193 c 0
 420.798 69 301 -8 192.798 -8 c 0
 136 -8 84 12 45.7979 34 c 1
 32.7979 88 31.7979 172 33.7979 184 c 1
 36.7979 188 51.7979 190 58.7979 190 c 0
 63.7979 190 66.7979 188 68.7979 184 c 1
 68.7979 129 106 22 204.798 22 c 0
 271 22 331.798 67.5703 331.798 147 c 0
 331.798 219 287 254 237 294 c 0
 176.544 342.364 101.798 373.039 101.798 476 c 0
 101.798 591 218.798 666 311.798 666 c 0xf8
EndSplineSet
EndChar

StartChar: T
Encoding: 84 84 51
Width: 587
Flags: W
HStem: -3 29<133.981 204.003 295.448 355.091> 620 35<157.808 322.834 403.834 559.882>
VStem: 585.834 32<494.463 587.263>
LayerCount: 2
Fore
SplineSet
549.834 655 m 2
 565 655 596.834 664 608.834 670 c 0
 618.834 675 621.834 675 626.834 672 c 1
 621.834 611 617.834 553 617.834 500 c 1
 614.834 497 605.834 492 597.834 493 c 0
 592.834 493 586.834 495 585.834 498 c 1
 586.834 568 567.834 620 521.834 620 c 2
 403.834 620 l 1
 305 116 l 2
 299 86 293 58 295 42 c 0
 296 31 345 26 356 26 c 1
 359 21 357 2 351 -3 c 1
 313 -1 279 2 243 2 c 0
 207 2 171 -1 132 -3 c 1
 128 2 133 21 138 26 c 1
 149 26 200 31 205 42 c 0
 213 58 218 86 224 116 c 2
 322.834 620 l 1
 202.834 620 l 2
 156.834 620 116.834 568 89.834 498 c 0
 87.834 495 80.834 493 75.834 493 c 0
 66.834 492 60.834 497 58.834 500 c 1
 79.834 553 98.834 611 116.834 672 c 1
 122.834 675 131.834 672 136.834 669 c 0
 146.834 663 172 655 186.834 655 c 2
 549.834 655 l 2
EndSplineSet
EndChar

StartChar: U
Encoding: 85 85 52
Width: 661
Flags: W
HStem: -4 58<230.265 397.569> 633 29<105.815 164.257 255.702 325.724 514.409 571.459 643.383 717.014>
LayerCount: 2
Fore
SplineSet
217.705 657 m 0
 253.705 657 288.705 660 327.705 662 c 1
 331.705 657 326.705 638 321.705 633 c 1
 310.705 633 259.705 628 254.705 617 c 0
 246.705 601 241.705 573 235.705 543 c 2
 187.705 296 l 2
 172.6 218.108 173.846 159.335 193.271 120 c 0
 215 76 254.577 54 313.705 54 c 0
 409.705 54 483 102 519 274 c 0
 572 545 l 2
 579 581 582 598 576 614 c 0
 572 624 528 634 513 634 c 1
 510 641 514 657 517 663 c 1
 554 661 576 658 617 658 c 0
 660 658 676 661 719 663 c 1
 721 658 721 645 714 634 c 1
 703 634 646 626 637 614 c 0
 626 599 622 584 615 546 c 2
 562 276 l 2
 523 76 427.705 -4 282.705 -4 c 0
 212.479 -4 157.491 21.751 124.749 68 c 0
 93.6182 111.974 82.5967 174.479 97.7061 251 c 2
 154.705 543 l 2
 160.705 573 166.705 601 164.705 617 c 0
 163.705 628 114.705 633 103.705 633 c 1
 100.706 638 103.705 657 109.705 662 c 1
 147.705 660 181.705 657 217.705 657 c 0
EndSplineSet
EndChar

StartChar: V
Encoding: 86 86 53
Width: 596
Flags: W
HStem: -2 21G<225.402 233.402> 633 29<65.8774 110.785 235.342 288.324 486.331 529.143 624.8 677.112>
LayerCount: 2
Fore
SplineSet
175.402 657 m 0
 216.402 657 253.402 660 291.402 662 c 1
 292.402 656 288.402 634 284.402 633 c 1
 277.402 633 227.402 628 222.402 600 c 0
 220.378 590.167 220.76 564.809 225.706 529 c 0
 238 440 285 131 286 128 c 1
 290 133 511.402 524 511.402 524 c 2
 525 547 535.402 576 538.402 594 c 0
 544.402 626 496.402 633 485.402 633 c 1
 481.402 635 484.402 657 490.402 662 c 1
 524.402 660 554.402 657 588.402 657 c 0
 631.402 657 642.402 660 680.402 662 c 1
 682.402 657 676.402 633 673.402 633 c 0
 666.402 633 628.402 627 608.402 607 c 0
 594.402 593 563.402 544 542.402 506 c 2
 269.402 32 l 2
 254.402 5 239.402 -2 227.402 -2 c 0
 223.402 -2 222.402 10 221.402 14 c 0
 192.402 192 174.402 322 142.402 514 c 0
 136.402 553 129.402 584 118.402 610 c 0
 111.402 626 73.4023 633 62.4023 633 c 0
 60.4023 633 66.4023 660 68.4023 662 c 1
 110.402 660 132.402 657 175.402 657 c 0
EndSplineSet
EndChar

StartChar: W
Encoding: 87 87 54
Width: 841
Flags: W
HStem: -2 21G<186.402 194.402 522.402 530.402> 633 29<68.8774 110.387 228.361 281.597 724.157 768.323 867.091 916.112>
LayerCount: 2
Back
SplineSet
252.402 163 m 9
 473.402 629 l 2
 482.402 648 503.402 662 513.402 662 c 0
 517.402 662 518.402 657 521.402 646 c 1
 523.402 624 553.402 360 577.402 161 c 0
 577.402 153 585.402 158 587.402 163 c 2
 750.402 524 l 2
 760.402 548 772.402 576 775.402 594 c 0
 781.402 626 730.402 633 719.402 633 c 1
 715.402 635 719.402 657 725.402 662 c 1
 759.402 660 790.402 657 824.402 657 c 0
 867.402 657 878.402 660 916.402 662 c 1
 918.402 657 912.402 633 909.402 633 c 0
 902.402 633 866.402 624 844.402 607 c 0
 829.402 595 815.402 572 796.402 531 c 2
 563.402 32 l 2
 555.402 14 533.402 -2 521.402 -2 c 0
 517.402 -2 515.402 10 515.402 14 c 0
 493.402 202 479.402 303 455.402 498 c 0
 455.402 501 452.402 502 449.402 499 c 1
 226.402 32 l 2
 218.402 14 197.402 -2 185.402 -2 c 0
 181.402 -2 178.402 10 178.402 14 c 2
 130.402 532 l 2
 127.402 572 127.402 595 113.402 613 c 0
 103.402 626 73.4023 633 62.4023 633 c 0
 60.4023 633 66.4023 660 68.4023 662 c 1
 110.402 660 138.402 657 181.402 657 c 0
 222.402 657 244.402 660 282.402 662 c 1
 283.402 656 278.402 634 274.402 633 c 1
 267.402 633 217.402 628 212.402 600 c 0
 208.402 578 226.402 362 242.402 161 c 1
EndSplineSet
Fore
SplineSet
172 657 m 0
 213 657 247.402 660 285.402 662 c 1
 286.402 656 281.402 634 277.402 633 c 1
 270.402 633 220.446 627.992 215.402 600 c 0
 214.381 594.332 214.92 574.604 216.558 545 c 0
 221.262 459.945 235.027 293.37 246.879 144.52 c 1
 476.402 629 l 2
 486 648 506.402 662 516.402 662 c 0
 520.402 662 521.402 657 524.402 646 c 1
 526.39 624.148 558.564 342.798 582.517 144.015 c 1
 754.402 524 l 2
 765 548 775.402 576 778.402 594 c 0
 784.402 626 733.402 633 722.402 633 c 1
 718.402 635 722.402 657 728.402 662 c 1
 762.402 660 793.402 657 827.402 657 c 0
 870.402 657 881.402 660 919.402 662 c 1
 921.402 657 915.402 633 912.402 633 c 0
 905.402 633 869.402 624 847.402 607 c 0
 832.402 595 818.521 571.945 799.402 531 c 2
 566.402 32 l 2
 558.402 14 536.402 -2 524.402 -2 c 0
 520.402 -2 518.402 10 518.402 14 c 0
 496.443 201.648 481.059 316.577 457.135 510.906 c 1
 229.402 32 l 2
 221 14 200.402 -2 188.402 -2 c 0
 184.402 -2 181.402 10 181.402 14 c 2
 133.402 532 l 2
 130.402 572 130.354 594.963 116.402 613 c 0
 106.367 625.973 76.4023 633 65.4023 633 c 0
 63.4023 633 69.4023 660 71.4023 662 c 1
 113.402 660 129 657 172 657 c 0
EndSplineSet
EndChar

StartChar: X
Encoding: 88 88 55
Width: 620
Flags: W
HStem: -3 29<-54.5571 12.967 104.451 162.773 338.838 391.748 516.03 571.712> 633 29<105.183 149.618 287.271 341.56 474.985 528.644 618.975 676.068>
LayerCount: 2
Fore
SplineSet
224.355 657 m 0
 270.355 657 306.355 660 344.355 662 c 1
 345.355 656 342.355 633 337.355 633 c 0
 324.355 633 280.355 627 275.355 601 c 0
 273.355 593 275.355 583 280.355 571 c 2
 354.355 392 l 1
 425.355 472 507.355 564 526.355 592 c 0
 528.355 595 533.355 602 534.355 608 c 0
 535.355 614 525.355 632 473.355 632 c 1
 469.355 633 473.355 654 477.355 661 c 1
 514.355 658 542.355 656 576.355 656 c 0
 624.355 656 656.355 659 679.355 661 c 1
 681.355 656 678.355 638 671.355 632 c 1
 664.355 632 614.355 628 581.355 592 c 2
 368.355 361 l 1
 491.355 66 l 2
 503.355 37 543.355 26 574.355 26 c 1
 577.355 21 570.355 -1 569.355 -3 c 1
 532.355 -1 513.355 2 475.355 2 c 0
 423.355 2 390.355 -1 338.355 -3 c 1
 334.355 2 338.355 26 343.355 26 c 0
 353.355 26 399.355 35 403.355 54 c 0
 404.355 57 402.355 63 401.355 66 c 2
 305.355 300 l 1
 234.355 220 128 93 106.355 66 c 0
 104.1 63.1868 99.3555 56 98.3555 50 c 0
 97.3555 44 112.355 26 164.355 26 c 1
 167.355 20 162.355 0 160.355 -3 c 1
 126.355 -1 90.3555 2 56.3555 2 c 0
 8.35547 2 -20.6445 -1 -58.6445 -3 c 1
 -60.6445 3 -53.6445 23 -51.6445 26 c 1
 -44.6445 26 19.3555 30 52.3555 66 c 2
 289.355 332 l 1
 200.355 548 l 2
 186.355 584 175.355 601 152.355 617 c 0
 138.355 627 114.355 633 103.355 633 c 0
 98.3555 633 103.355 657 109.355 662 c 1
 154.355 660 178.355 657 224.355 657 c 0
EndSplineSet
EndChar

StartChar: Y
Encoding: 89 89 56
Width: 556
Flags: W
HStem: -3 29<121.028 191.05 282.495 342.138> 633 29<60.875 105.31 242.963 297.252 436.708 491.019 570.13 630.399>
LayerCount: 2
Fore
SplineSet
211.047 116 m 2
 240.047 267 l 2
 241.047 274 242.047 285 239.047 295 c 2
 156.047 548 l 2
 143.922 584.959 131.047 601 108.047 617 c 0
 94.0469 627 70.0469 633 59.0469 633 c 0
 54.0469 633 59.0469 657 65.0469 662 c 1
 110.047 660 134.047 657 180.047 657 c 0
 226.047 657 262.047 660 300.047 662 c 1
 301.047 656 298.047 633 293.047 633 c 0
 280.047 633 236.047 627 231.047 601 c 0
 229.047 593 232 584 236.047 571 c 2
 316.509 330.509 l 1
 379.544 418.803 475.271 561.409 492.047 592 c 0
 494.047 595 497.047 601 498.047 607 c 0
 499.047 613 487.047 632 435.047 632 c 1
 432 635 436 657 439.047 661 c 1
 473.047 659 498.047 656 532.047 656 c 0
 580.047 656 597.047 659 635.047 661 c 1
 635.047 658 630.047 632 627.047 632 c 0
 620.047 632 567.047 632 538.047 592 c 2
 333.047 301 l 2
 325.047 290 325.047 279 323.047 270 c 2
 292.047 116 l 2
 286.047 86 280.047 58 282.047 42 c 0
 283.047 31 332.047 26 343.047 26 c 1
 346.047 21 344.047 2 338.047 -3 c 1
 300.047 -1 266.047 2 230.047 2 c 0
 194.047 2 158.047 -1 119.047 -3 c 1
 115.047 2 120.047 21 125.047 26 c 1
 136.047 26 187.047 31 192.047 42 c 0
 200.047 58 205.047 86 211.047 116 c 2
EndSplineSet
EndChar

StartChar: Z
Encoding: 90 90 57
Width: 602
Flags: W
HStem: 0 32<102.77 408.416> 629 32<223.042 506.773> 649 20G<145.925 164.925>
LayerCount: 2
Fore
SplineSet
279.425 629 m 2xc0
 216.426 628.725 161.425 574 125.425 492 c 0
 123.425 489 119.425 488 114.425 488 c 0
 106.425 488 93.4248 493 91.4248 496 c 1
 116.425 542 136.425 601 155.425 669 c 1xa0
 174.425 666 205.425 661 230.425 661 c 2
 411.425 661 l 2xc0
 489.425 661 529.425 665 608.425 671 c 1
 612.425 670 622.425 657 620.425 649 c 0xa0
 617.467 641.111 311.567 270.378 102.77 32 c 1
 347.425 32 l 2
 393.973 32 431.616 58.0332 457 85.3291 c 0
 482.644 112.905 499.855 146.872 513.425 172 c 0
 514.425 174 521.425 175 526.425 175 c 0
 535.425 175 544.425 170 547.425 166 c 1
 509.425 87 493.425 50 474.425 0 c 1
 4.4248 0 l 2
 -5.5752 0 -15 8 -9.5752 14 c 2
 508.425 630 l 1
 279.425 629 l 2xc0
EndSplineSet
EndChar

StartChar: bracketleft
Encoding: 91 91 58
Width: 260
Flags: W
HStem: 695 45<209.013 315.228>
VStem: 7.26172 332
LayerCount: 2
Fore
SplineSet
161.263 717 m 2
 161.263 718 167.263 740 184.263 740 c 0
 259.262 740 319.262 749 334.262 749 c 0
 336.262 749 339.262 749 339.262 743 c 0
 339.262 721 316.262 707 315.262 706 c 2
 315.262 706 269.262 695 219.263 695 c 0
 213.263 695 211.263 687 211.263 687 c 1
 67.2617 -49 l 1
 67.2617 -49 66.2988 -56.3369 72.2617 -57 c 0
 108.263 -61 153.263 -75 165.263 -82 c 0
 167.705 -83.4248 178.263 -94 178.263 -103 c 0
 178.263 -114.181 171.263 -118 171.263 -118 c 1
 171.263 -118 90.2617 -102 14.2617 -102 c 0
 10.2617 -102 5.87402 -98.1465 7.26172 -91 c 0
 61.2617 187 161.263 717 161.263 717 c 2
EndSplineSet
Substitution2: "'smcp' Lowercase to Small Capitals in Latin lookup 3-1" bracketleft.sc
EndChar

StartChar: backslash
Encoding: 92 92 59
Width: 368
Flags: W
VStem: 115 175
LayerCount: 2
Fore
SplineSet
290 -4 m 2
 293 -20 274 -40 263 -40 c 0
 259 -40 255 -40 251 -37 c 1
 199 269 115 755 115 755 c 1
 117 758 123 762 129 762 c 0
 150 762 164 735 166 725 c 2
 290 -4 l 2
EndSplineSet
Substitution2: "'smcp' Lowercase to Small Capitals in Latin lookup 3-1" backslash.sc
EndChar

StartChar: bracketright
Encoding: 93 93 60
Width: 258
Flags: W
HStem: -102 45<-36.9146 69.2344> 695 45<113.031 207.766>
VStem: -58 328
LayerCount: 2
Back
SplineSet
31 -114 m 1
 31 -114 27.2618 -111.508 27.2618 -105.133 c 0
 27.2618 -88.58 46.9951 -74.0039 47 -74 c 2
 47 -74 93 -57 143 -57 c 0
 149 -57 152 -49 152 -49 c 1
EndSplineSet
Fore
SplineSet
109 749 m 0
 111 749 180 740 257 740 c 0
 268 740 270 732 270 725 c 0
 270 721 270 720 269 717 c 2
 115 -79 l 2
 115 -80 110 -102 93 -102 c 0
 17 -102 -54 -114 -54 -114 c 1
 -54 -114 -58 -111 -58 -105 c 0
 -58 -90 -43 -79 -38 -74 c 1
 -15 -66 18 -57 58 -57 c 0
 64 -57 67 -49 67 -49 c 1
 210 687 l 1
 210 687 211 695 205 695 c 0
 155 695 113 706 113 706 c 1
 111 708 101 713 101 728 c 0
 101 737 104 749 109 749 c 0
EndSplineSet
Substitution2: "'smcp' Lowercase to Small Capitals in Latin lookup 3-1" bracketright.sc
EndChar

StartChar: asciicircum
Encoding: 94 94 61
Width: 303
Flags: W
HStem: 475 215
VStem: 13 283
LayerCount: 2
Fore
SplineSet
13 499 m 1
 22 514 104 565 174 677 c 0
 180 687 179 690 186 690 c 0
 208 690 196 670 237 588 c 0
 252 558 295 505 296 500 c 1
 294 492 286 475 279 475 c 0
 259 475 190 564 172 597 c 1
 123 540 32 475 21 475 c 0
 13 475 13 491 13 499 c 1
EndSplineSet
Substitution2: "'smcp' Lowercase to Small Capitals in Latin lookup 3-1" asciicircum.sc
EndChar

StartChar: underscore
Encoding: 95 95 62
Width: 475
Flags: W
HStem: -43 56<-29.5284 394.031>
LayerCount: 2
Fore
SplineSet
-39 -37 m 0
 -39 -32 -23 13 -15 13 c 2
 399 13 l 2
 402 13 405 12 405 9 c 0
 405 5 397 -15 387 -37 c 0
 384 -43 381 -43 381 -43 c 1
 -34 -43 l 1
 -34 -43 -39 -43 -39 -37 c 0
EndSplineSet
EndChar

StartChar: a
Encoding: 97 97 64
Width: 449
Flags: W
HStem: -6 55<81.8113 158.385 286.811 328.107> 395 40<221.739 322.5>
VStem: 19 74<65.1934 221.895>
LayerCount: 2
Fore
SplineSet
305 435 m 0
 340 435 364 429 383 422 c 1
 322 106 l 2
 319.101661984 94.4066479374 311.257299553 49 328 49 c 0
 349 49 395 104 398 107 c 1
 401 107 408 94 408 88 c 1
 397 69 324 -6 277 -6 c 0
 256 -6 243 16 243 46 c 0
 243 54 246 78 250 99 c 0
 253 117 254 123 255 130 c 1
 235 94 166 -5 108 -5 c 0
 54 -5 19 43 19 113 c 0
 19 287 183 435 305 435 c 0
259 395 m 0
 182 395 93 266 93 151 c 0
 93 89 109 53 144 53 c 0
 194 53 265 178 284 274 c 2
 305 380 l 1
 296 390 272 395 259 395 c 0
EndSplineSet
Substitution2: "'smcp' Lowercase to Small Capitals in Latin lookup 3-1" a.sc
EndChar

StartChar: b
Encoding: 98 98 65
Width: 429
Flags: W
HStem: -6 33<127.543 200.431> 380 55<259.084 341> 631 21<76.307 132.742> 665 20G<201 214.5>
VStem: 137 81<547.219 666.737> 314 74<202.265 374.918>
LayerCount: 2
Fore
SplineSet
275 380 m 0
 232 380 139 266 118 156 c 0
 102 75 117 27 164 27 c 0
 248 27 314 221 314 302 c 0
 314 339 310 380 275 380 c 0
143 285 m 1
 213 402 286 435 318 435 c 0
 364 435 388 391 388 322 c 0
 388 142 243 -6 136 -6 c 0
 80 -6 43 37 43 111 c 0
 43 121 47 146 49 158 c 2
 128 559 l 2
 132 577 137 601 137 612 c 0
 137 631 92 631 76 631 c 1
 73 635 76 648 80 652 c 1
 135 657 190 677 212 685 c 1
 217 682 218 672 218 666 c 0
 218 658 210 616 205 591 c 2
 143 285 l 1
EndSplineSet
Substitution2: "'smcp' Lowercase to Small Capitals in Latin lookup 3-1" b.sc
EndChar

StartChar: c
Encoding: 99 99 66
Width: 359
Flags: W
HStem: -6 59<124.693 196.341> 394 41<201.636 291>
VStem: 24 78<74.6218 245.542>
LayerCount: 2
Fore
SplineSet
275 435 m 0
 307 435 324 421 337 410 c 1
 340 406 346 394 346 383 c 0
 346 360 335 338 312 338 c 0
 298 338 283 346 276 358 c 0
 266 374 253 394 224 394 c 0
 169 394 102 296 102 162 c 0
 102 127 108 53 171 53 c 0
 216 53 271 119 274 122 c 1
 277 122 286 108 286 102 c 1
 275 83 198 -6 135 -6 c 0
 64 -6 24 47 24 140 c 0
 24 300 172 435 275 435 c 0
EndSplineSet
Substitution2: "'smcp' Lowercase to Small Capitals in Latin lookup 3-1" c.sc
EndChar

StartChar: d
Encoding: 100 100 67
Width: 449
Flags: W
HStem: -5 58<76.4454 158.959 287 328.674> 395 40<222.947 290.664> 631 21<287.307 343.742> 665 20G<412 425.5>
VStem: 19 74<65.1712 219.36> 243 75<21.7226 163.305> 348 81<544.516 666.737>
LayerCount: 2
Fore
SplineSet
296 341 m 2
 300 364 288 395 261 395 c 0
 180 395 93 265 93 150 c 0
 93 95 107 53 144 53 c 0
 195 53 265 179 284 276 c 1
 296 341 l 2
339 559 m 2
 342 577 348 601 348 612 c 0
 348 631 303 631 287 631 c 1
 284 635 287 648 291 652 c 1
 346 657 401 677 423 685 c 1
 428 682 429 672 429 666 c 0
 429 658 421 616 416 591 c 2
 322 106 l 2
 321 102 318 78 318 73 c 0
 318 64 318 49 328 49 c 0
 349 49 395 104 398 107 c 1
 401 107 408 94 408 88 c 1
 397 69 324 -6 277 -6 c 0
 256 -6 243 16 243 46 c 0
 243 54 246 78 250 99 c 0
 254 118 254 123 255 130 c 1
 240 100 167 -5 107 -5 c 0
 45 -5 19 58 19 116 c 0
 19 273 173 435 303 435 c 0
 328 435 310 435 316 435 c 1
 339 559 l 2
EndSplineSet
Substitution2: "'smcp' Lowercase to Small Capitals in Latin lookup 3-1" d.sc
EndChar

StartChar: e
Encoding: 101 101 68
Width: 363
Flags: W
HStem: -6 59<123.417 196.244> 193 25<105 147.895> 394 41<196.759 299.5>
VStem: 23 78<76.3633 217.001 218 241.157> 266 74<313.223 388.912>
LayerCount: 2
Fore
SplineSet
274 435 m 0
 325 435 340 403 340 373 c 0
 340 277 165 193 103 193 c 1
 102 190 101 166 101 161 c 0
 101 100 120 53 170 53 c 0
 215 53 270 119 273 122 c 1
 276 122 285 108 285 102 c 1
 272 80 196 -6 133 -6 c 0
 62 -6 23 46 23 139 c 0
 23 287 159 435 274 435 c 0
105 218 m 1
 144 218 266 280 266 354 c 0
 266 381 243 394 224 394 c 0
 155 394 110 269 105 218 c 1
EndSplineSet
Substitution2: "'smcp' Lowercase to Small Capitals in Latin lookup 3-1" e.sc
EndChar

StartChar: f
Encoding: 102 102 69
Width: 296
Flags: W
HStem: -233 43<-84.5 -7.63745> 376 37<45.1577 123 203 307.371> 642 43<272.871 350.5>
LayerCount: 2
Fore
SplineSet
336 685 m 0
 365 685 383 673 390 660 c 1
 390 657.062 389.89 654.043 389.659 651 c 0
 387.927 628.144 379.415 604 360 604 c 0
 343 604 333 615 322 627 c 0
 315 634 307 642 293 642 c 0
 254 642 234 572 203 413 c 1
 303 413 l 2
 307 413 308 406 308 401 c 0
 308 391 304 384 299 376 c 1
 196 376 l 1
 196 376 161 169 137 43 c 0
 105 -121 10 -233 -70 -233 c 0
 -99 -233 -117 -221 -124 -208 c 1
 -124 -202.815 -123.656 -197.371 -122.914 -192 c 0
 -120.079 -171.474 -111.437 -152 -94 -152 c 0
 -77 -152 -67 -163 -56 -175 c 0
 -49 -182 -41 -190 -27 -190 c 0
 12 -190 32 -120 63 39 c 1
 123 376 l 1
 38 376 l 2
 37 376 36 377 36 379 c 0
 36 389 59 413 82 413 c 2
 129 413 l 1
 161 577 256 685 336 685 c 0
EndSplineSet
Substitution2: "'smcp' Lowercase to Small Capitals in Latin lookup 3-1" f.sc
EndChar

StartChar: g
Encoding: 103 103 70
Width: 412
Flags: W
HStem: -233 35<72.4048 225.958> 122 29<141.692 153> 407 29<172.391 240.84>
VStem: -48 74<-164.208 -76.9422> 40 74<174.296 327.093> 53 88<45 83.0928> 278 64<-150.513 -71.224 212.788 371.208>
LayerCount: 2
Fore
SplineSet
278 -118 m 0xf2
 278 -55 185 -24 127 -6 c 1
 87 -23 26 -54 26 -110 c 0
 26 -177 91 -198 169 -198 c 0
 236 -198 278 -160 278 -118 c 0xf2
212 407 m 0
 148 407 114 316 114 247 c 0xfa
 114 198 134 151 176 151 c 0
 241 151 273 232 273 294 c 0
 273 343 251 407 212 407 c 0
333 381 m 1
 334 375 347 339 347 312 c 0
 347 206 276 157 256 145 c 0
 221 124 141 105 141 82 c 0
 141 49 342 39 342 -78 c 0
 342 -173 251 -233 108 -233 c 0
 18 -233 -48 -197 -48 -135 c 0
 -48 -66 37 -21 96 6 c 1
 78 18 l 2
 66 26 53 36 53 54 c 0xf6
 53 79 120 114 153 122 c 1
 121 122 40 160 40 239 c 0
 40 352 136 436 229 436 c 0
 267 436 289 426 314 414 c 0
 328 407 364 427 377 429 c 1
 390 425 418 407 418 394 c 0
 418 387 414 380 406 380 c 0
 392 380 346 382 333 381 c 1
EndSplineSet
Substitution2: "'smcp' Lowercase to Small Capitals in Latin lookup 3-1" g.sc
EndChar

StartChar: h
Encoding: 104 104 71
Width: 470
Flags: W
HStem: -6 55<289 353.107> 361 74<286.866 356.5> 631 21<78.307 134.742> 665 20G<203 216.5>
VStem: 139 81<548.203 666.737> 266 75<21.7226 171.078> 315 77<222.125 388>
LayerCount: 2
Fore
SplineSet
207 591 m 2xfa
 156 330 l 1
 138 238 l 1
 151 263 271 435 337 435 c 0
 376 435 392 407 392 369 c 0xfa
 392 335 386 298 378 260 c 2
 345 106 l 2
 344 102 341 79 341 74 c 0
 341 65 341 49 351 49 c 0
 372 49 418 104 421 107 c 1
 424 107 431 94 431 88 c 1
 420 69 347 -6 300 -6 c 0
 278 -6 266 16 266 46 c 0xfc
 266 54 268 78 273 99 c 2
 308 264 l 2
 310 273 315 307 315 318 c 0
 315 341 313 361 296 361 c 0
 260 361 140 236 117 119 c 0
 111 88 102 46 92 0 c 1
 82 -3 66 -4 56 -4 c 0
 46 -4 34 -3 22 0 c 1
 130 559 l 2
 133 577 139 601 139 612 c 0
 139 631 94 631 78 631 c 1
 75 635 78 648 82 652 c 1
 137 657 192 677 214 685 c 1
 219 682 220 672 220 666 c 0
 220 658 212 616 207 591 c 2xfa
EndSplineSet
Substitution2: "'smcp' Lowercase to Small Capitals in Latin lookup 3-1" h.sc
EndChar

StartChar: i
Encoding: 105 105 72
Width: 262
Flags: W
HStem: -6 55<76.5 140.107> 380 55<97.7782 161.5> 546 100<127.035 191.228>
VStem: 53 75<46 126.683> 115 75<302.317 383> 116 88<557.783 635.875>
LayerCount: 2
Fore
SplineSet
111 323 m 2xf0
 112 329 115 350 115 355 c 0
 115 364 115 380 105 380 c 0
 84 380 38 325 35 322 c 1
 32 322 25 335 25 341 c 1
 36 360 104 435 151 435 c 0
 172 435 190 413 190 383 c 0xe8
 190 375 187 351 183 330 c 2
 132 106 l 2
 130 96 128 79 128 74 c 0
 128 65 128 49 138 49 c 0
 159 49 205 104 208 107 c 1
 211 107 218 94 218 88 c 1
 207 69 134 -6 87 -6 c 0
 66 -6 53 16 53 46 c 0
 53 54 56 78 60 99 c 2
 111 323 l 2xf0
168 646 m 0
 189 646 204 627 204 606 c 0
 204 575 181 546 150 546 c 0
 128 546 116 567 116 589 c 0xe4
 116 619 138 646 168 646 c 0
EndSplineSet
Substitution2: "'ccmp' Turkish i-1" i.TRK
Substitution2: "'smcp' Lowercase to Small Capitals in Latin lookup 3-1" i.sc
EndChar

StartChar: j
Encoding: 106 106 73
Width: 249
Flags: W
HStem: 380 55<103.778 167.5> 546 100<144.035 208.228>
VStem: 121 75<251.148 406.545> 133 88<557.783 635.875>
LayerCount: 2
Fore
SplineSet
117 323 m 2xe0
 118 329 121 350 121 355 c 0
 121 364 121 380 111 380 c 0
 90 380 44 325 41 322 c 1
 38 322 31 335 31 341 c 1
 42 360 110 435 157 435 c 0
 178 435 196 413 196 383 c 0
 196 375 193 351 189 330 c 2
 134 45 l 2
 127 9 106 -67 63 -124 c 0
 21 -179 -41 -221 -76 -235 c 1
 -80 -232 -85 -222 -85 -215 c 1
 -18 -177 35 -89 57 22 c 2
 117 323 l 2xe0
185 646 m 0
 206 646 221 627 221 606 c 0
 221 575 198 546 167 546 c 0
 145 546 133 567 133 589 c 0xd0
 133 619 155 646 185 646 c 0
EndSplineSet
Substitution2: "'smcp' Lowercase to Small Capitals in Latin lookup 3-1" j.sc
EndChar

StartChar: k
Encoding: 107 107 74
Width: 460
Flags: W
HStem: -4 55<294.109 353.184> 388 47<255.169 344.5> 631 21<79.307 135.742> 665 20G<204 217.5>
VStem: 140 81<547.516 666.737> 322 78<300.053 386.608>
LayerCount: 2
Fore
SplineSet
325 435 m 0
 364 435 400 406 400 367 c 0
 400 276 300 230 189 211 c 1
 277 79 305 51 346 51 c 0
 363 51 403 93 414 107 c 1
 417 107 424 93 424 88 c 1
 416 74 346 -4 302 -4 c 0
 223 -4 173 119 130 191 c 1
 93 0 l 1
 82 -3 69 -5 58 -5 c 0
 47 -5 34 -3 22 0 c 1
 131 559 l 2
 135 577 140 601 140 612 c 0
 140 631 95 631 79 631 c 1
 76 635 79 648 83 652 c 1
 138 657 193 677 215 685 c 1
 220 682 221 672 221 666 c 0
 221 658 213 616 208 591 c 2
 156 322 l 1
 161 326 239 435 325 435 c 0
289 388 m 0
 231 388 150 291 138 230 c 1
 205 230 322 271 322 354 c 0
 322 372 317 388 289 388 c 0
EndSplineSet
Substitution2: "'smcp' Lowercase to Small Capitals in Latin lookup 3-1" k.sc
EndChar

StartChar: l
Encoding: 108 108 75
Width: 243
Flags: W
HStem: -6 55<60 124.107> 631 21<82.307 138.742> 665 20G<207 220.5>
VStem: 37 75<21.7226 176.133> 143 81<545.078 666.737>
LayerCount: 2
Fore
SplineSet
134 559 m 2
 138 577 143 601 143 612 c 0
 143 631 98 631 82 631 c 1
 79 635 82 648 86 652 c 1
 141 657 196 677 218 685 c 1
 223 682 224 672 224 666 c 0
 224 658 216 616 211 591 c 2
 116 106 l 2
 115 102 112 79 112 74 c 0
 112 65 112 49 122 49 c 0
 143 49 189 104 192 107 c 1
 195 107 202 94 202 88 c 1
 191 69 118 -6 71 -6 c 0
 49 -6 37 16 37 46 c 0
 37 54 40 78 44 99 c 2
 134 559 l 2
EndSplineSet
Substitution2: "'smcp' Lowercase to Small Capitals in Latin lookup 3-1" l.sc
EndChar

StartChar: m
Encoding: 109 109 76
Width: 714
Flags: W
HStem: -6 55<554.004 595.107> 361 74<292.275 361.352 526.056 589.158> 380 55<94.7782 140.496>
VStem: 112 75<262.047 406.545> 329 75<221.316 360.953> 510 75<21.7226 171.078> 559 77<222.125 389.5>
LayerCount: 2
Fore
SplineSet
517 99 m 2xdc
 552 264 l 2
 554 273 559 307 559 318 c 0
 559 344 558 361 540 361 c 0
 500 361 385 233 366 132 c 2
 341 0 l 1
 327 -2 318 -3 304 -3 c 0
 290 -3 282 -2 269 0 c 1
 325 284 l 2
 328 300 329 313 329 322 c 0
 329 348 322 361 309 361 c 0xda
 264 361 158 218 138 122 c 2
 113 0 l 1
 102 -3 91 -4 77 -4 c 0
 63 -4 54 -2 42 0 c 1
 108 323 l 2
 109 329 112 350 112 355 c 0
 112 364 112 380 102 380 c 0
 81 380 35 325 32 322 c 1
 29 322 22 335 22 341 c 1
 33 360 101 435 148 435 c 0xba
 169 435 187 413 187 383 c 0
 187 375 183 351 179 330 c 0
 172 294 167 273 159 237 c 1
 195 300 285 435 337 435 c 0
 395 435 404 384 404 340 c 0
 404 316 396 268 390 251 c 1
 426 314 522 435 574 435 c 0
 620 435 636 410 636 369 c 0xda
 636 335 629 292 622 260 c 2
 589 106 l 2
 587 96 585 79 585 74 c 0
 585 65 585 49 595 49 c 0
 616 49 662 104 665 107 c 1
 668 107 675 94 675 88 c 1
 664 69 591 -6 544 -6 c 0
 523 -6 510 16 510 46 c 0
 510 54 513 78 517 99 c 2xdc
EndSplineSet
Substitution2: "'smcp' Lowercase to Small Capitals in Latin lookup 3-1" m.sc
EndChar

StartChar: n
Encoding: 110 110 77
Width: 497
Flags: W
HStem: -6 55<316.5 380.107> 361 74<306.5 372.158> 380 55<94.7782 158.5>
VStem: 112 75<250.133 406.545> 293 75<21.7226 171.078> 342 77<222.125 389.5>
LayerCount: 2
Fore
SplineSet
179 330 m 2xb4
 161 246 l 1
 174 271 290 435 357 435 c 0
 403 435 419 410 419 369 c 0xd4
 419 338 412 294 405 260 c 2
 372 106 l 2
 370 96 368 79 368 74 c 0
 368 65 368 49 378 49 c 0
 399 49 445 104 448 107 c 1
 451 107 458 94 458 88 c 1
 447 69 374 -6 327 -6 c 0
 306 -6 293 16 293 46 c 0xd8
 293 54 296 78 300 99 c 2
 335 264 l 2
 337 273 342 307 342 318 c 0
 342 344 341 361 323 361 c 0xd4
 286 361 162 247 138 122 c 0
 129 74 123 48 113 0 c 1
 101 -3 91 -4 77 -4 c 0
 63 -4 54 -3 42 0 c 1
 108 323 l 2
 109 329 112 350 112 355 c 0
 112 364 112 380 102 380 c 0
 81 380 35 325 32 322 c 1
 29 322 22 335 22 341 c 1
 33 360 101 435 148 435 c 0
 169 435 187 413 187 383 c 0
 187 375 184 351 179 330 c 2xb4
EndSplineSet
Substitution2: "'smcp' Lowercase to Small Capitals in Latin lookup 3-1" n.sc
EndChar

StartChar: o
Encoding: 111 111 78
Width: 414
Flags: W
HStem: -5 32<128.829 202.828> 403 32<192.936 265.934>
VStem: 24 78<49.2289 249.363> 290 78<176.798 384.03>
LayerCount: 2
Fore
SplineSet
237 403 m 0
 153 403 102 258 102 158 c 0
 102 78 123 27 159 27 c 0
 242 27 290 173 290 273 c 0
 290 353 273 403 237 403 c 0
251 435 m 0
 331 435 368 374 368 288 c 0
 368 148 255 -5 140 -5 c 0
 60 -5 24 52 24 138 c 0
 24 278 136 435 251 435 c 0
EndSplineSet
Substitution2: "'smcp' Lowercase to Small Capitals in Latin lookup 3-1" o.sc
EndChar

StartChar: p
Encoding: 112 112 79
Width: 448
Flags: W
HStem: -235 29<-53.9379 -13.6636> -226 27<88.0912 134.868> -5 35<145.288 224.913> 380 55<257.859 352.785>
VStem: 333.287 74<198.629 368.99>
LayerCount: 2
Fore
SplineSet
280.287 380 m 0x38
 247.287 380 189.287 338 162.287 300 c 1
 129.287 131 l 2
 118.287 72 146.287 30 176.287 30 c 0
 261.287 30 333.287 184 333.287 303 c 0
 333.287 358 312.287 380 280.287 380 c 0x38
320.287 435 m 0
 384.287 435 407.287 384 407.287 314 c 0
 407.287 159 277.287 -5 155.287 -5 c 0
 138.287 -5 115.287 -2 109.287 8 c 1
 76.2871 -145 l 2
 74.2871 -154 73.2871 -163 73.2871 -173 c 0
 73.2871 -178 77.2871 -193 87.2871 -196 c 0
 104.287 -200 131.287 -199 134.287 -199 c 0
 138.287 -200 136.287 -225 131.287 -227 c 1
 118.287 -227 107.287 -226 96.2871 -226 c 0x78
 45.2871 -226 6.28711 -228 -51.7129 -235 c 1
 -56.7129 -234 -55.7129 -209 -50.7129 -206 c 1xb8
 -32.7129 -206 -19.7129 -201 -10.7129 -190 c 0
 -3.71289 -181 0.287109 -170 5.28711 -147 c 2
 84.2871 250 l 1
 36.2871 202 l 1
 32.2871 207 30.2871 217 30.2871 222 c 0
 30.2871 226 32.2871 228 33.2871 229 c 2
 92.2871 292 l 1
 118.287 433 l 1
 129.287 436 145.287 437 156.287 437 c 0
 167.287 437 178.287 435 188.287 430 c 1
 184.287 411 173.287 353 172.287 346 c 1
 199.287 371 269.287 435 320.287 435 c 0
EndSplineSet
Substitution2: "'smcp' Lowercase to Small Capitals in Latin lookup 3-1" p.sc
EndChar

StartChar: q
Encoding: 113 113 80
Width: 426
Flags: W
HStem: -227 19<294.469 320.369> -5 58<76 159.391> 395 40<222.624 320.5>
VStem: 19 74<65.1712 219.36>
LayerCount: 2
Fore
SplineSet
317 -228 m 1
 303 -228 290 -227 277 -227 c 0
 219 -227 164 -231 127 -235 c 1
 125 -233 124 -208 130 -208 c 0
 159 -205 193 -197 198 -171 c 2
 254 130 l 1
 234 94 165 -5 107 -5 c 0
 45 -5 19 58 19 116 c 0
 19 273 173 435 303 435 c 0
 338 435 363 429 382 422 c 1
 321 106 l 2
 320 102 275 -150 275 -150 c 2
 274 -158 273 -165 273 -171 c 0
 273 -185 275 -201 319 -201 c 0
 323 -201 322 -225 317 -228 c 1
296 341 m 2
 300 364 288 395 261 395 c 0
 180 395 93 265 93 150 c 0
 93 95 107 53 144 53 c 0
 195 53 265 179 284 276 c 1
 296 341 l 2
EndSplineSet
Substitution2: "'smcp' Lowercase to Small Capitals in Latin lookup 3-1" q.sc
EndChar

StartChar: r
Encoding: 114 114 81
Width: 356
Flags: W
HStem: -3 21G<77.5 89.5> 365 70<266.712 339.811> 380 55<93.7782 157.5>
VStem: 111 75<242.42 406.545>
LayerCount: 2
Fore
SplineSet
307 435 m 0xd0
 329 435 347 424 356 414 c 0
 360 409 365 396 365 386 c 0
 365 360 352 342 329 342 c 0
 320 342 307 348 299 357 c 0
 295 362 287 365 279 365 c 0xd0
 243 365 159 226 140 122 c 2
 118 0 l 1
 107 -2 95 -3 84 -3 c 0
 71 -3 59 -2 47 0 c 1
 107 323 l 2
 108 329 111 350 111 355 c 0
 111 364 111 380 101 380 c 0
 80 380 34 325 31 322 c 1
 28 322 21 335 21 341 c 1
 32 360 100 435 147 435 c 0xb0
 168 435 186 413 186 383 c 0
 186 375 182 351 178 330 c 0
 172 297 168 279 161 246 c 1
 189 313 260 435 307 435 c 0xd0
EndSplineSet
Substitution2: "'smcp' Lowercase to Small Capitals in Latin lookup 3-1" r.sc
EndChar

StartChar: s
Encoding: 115 115 82
Width: 322
Flags: W
HStem: -6 32<93.9586 170.788> 404 34<132.121 203.386>
VStem: 60 58<293.506 376.858> 184 61<48.1324 139.924>
LayerCount: 2
Fore
SplineSet
199 438 m 0
 239 438 264 429 285 411 c 1
 290 404 295 386 295 379 c 0
 295 356 281 338 261 338 c 0
 243 338 227 355 214 373 c 0
 203 389 196 404 167 404 c 0
 132 404 118 369 118 348 c 0
 118 308 153 277 184 242 c 0
 215 206 245 167 245 117 c 0
 245 43 184 -6 100 -6 c 0
 69 -6 38 2 12 24 c 1
 9 29 2 44 2 54 c 0
 2 83 19 100 39 100 c 0
 59 100 67 76 82 55 c 0
 93 40 108 26 135 26 c 0
 175 26 184 63 184 84 c 0
 184 119 158 146 132 176 c 0
 97 215 60 255 60 312 c 0
 60 368 115 438 199 438 c 0
EndSplineSet
Substitution2: "'smcp' Lowercase to Small Capitals in Latin lookup 3-1" s.sc
EndChar

StartChar: t
Encoding: 116 116 83
Width: 278
Flags: W
HStem: -6 55<72.5 136.107> 376 37<50.1577 110 188 267.371>
VStem: 49 75<21.7226 177.312>
LayerCount: 2
Fore
SplineSet
117 413 m 1
 128 472 l 1
 139 486 185 538 193 538 c 0
 199 538 206 535 210 532 c 1
 188 413 l 1
 263 413 l 2
 267 413 268 406 268 401 c 0
 268 391 264 384 259 376 c 1
 181 376 l 1
 128 106 l 2
 126 96 124 79 124 74 c 0
 124 65 124 49 134 49 c 0
 155 49 201 104 204 107 c 1
 207 107 214 94 214 88 c 1
 203 69 130 -6 83 -6 c 0
 62 -6 49 16 49 46 c 0
 49 54 52 78 56 99 c 2
 110 376 l 1
 43 376 l 2
 42 376 41 377 41 379 c 0
 41 389 64 413 87 413 c 2
 117 413 l 1
EndSplineSet
Substitution2: "'smcp' Lowercase to Small Capitals in Latin lookup 3-1" t.sc
EndChar

StartChar: u
Encoding: 117 117 84
Width: 491
Flags: W
HStem: -6 74<103.553 164.73> -6 55<308.5 372.107> 380 55<92.7782 156.5>
VStem: 59 77<47 206.875> 110 75<257.922 406.545> 285 75<21.7226 187.893>
LayerCount: 2
Fore
SplineSet
292 99 m 0x74
 298 133 303 152 310 186 c 1
 284 130 175 -6 109 -6 c 0
 70 -6 59 28 59 66 c 0xb4
 59 94 67 140 73 169 c 2
 106 323 l 2
 107 329 110 350 110 355 c 0
 110 364 110 380 100 380 c 0
 79 380 33 325 30 322 c 1
 27 322 20 335 20 341 c 1
 31 360 99 435 146 435 c 0
 167 435 185 413 185 383 c 0xac
 185 375 182 351 178 330 c 2
 143 165 l 2
 141 156 136 122 136 111 c 0
 136 88 138 68 155 68 c 0xb4
 191 68 309.624 194.073 334 319 c 0
 342 360 348 387 356 429 c 1
 366 432 377 433 387 433 c 0
 397 433 414 432 426 429 c 1
 364 106 l 2
 362 96 360 79 360 74 c 0
 360 65 360 49 370 49 c 0
 391 49 437 104 440 107 c 1
 443 107 450 94 450 88 c 1
 439 69 366 -6 319 -6 c 0
 298 -6 285 16 285 46 c 0
 285 54 288 78 292 99 c 0x74
EndSplineSet
Substitution2: "'smcp' Lowercase to Small Capitals in Latin lookup 3-1" u.sc
EndChar

StartChar: v
Encoding: 118 118 85
Width: 439
Flags: W
HStem: -6 21G<111.5 149.5> 380 55<89.7782 153.5>
VStem: 107 75<66.0033 379.988> 339 76<274.116 407.361>
LayerCount: 2
Fore
SplineSet
186 65 m 1
 257 126 283 164 314 226 c 0
 332 262 339 310 339 333 c 0
 339 354 330 379 313 396 c 1
 319 413 336 435 360 435 c 0
 398 435 415 401 415 355 c 0
 415 229 184 -6 115 -6 c 1
 108 2 107 118 107 148 c 2
 107 355 l 2
 107 364 107 380 97 380 c 0
 76 380 30 325 27 322 c 1
 24 322 17 335 17 341 c 1
 28 360 96 435 143 435 c 0
 164 435 182 411 182 381 c 2
 182 328 l 1
 182 176 l 2
 182 133 183 86 186 65 c 1
EndSplineSet
Substitution2: "'smcp' Lowercase to Small Capitals in Latin lookup 3-1" v.sc
EndChar

StartChar: w
Encoding: 119 119 86
Width: 629
Flags: W
HStem: -6 21G<111.5 136 335.5 373.5> 380 55<89.7782 153.5>
VStem: 107 75<90.9852 379.988> 319 72<76.7733 214> 527 76<266.468 407.361>
LayerCount: 2
Fore
SplineSet
385 375 m 1
 386 334 388 246 391 183 c 0
 393 140 396 92 406 76 c 1
 459 122 490 165 513 229 c 0
 527 267 527 310 527 333 c 0
 527 354 518 379 501 396 c 1
 507 413 524 435 548 435 c 0
 586 435 603 401 603 355 c 0
 603 229 408 -6 339 -6 c 1
 332 2 320 120 319 150 c 0
 318 176 317 214 317 214 c 1
 250 118 157 -6 115 -6 c 1
 108 2 107 118 107 148 c 2
 107 355 l 2
 107 364 107 380 97 380 c 0
 76 380 30 325 27 322 c 1
 24 322 17 335 17 341 c 1
 28 360 96 435 143 435 c 0
 164 435 182 411 182 381 c 2
 182 328 l 1
 182 176 l 2
 182 133 183 111 186 90 c 1
 231 138 281 223 299 255 c 0
 323 299 333 326 342 347 c 1
 350 357 372 372 385 375 c 1
EndSplineSet
Substitution2: "'smcp' Lowercase to Small Capitals in Latin lookup 3-1" w.sc
EndChar

StartChar: x
Encoding: 120 120 87
Width: 482
Flags: W
HStem: -5 90<26.7507 82.7162> -4 56<275.5 342.062> 345 90<368.651 424.249> 380 55<122.098 188.5>
LayerCount: 2
Fore
SplineSet
295 89 m 2x20
 299.279 68.0551 308 52 330 52 c 0
 347 52 392 93 403 107 c 1
 406 107 413 93 413 88 c 1
 405 74 335 -4 291 -4 c 0x60
 260 -4 233 29 222 82 c 2
 204.514 167.779 l 1
 155.087 70.3119 127.894 -5.00001 73 -5 c 0
 59 -5 42 -3 26 7 c 1
 20 15 15 26 15 41 c 0
 15 65 29 85 52 85 c 0
 72 85 77 58 98 56 c 0
 113 55 120.962 67.0222 128 79 c 0
 154.753 124.531 172.311 156.142 197.056 204.368 c 1
 169 342 l 2
 164.532 363.12 155 380 137 380 c 0
 117 380 72 338 61 324 c 1
 58 324 51 338 51 343 c 1
 59 357 129 435 173 435 c 0x90
 204 435 231.356 403.284 242 349 c 2
 255.87 280.96 l 1
 299.571 369.174 326.68 435 378 435 c 0
 392 435 409 433 425 423 c 1
 431 415 436 404 436 389 c 0
 436 365 422 345 399 345 c 0
 379 345 374 372 353 374 c 0
 338 375 330.038 362.978 323 351 c 0
 299.782 311.485 283.49 282.455 263.414 243.949 c 1
 295 89 l 2x20
EndSplineSet
Substitution2: "'smcp' Lowercase to Small Capitals in Latin lookup 3-1" x.sc
EndChar

StartChar: y
Encoding: 121 121 88
Width: 447
Flags: W
HStem: -233 66<-95.8058 17.5759> 380 55<78.7782 175>
VStem: 146 75<15 256.979> 336 69<239.016 407.385>
LayerCount: 2
Fore
SplineSet
132 435 m 0
 218 435 221 76 221 15 c 1
 257 59 336 176 336 285 c 0
 336 346 322 371 311 392 c 1
 319 418 337 435 361 435 c 0
 403 435 405 378 405 356 c 0
 405 122 84 -233 -51 -233 c 0
 -87 -233 -111 -214 -111 -192 c 0
 -111 -175 -103 -156 -88 -148 c 1
 -73 -157 -30 -167 -8 -167 c 0
 54 -167 95 -132 128 -84 c 0
 151 -50 146 19 146 62 c 0
 146 176 135 380 86 380 c 0
 65 380 19 325 16 322 c 1
 13 322 6 335 6 341 c 1
 17 360 85 435 132 435 c 0
EndSplineSet
Substitution2: "'smcp' Lowercase to Small Capitals in Latin lookup 3-1" y.sc
EndChar

StartChar: z
Encoding: 122 122 89
Width: 387
Flags: W
HStem: 0 69<187.954 261.598> 32 71<53.8692 171.047> 332 72<190.805 310.44> 366 69<103.951 180.455>
VStem: 43 12<299.388 308.76>
LayerCount: 2
Fore
SplineSet
145 435 m 0x18
 174 435 197 424 222 415 c 0
 239 409 257 404 278 404 c 0x28
 315 404 360 435 368 435 c 1
 376 431 379 422 379 415 c 0
 379 401 95 96 92 92 c 1
 96 94 116 103 138 103 c 0x58
 160 103 181 95 200 86 c 0
 219 78 237 69 253 69 c 0
 279 69 305 127 311 136 c 1
 320 136 322 128 323 120 c 1
 306 82 265 0 218 0 c 0x88
 194 0 164 12 138 22 c 0
 122 28 90 32 67 32 c 0x48
 38 32 21 10 1 0 c 1
 -5 2 -9 10 -10 19 c 1
 -10 34 290 349 292 353 c 1
 289 351 262 332 229 332 c 0xa8
 207 332 187 341 168 349 c 0
 149 358 131 366 114 366 c 0
 86 366 61 307 55 298 c 1
 48 298 44 305 43 314 c 1
 49 334 99 435 145 435 c 0x18
EndSplineSet
Substitution2: "'smcp' Lowercase to Small Capitals in Latin lookup 3-1" z.sc
EndChar

StartChar: braceleft
Encoding: 123 123 90
Width: 210
Flags: W
LayerCount: 2
Fore
SplineSet
128.432 402 m 0
 133.432 428 126.432 452 121.432 477 c 0
 115.432 503 110.432 529 116.432 560 c 0
 135.432 657 207.432 722 250.432 739 c 1
 257.432 739 264.432 729 262.432 720 c 1
 234.432 707 176.432 659 166.432 608 c 0
 159.432 570 166.432 545 172.432 517 c 0
 178.432 492 183.432 464 175.432 424 c 0
 162.432 359 111.432 317 85.4316 307 c 1
 107.432 297 143.432 255 130.432 190 c 0
 122.432 150 106.432 122 90.4316 97 c 0
 73.4316 69 56.4316 44 49.4316 6 c 0
 39.4316 -45 78.4316 -93 101.432 -106 c 1
 99.4316 -115 89.4316 -125 82.4316 -125 c 1
 45.4316 -108 -0.568359 -43 18.4316 54 c 0
 24.4316 85 39.4316 111 55.4316 137 c 0
 70.4316 162 86.4316 186 91.4316 212 c 0
 101.432 265 71.4316 286 37.4316 296 c 1
 36.4316 298 36.4316 303 37.4316 307 c 0
 38.4316 311 39.4316 316 41.4316 318 c 1
 79.4316 328 118.432 349 128.432 402 c 0
EndSplineSet
Substitution2: "'smcp' Lowercase to Small Capitals in Latin lookup 3-1" braceleft.sc
EndChar

StartChar: bar
Encoding: 124 124 91
Width: 207
Flags: W
VStem: 0.0771484 227.998
LayerCount: 2
Fore
SplineSet
169.075 757 m 1
 179.075 767 195.075 773 213.075 773 c 0
 220.075 773 229.075 770 228.075 766 c 2
 60.0762 -106 l 1
 53.0762 -114 33.0762 -123 14.0762 -123 c 0
 8.07715 -123 -0.922852 -120 0.0771484 -115 c 2
 169.075 757 l 1
EndSplineSet
Substitution2: "'smcp' Lowercase to Small Capitals in Latin lookup 3-1" bar.sc
EndChar

StartChar: braceright
Encoding: 125 125 92
Width: 212
Flags: W
LayerCount: 2
Fore
SplineSet
143.39 739 m 1
 180.39 722 227.39 657 208.39 560 c 0
 202.39 529 187.39 503 171.39 477 c 0
 156.39 452 140.39 428 135.39 402 c 0
 125.39 349 155.39 328 189.39 318 c 1
 190.39 316 190.39 311 189.39 307 c 0
 188.39 302 187.39 299 185.39 296 c 1
 147.39 286 108.39 265 98.3896 212 c 0
 93.3896 186 100.39 162 105.39 137 c 0
 111.39 111 116.39 85 110.39 54 c 0
 91.3896 -43 18.3896 -108 -24.6104 -125 c 1
 -31.6104 -125 -37.6104 -115 -35.6104 -106 c 1
 -7.61035 -93 50.3896 -45 60.3896 6 c 0
 67.3896 44 60.3896 69 54.3896 97 c 0
 48.3896 122 43.3896 150 51.3896 190 c 0
 64.3896 255 115.39 297 141.39 307 c 1
 119.39 317 83.3896 359 96.3896 424 c 0
 104.39 464 120.39 492 136.39 517 c 0
 153.39 545 170.39 570 177.39 608 c 0
 187.39 659 148.39 707 125.39 720 c 1
 127.39 729 136.39 739 143.39 739 c 1
EndSplineSet
Substitution2: "'smcp' Lowercase to Small Capitals in Latin lookup 3-1" braceright.sc
EndChar

StartChar: asciitilde
Encoding: 126 126 93
Width: 545
Flags: W
HStem: 250 51<311.779 448.709> 303 51<118.05 251.516>
LayerCount: 2
Fore
SplineSet
197 354 m 0
 285 354 317 301 405 301 c 0
 441 301 467 322 498 345 c 1
 500 343 504 341 504 335 c 0
 504 305 440 250 369 250 c 0
 281 250 246 303 158 303 c 0
 122 303 96 282 65 259 c 1
 63 261 59 263 59 269 c 0
 59 308 142 354 197 354 c 0
EndSplineSet
Substitution2: "'smcp' Lowercase to Small Capitals in Latin lookup 3-1" asciitilde.sc
EndChar

StartChar: exclamdown
Encoding: 161 161 95
Width: 203
VWidth: 0
Flags: W
HStem: 324 116<91.125 160>
VStem: -37 91<-253.388 -124.039> 71 108<342.451 420.226>
LayerCount: 2
Fore
SplineSet
0 -269 m 19
 -25 -269 -37 -248 -37 -223 c 0
 -37 -198 -32 -193 82 256 c 0
 85 268 92 281 98 278 c 0
 111 271 115 267 115 257 c 1
 115 257 55 -199 54 -206 c 0
 48 -237 29 -269 0 -269 c 19
71 369 m 0
 71 406 103 440 136 440 c 0
 162 440 179 419 179 393 c 0
 179 355 147 324 114 324 c 0
 88 324 71 343 71 369 c 0
EndSplineSet
Substitution2: "'smcp' Lowercase to Small Capitals in Latin lookup 3-1" exclamdown.sc
EndChar

StartChar: cent
Encoding: 162 162 96
Width: 358
Flags: W
HStem: -6 59<118.693 190.341> 394 41<195.636 285>
VStem: 18 78<74.6218 245.542>
LayerCount: 2
Fore
SplineSet
254 474 m 17
 261 474 286 473 285 466 c 9
 109 -45 l 17
 101 -45 77 -43 78 -36 c 9
 254 474 l 17
EndSplineSet
Refer: 66 99 N 1 0 0 1 -6 0 2
EndChar

StartChar: sterling
Encoding: 163 163 97
Width: 447
UnlinkRmOvrlpSave: 1
Flags: W
HStem: -8 69<219.208 317.985> 29 64<68.0085 180.524> 280 39<60.8179 301.036> 593 42<257.727 356.679>
LayerCount: 2
Fore
SplineSet
67 319 m 1x30
 94 319 298.179 319 311.179 319 c 1
 315.179 319 306.179 287 294.179 280 c 1
 267.179 280 63 280 50 280 c 1
 45 293 57 309 67 319 c 1x30
172 248 m 0
 157.406 172.92 117 118 87 88 c 1
 105 95 121.179 93 162.179 93 c 0x70
 212.179 93 266.179 61 302.179 61 c 0
 343.179 61 367.179 111 384.179 134 c 1
 388.179 134 393.179 127 393.179 117 c 0
 393.179 113 392.179 110 391.179 108 c 0
 371.179 71 325.179 -8 259.179 -8 c 0xb0
 199.179 -8 135.179 29 89.1787 29 c 0x70
 60.1787 29 31.1787 7 12.1787 -9 c 1
 0.178711 -9 -2.82129 4 -1.82129 10 c 1
 19.1787 40 36.1787 56 56.1787 82 c 1
 78 128 90.1143 181 101 237 c 0
 109.553 281 107.143 356 119 417 c 0
 143.474 542.909 239.179 635 339.179 635 c 0
 374.179 635 393.179 622 403.179 598 c 1
 403.179 573 388.179 539 364.179 539 c 0
 326.179 539 332.179 593 294.179 593 c 0
 231.179 593 207.21 517.96 194 450 c 0
 182.532 391 181.33 296 172 248 c 0
EndSplineSet
EndChar

StartChar: currency
Encoding: 164 164 98
Width: 504
Flags: W
HStem: 120 32<194.235 282.716> 463 33<234.118 323.983>
VStem: 84 70<197.092 362.424> 363 69<252.472 417.647>
LayerCount: 2
Fore
SplineSet
237 152 m 0
 305 152 363 249 363 341 c 0
 363 411 330 463 281 463 c 0
 213 463 154 365 154 273 c 0
 154 203 188 152 237 152 c 0
392 455 m 1
 458 510 l 2
 459 511 461 511 462 511 c 3
 472 511 486 487 488 466 c 1
 421 410 l 1
 428 391 432 370 432 347 c 0
 432 282 400 228 376 199 c 1
 415 141 l 2
 415 140 416 140 416 139 c 3
 416 129 388 106 366 100 c 1
 329 155 l 1
 297 133 260 120 223 120 c 0
 183 120 149 135 125 160 c 1
 66 110 l 2
 65 109 63 109 62 109 c 3
 52 109 38 133 36 154 c 1
 96 205 l 1
 88 224 84 245 84 268 c 0
 84 330 114 388 146 423 c 1
 109 479 l 2
 109 480 108 480 108 481 c 3
 108 491 136 514 158 520 c 1
 195 465 l 1
 226 485 261 496 296 496 c 0
 336 496 368 481 392 455 c 1
EndSplineSet
EndChar

StartChar: yen
Encoding: 165 165 99
Width: 592
Flags: W
HStem: -3 28<147.246 214.673 301.488 358.356> 138 38<156.714 414.138> 216 38<171.873 429.297> 604 28<89.0379 133.373 263.773 315.47 446.813 498.732 575.977 633.783>
LayerCount: 2
Fore
SplineSet
173.424 216 m 2
 170.424 216 169.424 220 169.424 224 c 0
 169.424 231 175.424 248 182.424 254 c 1
 428.424 254 l 2
 430.424 254 431.424 251 431.424 247 c 0
 431.424 242 428.424 225 419.424 216 c 1
 173.424 216 l 2
158.265 138 m 2
 155.265 138 154.265 142 154.265 146 c 0
 154.265 153 160.265 170 167.265 176 c 1
 413.265 176 l 2
 415.265 176 416.265 173 416.265 169 c 0
 416.265 164 413.265 147 404.265 138 c 1
 158.265 138 l 2
233.265 111 m 2
 261.265 255 l 2
 262.265 262 263.265 272 260.265 282 c 2
 180.265 523 l 2
 168.265 558 157.265 574 135.265 589 c 0
 122.265 599 99.2646 604 88.2646 604 c 0
 83.2646 604 87.2646 627 93.2646 632 c 1
 136.265 630 159.265 627 203.265 627 c 0
 247.265 627 282.265 630 318.265 632 c 1
 319.265 626 316.265 604 311.265 604 c 0
 299.265 604 257.265 599 252.265 574 c 0
 250.265 566 253.265 557 257.265 545 c 2
 333.265 316 l 1
 393.265 400 483.265 536 499.265 565 c 0
 501.265 568 504.265 573 505.265 579 c 0
 506.265 585 495.265 603 445.265 603 c 1
 442.265 606 446.265 627 449.265 631 c 1
 481.265 629 507.265 626 539.265 626 c 0
 585.265 626 602.265 629 638.265 631 c 1
 638.265 628 633.265 603 630.265 603 c 0
 623.265 603 573.265 603 545.265 565 c 2
 349.265 287 l 2
 341.265 276 342.265 267 340.265 258 c 2
 310.265 111 l 2
 304.265 82 299.265 55 301.265 40 c 0
 302.265 29 348.265 25 359.265 25 c 1
 362.265 20 360.265 2 354.265 -3 c 1
 318.265 -1 285.265 2 251.265 2 c 0
 217.265 2 182.265 -1 145.265 -3 c 1
 141.265 2 146.265 20 151.265 25 c 1
 162.265 25 210.265 29 215.265 40 c 0
 223.265 55 227.265 82 233.265 111 c 2
EndSplineSet
EndChar

StartChar: brokenbar
Encoding: 166 166 100
Width: 211
VWidth: 0
Flags: W
VStem: 2.07715 226.998
LayerCount: 2
Fore
SplineSet
170.075 754 m 1
 180.075 764 196.075 770 214.075 770 c 27
 221.075 770 230.075 767 229.075 763 c 2
 160.075 400 l 1
 153.075 392 134.075 383 115.075 383 c 27
 109.075 383 99.0762 386 100.076 391 c 2
 170.075 754 l 1
72.0762 248 m 1
 82.0762 258 98.0762 264 116.075 264 c 27
 123.075 264 132.075 261 131.075 257 c 2
 62.0762 -106 l 1
 55.0762 -114 35.0762 -123 16.0762 -123 c 27
 10.0771 -123 1.07715 -120 2.07715 -115 c 2
 72.0762 248 l 1
EndSplineSet
EndChar

StartChar: section
Encoding: 167 167 101
Width: 395
UnlinkRmOvrlpSave: 1
Flags: W
HStem: -78 50<35.3653 151.222> 603 50<251.593 367.803>
LayerCount: 2
Fore
SplineSet
349.584 653 m 0
 245.584 653 166.584 587 150.584 507 c 0
 136.584 435 190.584 379 226.584 335 c 0
 267.584 285 307.584 218 291.584 135 c 0
 282.584 91 262.584 71 234.584 33 c 0
 234.584 33 209.584 14 196.584 -3 c 24
 188.584 -14 188.584 -23 184.584 -35 c 17
 224.584 -9 336.584 105 350.584 179 c 0
 367.584 265 321.584 335 282.584 383 c 0
 247.584 426 192.584 503 201.584 549 c 0
 208.584 587 257.584 603 286.584 603 c 0
 300.584 603 308.584 599 315.584 595 c 0
 323.584 590 330.584 583 346.584 583 c 0
 361.584 583 383.584 605 386.584 619 c 0
 387.584 625 389.584 635 386.584 645 c 1
 374.584 651 362.584 653 349.584 653 c 0
168.584 542 m 0
 168.584 542 193.584 561 206.584 578 c 24
 214.584 589 214.584 598 218.584 610 c 17
 178.584 584 66.584 470 52.584 396 c 0
 35.584 310 81.584 240 120.584 192 c 0
 155.584 149 210.584 72 201.584 26 c 0
 194.584 -12 144.584 -28 115.584 -28 c 0
 101.584 -28 94.584 -24 87.584 -20 c 0
 79.584 -15 72.584 -8 56.584 -8 c 0
 41.584 -8 19.584 -30 16.584 -44 c 0
 15.584 -50 13.584 -60 16.584 -70 c 1
 28.584 -76 40.584 -78 53.584 -78 c 0
 157.584 -78 236.584 -12 252.584 68 c 0
 266.584 140 212.584 196 176.584 240 c 0
 135.584 290 95.584 357 111.584 440 c 0
 120.584 484 140.584 504 168.584 542 c 0
EndSplineSet
EndChar

StartChar: copyright
Encoding: 169 169 103
Width: 603
Flags: W
HStem: 69 31<196.389 344.482> 195 32<266.935 375.097> 449 34<297.256 403.71> 584 31<287.104 437.705>
VStem: 57 30<213.253 374.562> 179 55<251.764 390.215> 423 22<394.59 424.07> 546 29<309.17 468.384>
LayerCount: 2
Fore
SplineSet
342 483 m 0
 370 483 413 477 442 464 c 1
 443 462 444 459 444 456 c 16
 445 442 445 415 445 406 c 0
 445 395 432 394 429 394 c 0
 427 394 424 395 423 396 c 1
 423 409 413 449 347 449 c 0
 292 449 234 390 234 315 c 0
 234 255 275 227 312 227 c 0
 388 227 395 267 403 279 c 1
 403 279 405 280 407 280 c 27
 413 280 421 276 421 276 c 1
 420 273 397 217 390 214 c 0
 358 201 327 195 288 195 c 0
 223 195 179 242 179 307 c 0
 179 394 254 483 342 483 c 0
369 615 m 0
 491 615 575 522 575 398 c 0
 575 225 421 69 262 69 c 0
 140 69 57 162 57 286 c 0
 57 459 210 615 369 615 c 0
363 584 m 0
 224 584 87 446 87 292 c 0
 87 183 161 100 269 100 c 0
 408 100 546 238 546 391 c 0
 546 501 471 584 363 584 c 0
EndSplineSet
EndChar

StartChar: ordfeminine
Encoding: 170 170 104
Width: 380
VWidth: 0
Flags: W
HStem: 249 41<124.915 172.02 265 299.923> 529 28<217.691 292.5>
VStem: 59 57<294.5 418.758> 231 58<268.065 376.821>
LayerCount: 2
Fore
SplineSet
257 249 m 0
 241 249 231 265 231 286 c 0
 231 292 233 308 236 323 c 0
 238 336 240 339 241 344 c 1
 225 319 171 250 127 250 c 0
 85 250 59 283 59 332 c 0
 59 453 186 557 279 557 c 0
 306 557 324 553 339 548 c 1
 292 327 l 2
 291 324 289 308 289 305 c 0
 289 299 289 288 296 288 c 0
 312 288 349 326 351 328 c 1
 353 328 358 319 358 315 c 1
 350 302 293 249 257 249 c 0
244 529 m 0
 185 529 116 439 116 359 c 0
 116 316 128 290 155 290 c 0
 194 290 248 378 263 445 c 2
 279 519 l 1
 272 526 254 529 244 529 c 0
EndSplineSet
EndChar

StartChar: guillemotleft
Encoding: 171 171 105
Width: 484
VWidth: 0
Flags: W
VStem: 27 89<219.901 267.151> 207 89<219.901 267.151>
LayerCount: 2
Fore
SplineSet
400 91 m 1
 395 82 385 76 379 73 c 1
 349 112 277 182 217 228 c 0
 211 232 207 236 207 242 c 0
 207 253 215 262 222 266 c 0
 333 329 375 368 446 423 c 1
 450 422 462 417 464 408 c 1
 459 396 296 249 296 249 c 1
 296 249 400 99 400 91 c 1
220 91 m 1
 215 82 205 76 199 73 c 1
 169 112 97 182 37 228 c 0
 31 232 27 236 27 242 c 0
 27 253 35 262 42 266 c 0
 153 329 195 368 266 423 c 1
 270 422 282 417 284 408 c 1
 279 396 116 249 116 249 c 1
 116 249 220 99 220 91 c 1
EndSplineSet
EndChar

StartChar: logicalnot
Encoding: 172 172 106
Width: 540
VWidth: 0
Flags: W
HStem: 314 43<49.8217 434>
LayerCount: 2
Fore
SplineSet
70 357 m 2
 493 357 l 1
 446 115 l 1
 443 112 425 103 411 103 c 27
 405 103 396 105 397 111 c 2
 434 314 l 9
 52 314 l 1
 52 314 49 322 49 328 c 0
 49 345 61 357 70 357 c 2
EndSplineSet
EndChar

StartChar: registered
Encoding: 174 174 107
Width: 603
Flags: W
HStem: 133 32<208.086 361.123> 272 13<186.433 213.115 273.716 293.119 430.16 447.662> 407 21<294.745 317.29> 529 25<298.086 374.282> 541 12<239.17 258.539> 648 32<296.858 449.88>
VStem: 382.433 46<438.76 526.673>
LayerCount: 2
Fore
SplineSet
344.433 529 m 27xf6
 315.433 529 311.433 525 310.433 519 c 26
 296.433 444 l 2
 296.433 442 294.433 441 294.433 440 c 3
 294.433 429 317.433 428 332.433 428 c 27
 363.433 428 382.433 460 382.433 491 c 3
 382.433 519 365.433 529 344.433 529 c 27xf6
354.433 554 m 27
 392.433 554 428.433 534 428.433 493 c 3
 428.433 455 404.433 431 370.433 414 c 16
 369.433 413 369.433 412 369.433 411 c 2
 369.433 410 l 1
 371.433 398 386.433 362 401.433 333 c 0
 415.433 305 425.433 286 448.433 286 c 1
 448.433 282 447.433 277 446.433 275 c 1
 442.433 273 435.433 272 428.433 272 c 3
 369.433 272 357.433 294 317.433 398 c 0
 314.433 405 308.433 407 300.433 407 c 0
 291.433 407 288.433 405 287.433 399 c 26
 270.433 310 l 1
 270.433 299 l 2
 270.433 296 271.433 292 273.433 291 c 0
 279.433 288 288.433 285 292.433 285 c 0
 293.433 285 293.433 283 293.433 282 c 27
 293.433 278 292.433 276 291.433 272 c 25
 272.433 273 260.433 274 241.433 274 c 27
 220.433 274 207.433 273 186.433 272 c 25
 186.433 275 185.433 277 185.433 280 c 27
 185.433 282 187.433 283 188.433 285 c 17
 225.433 290 217.433 295 225.433 330 c 25
 258.433 499 l 26
 260.433 510 262.433 517 262.433 528 c 0
 262.433 537 246.433 541 240.433 541 c 3
 239.433 541 238.433 542 238.433 543 c 27
 238.433 547 240.433 549 241.433 553 c 25xee
 258.433 552 267.433 550 284.433 550 c 27
 311.433 550 327.433 554 354.433 554 c 27
381.433 680 m 0
 521.433 680 612.433 558 583.433 407 c 0
 554.433 256 415.433 133 275.433 133 c 0
 135.433 133 45.4326 256 74.4326 407 c 0
 103.433 558 241.433 680 381.433 680 c 0
376.433 648 m 0
 252.433 648 131.433 540 105.433 407 c 0
 79.4326 274 158.433 165 282.433 165 c 0
 406.433 165 528.433 274 554.433 407 c 0
 580.433 540 500.433 648 376.433 648 c 0
EndSplineSet
EndChar

StartChar: degree
Encoding: 176 176 109
Width: 266
VWidth: 0
Flags: W
HStem: 437 37<136.051 214.974> 597 37<150.647 231.277>
VStem: 90 36<483.773 571.242> 241 36<501.504 586.935>
LayerCount: 2
Fore
SplineSet
126 524 m 0
 126 496 144 474 172 474 c 0
 207 474 241 509 241 548 c 0
 241 576 223 597 195 597 c 0
 160 597 126 565 126 524 c 0
90 517 m 0
 90 582 149 634 202 634 c 0
 246 634 277 600 277 555 c 0
 277 493 220 437 165 437 c 0
 121 437 90 472 90 517 c 0
EndSplineSet
EndChar

StartChar: plusminus
Encoding: 177 177 110
Width: 489
VWidth: 0
Flags: W
HStem: 21 43<0.61171 405.103> 306 43<56.6117 231 287 461.082>
LayerCount: 2
Fore
SplineSet
403 64 m 2
 405 64 406 61 406 56 c 0
 406 43 405 33 394 21 c 1
 4 21 l 2
 1 21 -1 24 -1 29 c 0
 -1 42 2 51 12 64 c 1
 403 64 l 2
59 306 m 2
 56 306 55 309 55 314 c 0
 55 327 58 336 68 349 c 1
 239 349 l 1
 273 524 l 2
 276 537 310 540 314 540 c 0
 322 540 324 536 323 532 c 2
 287 349 l 1
 458 349 l 2
 460 349 462 346 462 341 c 0
 462 328 461 318 450 306 c 1
 279 306 l 1
 245 128 l 2
 243 118 225 112 209 112 c 0
 199 112 196 116 196 120 c 2
 231 306 l 1
 59 306 l 2
EndSplineSet
EndChar

StartChar: uni00B2
Encoding: 178 178 111
Width: 345
Flags: W
HStem: 255 54<116.529 277.993> 602 44.511<169.027 246.576>
VStem: 259 78<493.343 589.141>
LayerCount: 2
Fore
SplineSet
337 564 m 0
 337 508.505 298.298 466.907 255 423 c 0
 203.774 370.555 115.31 309 116.529 309 c 9
 235 309 l 2
 266 309 283.484 333.899 295.072 359.512 c 0
 296.292 362.561 300.341 364 304 364 c 0
 306.438 364 317.391 357.219 318 356 c 1
 302.146 326.117 274.878 265.977 270 255 c 9
 270 255 54.2734 255 50.0049 255 c 1
 48.7852 256.22 46 267.341 46 271 c 1
 79.541 301.491 167.093 384.284 203.072 425.143 c 0
 244.541 472.099 259 510 259 545 c 0
 259 579.15 230.881 602 200.999 602 c 0
 155.871 602 130.722 564.623 121.575 552.426 c 1
 117.307 552.426 112.428 566.745 113.037 569.184 c 1
 119.745 584.43 171 646.511 240 646.511 c 0
 284.518 646.511 337 621 337 564 c 0
EndSplineSet
EndChar

StartChar: uni00B3
Encoding: 179 179 112
Width: 316
Flags: W
HStem: 247 31<111.954 190.868> 448 21<132.036 167.437> 608 40<167.921 233.212>
VStem: 231 71<329.69 438.728> 241 55<529.118 602.681>
LayerCount: 2
Fore
SplineSet
229 648 m 0xe8
 258 648 296 627 296 581 c 0xe8
 296 540 252 503 220 485 c 1
 264 482 302 439 302 402 c 0
 302 296 180 247 125 247 c 0
 95 247 65 252 51 262 c 1
 49 265 45 273 45 280 c 0
 45 299 63 322 77 322 c 0
 97 322 102 305 111 294 c 0
 122 281 139 278 155 278 c 0
 190 278 231 316 231 386 c 0xf0
 231 428 206 452 168 452 c 0
 156 452 143 450 136 448 c 1
 134 451 132 452 132 455 c 0
 132 457 132 467 133 469 c 1
 183 478 241 513 241 560 c 0
 241 584 226 608 200 608 c 0
 163 608 140 571 134 567 c 1
 130 567 125 578 126 584 c 1
 153 622 184 648 229 648 c 0xe8
EndSplineSet
EndChar

StartChar: paragraph
Encoding: 182 182 115
Width: 483
Flags: W
HStem: -90 43<159.707 236.57> 622 37<256.388 406.714> 633 24<466.847 522.019>
VStem: 64 215<352.908 530.271>
LayerCount: 2
Fore
SplineSet
298.888 659 m 0xd0
 353.888 659 393.888 657 429.888 657 c 0
 465.888 657 485 660 524 662 c 1
 528 657 523 638 518 633 c 1xb0
 507 633 467.887 628 462.887 617 c 0
 454.887 601 449.074 573.151 443.887 543 c 0
 411.887 357 405.207 312 381.207 186 c 0
 349.207 22 254.207 -90 174.207 -90 c 0
 145.207 -90 127.207 -78 120.207 -65 c 1
 120.207 -59.8154 120.551 -54.3711 121.293 -49 c 0
 124.128 -28.4736 132.771 -9 150.207 -9 c 0
 167.207 -9 177.207 -20 188.207 -32 c 0
 195.207 -39 203.207 -47 217.207 -47 c 0
 256.207 -47 276.207 23 307.207 182 c 1
 375.33 537 l 2
 381.441 567 387.33 600 385.33 612 c 0
 383.33 621 374 622 366.441 622 c 0
 322 622 279 516 279 439 c 0
 279 371 296 341 314 326 c 1
 316 325 324 318 324 316 c 0
 324 290 260.887 273 229.888 273 c 0
 107.888 273 64 369 64 440 c 0
 64 584 213.888 659 298.888 659 c 0xd0
EndSplineSet
EndChar

StartChar: periodcentered
Encoding: 183 183 116
Width: 222
VWidth: 0
Flags: W
HStem: 205 117<74.4296 143.375>
VStem: 54 110<225.408 301.98>
LayerCount: 2
Fore
SplineSet
54 252 m 0
 54 289 88 322 121 322 c 0
 147 322 164 302 164 276 c 0
 164 239 131 205 98 205 c 0
 72 205 54 225 54 252 c 0
EndSplineSet
EndChar

StartChar: uni00B9
Encoding: 185 185 118
Width: 270
Flags: W
HStem: 253 22.485<55.2552 108.74 183.545 228.775>
VStem: 54.9072 197.839
LayerCount: 2
Fore
SplineSet
105.746 556 m 1
 102.746 559 100.746 565.669 100.746 570 c 0
 100.746 571 101.908 575.388 103.746 576 c 0
 160.708 602.95 244.783 648.061 246.621 648.061 c 2
 247.846 648.061 l 2
 251.52 648.061 252.746 639.486 252.746 636.424 c 1
 252.746 636.424 242.746 616 235.596 578.849 c 2
 189.083 342.247 l 2
 184.958 321.735 182.346 304.272 182.958 287.735 c 0
 183.57 280.998 226.195 275.485 230.482 275.485 c 0
 232.32 275.485 232.196 266.288 231.584 262 c 0
 230.971 258.938 229.357 254.225 228.746 253 c 1
 206.084 254.225 152.722 256.062 130.058 256.062 c 0
 107.396 256.062 78.1816 254.225 54.9072 253 c 1
 52.457 256.062 55.4189 275.485 58.4814 275.485 c 0
 65.2188 275.485 106.684 280.998 109.746 287.735 c 0
 115.259 299.985 117.48 310.735 119.546 322.647 c 2
 156.746 512 l 2
 163.746 549 167.746 570 158.746 570 c 0
 143.972 570 113.746 559 105.746 556 c 1
EndSplineSet
EndChar

StartChar: ordmasculine
Encoding: 186 186 119
Width: 339
Flags: W
HStem: 247 22<145.56 200.411> 532 22<192.747 248.66>
VStem: 63 60<279.338 434.653> 267 60<363.749 525.328>
LayerCount: 2
Fore
SplineSet
227 532 m 0
 162 532 123 431 123 361 c 0
 123 305 140 269 167 269 c 0
 231 269 267 371 267 441 c 0
 267 497 254 532 227 532 c 0
237 554 m 0
 299 554 327 511 327 451 c 0
 327 353 240 247 152 247 c 0
 90 247 63 287 63 347 c 0
 63 445 149 554 237 554 c 0
EndSplineSet
EndChar

StartChar: guillemotright
Encoding: 187 187 120
Width: 485
VWidth: 0
Flags: W
VStem: 181 89<228.849 276.099> 361 89<228.849 276.099>
LayerCount: 2
Fore
SplineSet
257 405 m 1
 262 414 272 420 278 423 c 1
 308 384 380 314 440 268 c 0
 446 264 450 260 450 254 c 0
 450 243 442 234 435 230 c 0
 324 167 282 128 211 73 c 1
 207 74 195 79 193 88 c 1
 198 100 361 247 361 247 c 1
 361 247 257 397 257 405 c 1
77 405 m 1
 82 414 92 420 98 423 c 1
 128 384 200 314 260 268 c 0
 266 264 270 260 270 254 c 0
 270 243 262 234 255 230 c 0
 144 167 102 128 31 73 c 1
 27 74 15 79 13 88 c 1
 18 100 181 247 181 247 c 1
 181 247 77 397 77 405 c 1
EndSplineSet
EndChar

StartChar: onequarter
Encoding: 188 188 121
Width: 637
VWidth: 0
Flags: W
HStem: -2 21G<108.746 147.86 472.746 490.746> 106 46<359.746 469.746 543.746 581.59> 253 22.485<39.2552 92.7397 167.545 212.775> 622 20G<543.6 580.746>
LayerCount: 2
Fore
SplineSet
579.746 405 m 0
 585.746 405 591.746 395 590.746 390 c 2
 543.746 152 l 25
 578.746 152 l 18
 582.746 152 582.746 134 580.746 121 c 0
 579.746 115 576.746 108 575.746 106 c 1
 535.746 106 l 25
 515.746 1 l 1
 515.746 1 501.746 -2 479.746 -2 c 0
 465.746 -2 448.746 -1 449.746 3 c 2
 469.746 106 l 25
 298.746 106 l 1
 294.746 108 293.746 116 294.746 120 c 1
 557.746 398 l 2
 562.746 403 575.746 405 579.746 405 c 0
512.746 314 m 25
 359.746 152 l 25
 478.746 152 l 25
 512.746 314 l 25
89.7461 556 m 1
 86.7461 559 84.7461 565.669 84.7461 570 c 0
 84.7461 571 85.9082 575.388 87.7461 576 c 0
 144.708 602.95 228.783 648.061 230.621 648.061 c 2
 231.846 648.061 l 2
 235.52 648.061 236.746 639.486 236.746 636.424 c 1
 236.746 636.424 226.746 616 219.596 578.849 c 2
 173.083 342.247 l 2
 168.958 321.735 166.346 304.272 166.958 287.735 c 0
 167.569 280.998 210.194 275.485 214.481 275.485 c 0
 216.319 275.485 216.195 266.288 215.584 262 c 0
 214.971 258.938 213.356 254.225 212.746 253 c 1
 190.084 254.225 136.722 256.062 114.058 256.062 c 0
 91.3955 256.062 62.1816 254.225 38.9072 253 c 1
 36.457 256.062 39.4189 275.485 42.4814 275.485 c 0
 49.2188 275.485 90.6836 280.998 93.7461 287.735 c 0
 99.2588 299.985 101.479 310.735 103.546 322.647 c 2
 140.746 512 l 2
 147.746 549 151.746 570 142.746 570 c 0
 127.972 570 97.7461 559 89.7461 556 c 1
579.746 626 m 2
 133.746 -6 l 1
 133.746 -6 108.746 -7 108.746 4 c 0
 108.746 6 109.746 8 110.746 10 c 26
 557.746 642 l 1
 557.746 642 580.746 642 580.746 631 c 0
 580.746 629 580.746 627 579.746 626 c 2
EndSplineSet
EndChar

StartChar: onehalf
Encoding: 189 189 122
Width: 689
VWidth: 0
Flags: W
HStem: -6 21G<109.746 148.86> 2 54<429.203 590.666> 253 22.485<40.2552 93.7397 168.545 213.775> 349 44.511<481.701 559.25> 622 20G<544.6 581.746>
VStem: 571.674 78<240.343 336.141>
LayerCount: 2
Fore
SplineSet
649.674 311 m 0x7c
 649.674 255.505 610.972 213.907 567.674 170 c 0
 516.447 117.555 427.981 56 429.203 56 c 9
 547.674 56 l 2
 578.674 56 596.158 80.8994 607.746 106.512 c 0
 608.966 109.561 613.015 111 616.674 111 c 0
 619.111 111 630.062 104.219 630.674 103 c 1
 614.817 73.1172 587.552 12.9766 582.674 2 c 9
 582.674 2 366.946 2 362.679 2 c 1
 361.459 3.21973 358.674 14.3408 358.674 18 c 1
 392.215 48.4912 479.767 131.284 515.746 172.143 c 0
 557.215 219.099 571.674 257 571.674 292 c 0
 571.674 326.15 543.555 349 513.673 349 c 0
 468.545 349 443.395 311.623 434.249 299.426 c 1
 429.979 299.426 425.101 313.745 425.711 316.184 c 1
 432.419 331.43 483.674 393.511 552.674 393.511 c 0
 597.189 393.511 649.674 368 649.674 311 c 0x7c
90.7461 556 m 1
 87.7461 559 85.7461 565.669 85.7461 570 c 0
 85.7461 571 86.9082 575.388 88.7461 576 c 0
 145.708 602.95 229.783 648.061 231.621 648.061 c 2
 232.846 648.061 l 2
 236.52 648.061 237.746 639.486 237.746 636.424 c 1
 237.746 636.424 227.746 616 220.596 578.849 c 2
 174.083 342.247 l 2
 169.958 321.735 167.346 304.272 167.958 287.735 c 0
 168.569 280.998 211.194 275.485 215.481 275.485 c 0
 217.319 275.485 217.195 266.288 216.584 262 c 0
 215.971 258.938 214.356 254.225 213.746 253 c 1
 191.084 254.225 137.722 256.062 115.058 256.062 c 0
 92.3955 256.062 63.1816 254.225 39.9072 253 c 1
 37.457 256.062 40.4189 275.485 43.4814 275.485 c 0
 50.2188 275.485 91.6836 280.998 94.7461 287.735 c 0
 100.259 299.985 102.479 310.735 104.546 322.647 c 2
 141.746 512 l 2
 148.746 549 152.746 570 143.746 570 c 0
 128.972 570 98.7461 559 90.7461 556 c 1
580.746 626 m 2
 134.746 -6 l 1xbc
 134.746 -6 109.746 -7 109.746 4 c 0
 109.746 6 110.746 8 111.746 10 c 26
 558.746 642 l 1
 558.746 642 581.746 642 581.746 631 c 0
 581.746 629 581.746 627 580.746 626 c 2
EndSplineSet
EndChar

StartChar: threequarters
Encoding: 190 190 123
Width: 651
VWidth: 0
Flags: W
HStem: -2 21G<109 148.114 488 506> 106 46<375 485 559 596.844> 247 31<98.9541 177.868> 448 21<119.036 154.437> 608 40<154.921 220.212> 622 20G<543.854 581>
VStem: 218 71<329.69 438.728> 228 55<529.118 602.681>
LayerCount: 2
Fore
SplineSet
595 405 m 0xf0
 601 405 607 395 606 390 c 2
 559 152 l 25
 594 152 l 18
 598 152 598 134 596 121 c 0
 595 115 592 108 591 106 c 1
 551 106 l 25
 531 1 l 1
 531 1 517 -2 495 -2 c 0
 481 -2 464 -1 465 3 c 2
 485 106 l 25
 314 106 l 1
 310 108 309 116 310 120 c 1
 573 398 l 2
 578 403 591 405 595 405 c 0xf0
528 314 m 25
 375 152 l 25
 494 152 l 25
 528 314 l 25
216 648 m 0xf9
 245 648 283 627 283 581 c 0xf9
 283 540 239 503 207 485 c 1
 251 482 289 439 289 402 c 0
 289 296 167 247 112 247 c 0
 82 247 52 252 38 262 c 1
 36 265 32 273 32 280 c 0
 32 299 50 322 64 322 c 0
 84 322 89 305 98 294 c 0
 109 281 126 278 142 278 c 0
 177 278 218 316 218 386 c 0xfa
 218 428 193 452 155 452 c 0
 143 452 130 450 123 448 c 1
 121 451 119 452 119 455 c 0
 119 457 119 467 120 469 c 1
 170 478 228 513 228 560 c 0
 228 584 213 608 187 608 c 0
 150 608 127 571 121 567 c 1
 117 567 112 578 113 584 c 1
 140 622 171 648 216 648 c 0xf9
580 626 m 2
 134 -6 l 1
 134 -6 109 -7 109 4 c 0
 109 6 110 8 111 10 c 26
 558 642 l 1xf4
 558 642 581 642 581 631 c 0
 581 629 581 627 580 626 c 2
EndSplineSet
EndChar

StartChar: questiondown
Encoding: 191 191 124
Width: 310
VWidth: 0
Flags: W
HStem: -209 49<29.151 112.439> 320 116<166.156 236>
VStem: -33 51<-148.128 -45.1254> 145 110<339.112 414.875> 159 70<109.116 191.814>
LayerCount: 2
Fore
SplineSet
255 390 m 0xf0
 255 352 223 320 190 320 c 0
 164 320 145 340 145 366 c 0
 145 403 180 436 213 436 c 0
 239 436 255 416 255 390 c 0xf0
120 225 m 1
 120 229 125 238 130 241 c 1
 154 241 229 195 229 139 c 3
 229 97 206 74 180 56 c 0
 133 24 109 8 64 -24 c 16
 44 -38 18 -62 18 -100 c 3
 18 -139 40 -160 70 -160 c 0
 114 -160 114 -114 152 -114 c 0
 181 -114 186 -148 186 -166 c 1
 181 -181 138 -209 100 -209 c 0
 25 -209 -33 -142 -33 -80 c 0
 -33 -38 -21 -6 11 24 c 0
 35 46 74 65 126 101 c 0
 151 118 159 134 159 161 c 27xe8
 159 190 131 217 120 225 c 1
EndSplineSet
Substitution2: "'smcp' Lowercase to Small Capitals in Latin lookup 3-1" questiondown.sc
EndChar

StartChar: AE
Encoding: 198 198 131
Width: 785
Flags: W
HStem: -3 27<-56.5364 -4.22159 87.2291 132.78 272.154 319.727 448.216 619.527> 307 34<267 388 469.993 629.5> 630 34<502.808 707.485> 630 27<368.35 393.687 504.035 663.306>
VStem: 649 29<222.036 293.738> 746 18<530 664>
LayerCount: 2
Fore
SplineSet
388 307 m 1xec
 243 307 l 1
 122 131 l 2
 87 81 77 61 77 50 c 0
 77 34 124 24 134 24 c 0
 135 24 134 2 131 -3 c 1
 94 -1 78 2 37 2 c 0
 -6 2 -16 -1 -59 -3 c 1
 -60 -2 -60 24 -56 24 c 0
 -45 24 -6 32 8 45 c 0
 37 71 62 102 87 139 c 2
 395 586 l 2
 397 590 400 595 400 601 c 0
 400 612 392 625 370 625 c 1
 366 628 367 650 370 656 c 1
 468 657 l 2xdc
 555 657 663 664 764 664 c 1
 765 614 772 573 776 528 c 1
 773 525 765 523 758 523 c 0
 751 523 746 525 746 530 c 0
 735 610 699 630 650 630 c 2
 570 630 l 2
 559 630 509 629 505 619 c 0
 498 603 494 574 491 547 c 2
 470 347 l 2
 469 342 489 341 509 341 c 2
 558 341 l 2
 647 341 645 347 669 413 c 0
 671 418 677 420 684 420 c 0
 691 420 696 418 698 415 c 1
 678 226 l 1
 676 224 669 222 662 222 c 0
 655 222 650 225 649 230 c 0
 641 287 637 294 630 300 c 0
 620 307 567 308 532 308 c 0
 506 308 466 308 465 299 c 2
 446 109 l 2
 445 94 440 45 445 40 c 0
 456 30 471 30 510 30 c 2
 554 30 l 2
 605 30 643 40 673 61 c 0
 699 79 722 109 743 162 c 0
 745 166 750 168 757 168 c 0
 766 168 778 165 780 162 c 1
 756 108 721 40 710 -4 c 1
 609 -4 517 0 394 0 c 0
 345 0 270 -3 270 -3 c 1
 268 2 271 29 276 31 c 1
 287 31 338 37 349 50 c 0
 365 69 368 89 371 124 c 2
 388 307 l 1xec
391 341 m 1
 411 550 l 1
 267 341 l 1
 391 341 l 1
EndSplineSet
EndChar

StartChar: Eth
Encoding: 208 208 141
Width: 684
Flags: W
HStem: -3 29<-2.56497 67.456 159.256 322.825> 313 36<71.7299 411.883> 631 26<120.362 180.222 270.071 424.007>
LayerCount: 2
Fore
SplineSet
79.4531 349 m 1
 107.453 349 396.453 349 409.453 349 c 0
 413.453 349 415.453 345 414.453 341 c 0
 413.453 336 409.453 320 404.453 313 c 1
 376.453 313 86.4531 313 73.4531 313 c 0
 69.4531 313 69.4531 320 70.4531 324 c 0
 71.4531 329 72.4531 342 79.4531 349 c 1
EndSplineSet
Refer: 35 68 N 1 0 0 1 0.000434875 0 2
EndChar

StartChar: multiply
Encoding: 215 215 148
Width: 411
Flags: W
HStem: 213 61<188.375 207>
VStem: 170 61<226.125 259>
LayerCount: 2
Fore
SplineSet
27 68 m 0
 21 68 14 92 14 108 c 1
 168 243 l 2
 169 244 170 245 170 246 c 0
 170 248 166 254 165 255 c 2
 68 388 l 1
 68 402 90 421 95 421 c 0
 97 421 97 419 99 417 c 2
 203 276 l 2
 204 275 206 274 207 274 c 2
 209 275 l 26
 367 416 l 2
 369 418 371 419 373 419 c 0
 380 419 386 396 386 378 c 1
 233 242 l 2
 232 241 231 241 231 240 c 3
 231 239 231 239 232 238 c 2
 332 102 l 1
 332 88 317 68 310 68 c 0
 306 68 304 69 303 71 c 2
 200 211 l 2
 199 212 198 213 197 213 c 0
 196 213 194 212 193 211 c 2
 32 71 l 2
 30 69 29 68 27 68 c 0
EndSplineSet
Substitution2: "'smcp' Lowercase to Small Capitals in Latin lookup 3-1" multiply.sc
EndChar

StartChar: Oslash
Encoding: 216 216 149
Width: 710
Flags: W
HStem: -11 29<261.282 392.377> 635 30<340.452 472.82> 647 20G<596.464 616.172>
VStem: 61 94<148.992 404.767> 578 94<246.033 500.91>
LayerCount: 2
Fore
SplineSet
118.171875 -13 m 17xb8
 110.171875 -10 91.171875 4 96.171875 10 c 9
 612.171875 667 l 17
 620.171875 665 640.171875 651 635.171875 645 c 9
 118.171875 -13 l 17xb8
EndSplineSet
Refer: 46 79 N 1 0 0 1 0 0 3
EndChar

StartChar: Thorn
Encoding: 222 222 155
Width: 470
Flags: W
HStem: -3 29<-3.82571 66.9961 158.448 217.284> 134 26<215.129 299.126> 482 29<242.907 350.895> 633 29<119.716 178.552 270.997 341.019>
VStem: 405 89<265.546 436.428>
LayerCount: 2
Fore
SplineSet
234 458 m 8
 208 325 168 116 168 116 c 2
 162 86 156 58 158 42 c 0
 159 31 208 26 219 26 c 1
 222 21 219 2 213 -3 c 1
 175 -1 142 2 106 2 c 0
 70 2 34 -1 -5 -3 c 1
 -9 2 -5 21 -0 26 c 1
 11 26 63 31 68 42 c 0
 76 58 81 86 87 116 c 2
 170 543 l 2
 176 573 181 601 179 617 c 0
 178 628 129 633 118 633 c 1
 115 638 118 657 124 662 c 1
 162 660 197 657 233 657 c 0
 269 657 304 660 343 662 c 1
 347 657 342 638 337 633 c 1
 326 633 275 628 270 617 c 0
 262 601 257 573 251 543 c 2
 242 500 l 1
 265 509 290 511 313 511 c 0
 419 511 494 451 494 360 c 0
 494 232 383 134 261 134 c 0
 240 134 221 140 216 144 c 0
 214 146 208 155 208 160 c 0
 208 162 210 163 212 164 c 1
 220 160 236 160 245 160 c 0
 319 160 405 234 405 346 c 0
 405 402 392 482 289 482 c 0
 278 482 238 480 234 458 c 8
EndSplineSet
EndChar

StartChar: germandbls
Encoding: 223 223 156
Width: 500
VWidth: 0
Flags: W
HStem: -233 43<-85.5 -8.63745> -4 30<296.813 367.117> 376 37<44.1577 122> 642 43<272.135 352.69>
VStem: 252.335 57<307.224 378.991> 383.335 63<51.6239 148.412 482.216 612.202>
LayerCount: 2
Fore
SplineSet
204.005 413 m 0
 177 267 160 169 136 43 c 0
 104 -121 9 -233 -71 -233 c 0
 -100 -233 -118 -221 -125 -208 c 1
 -125 -202.493 -124.612 -196.694 -123.771 -191 c 0
 -120.796 -170.846 -112.154 -152 -95 -152 c 0
 -78 -152 -68 -163 -57 -175 c 0
 -50 -182 -42 -190 -28 -190 c 0
 11 -190 31 -120 62 39 c 1
 122 376 l 1
 37 376 l 2
 36 376 35 377 35 379 c 0
 35 389 58 413 81 413 c 2
 128 413 l 1
 160 577 255 685 335 685 c 0
 386.335 685 452.335 651 452.335 572 c 0
 452.335 484 394.102 452.636 365.335 426 c 0
 338.335 401 309.335 376 309.335 352 c 3
 309.335 325 339.061 298.765 362.335 272 c 0
 402.335 226 446.335 189 446.335 122 c 27
 446.335 49 387.335 -4 308.335 -4 c 3
 248.335 -4 222.335 18 208.335 32 c 1
 206.335 38 201.737 50.2666 202.335 58 c 0
 204.501 86 221.002 99 242.335 99 c 3
 271.335 99 280.335 26 329.335 26 c 0
 369.335 26 383.335 56 383.335 88 c 0
 383.335 131 334.335 186 308.335 216 c 0
 279.562 249.199 252.335 278 252.335 324 c 0
 252.335 369 276.299 379.964 331.335 435 c 0
 359.335 463 384.335 495 384.335 547 c 0
 384.335 608 341.335 642 300.335 642 c 0
 256.335 642 233.468 572.291 204.005 413 c 0
EndSplineSet
Substitution2: "'smcp' Lowercase to Small Capitals in Latin lookup 3-1" germandbls.sc
EndChar

StartChar: ae
Encoding: 230 230 163
Width: 559
VWidth: 0
Flags: W
HStem: -8 54<68.9911 145.142 325.605 387.084> 199 31<306 359.456> 394 41<171.697 271.5 387.882 502>
VStem: 6 76<53.2352 143.023> 67 74<304.5 355.622> 232 65<156.558 198.707> 462 74<314.992 388.983>
LayerCount: 2
Fore
SplineSet
421 394 m 3xe6
 358 394 315 302 306 230 c 1
 345 230 462 280 462 354 c 3
 462 379 441 394 421 394 c 3xe6
217 108 m 2
 232 201 l 1
 187.892 192.385 156.371 181.752 134 170.164 c 0
 91.4502 148.123 82 122.628 82 101 c 0xf6
 82 69 101 46 127 46 c 3
 159 46 216 99 217 108 c 2
251 435 m 3
 292 435 319 401 323 366 c 1
 356 404 415 435 468 435 c 0
 536 435 536 384 536 370 c 3
 536 282 375 209 301 199 c 1
 300 193 297 171 297 158 c 0
 297 95 319 53 367 53 c 3
 409 53 465 118 469 122 c 1
 472 122 480 110 481 102 c 1
 445 51 379 -6 328 -6 c 3
 287 -6 238 22 224 70 c 1
 207 48 117 -8 90 -8 c 3
 48 -8 6 18 6 80 c 0xf6
 6 126 41 164 65 180 c 0
 80 190 195 222 232 234 c 0
 239 236 238 244 241 257 c 2
 252 317 l 2
 254 325 254 334 254 338 c 3
 254 362 234 397 198 397 c 0
 168 397 154 376 141 339 c 0
 129 307 112 294 90 294 c 0
 69 294 67 314 67 323 c 0xee
 67 336 73 348 78 356 c 1
 107 381 186 435 251 435 c 3
EndSplineSet
Substitution2: "'smcp' Lowercase to Small Capitals in Latin lookup 3-1" ae.sc
EndChar

StartChar: eth
Encoding: 240 240 173
Width: 437
VWidth: 0
UnlinkRmOvrlpSave: 1
Flags: W
HStem: -5 32<144.126 216.612> 403 32<208.068 284.244> 672 16<138.251 155.487>
VStem: 39 78<49.0691 246.061> 313 75<426 487.714>
LayerCount: 2
Back
SplineSet
252 403 m 0
 168 403 117 258 117 158 c 0
 117 78 138 27 174 27 c 0
 257 27 305 173 305 273 c 0
 305 353 288 403 252 403 c 0
266 435 m 0
 346 435 383 374 383 288 c 0
 383 148 270 -5 155 -5 c 0
 75 -5 39 52 39 138 c 0
 39 278 151 435 266 435 c 0
EndSplineSet
Fore
SplineSet
156 509 m 17
 150 514 142 533 147 541 c 9
 393 704 l 17
 399 698 406 678 403 673 c 9
 156 509 l 17
259 435 m 0
 280 435 301 433 313 426 c 1
 315 506 255 642 135 672 c 1
 136 679 141 688 148 688 c 1
 309 661 388 509 388 353 c 0
 388 134 266 -5 153 -5 c 0
 64 -5 39 72 39 140 c 0
 39 250 132 435 259 435 c 0
251 403 m 0
 186 403 117 292 117 158 c 0
 117 112 125 27 175 27 c 0
 239 27 305 135 305 273 c 0
 305 300 304 340 302 353 c 0
 298 380 274 403 251 403 c 0
EndSplineSet
Substitution2: "'smcp' Lowercase to Small Capitals in Latin lookup 3-1" eth.sc
EndChar

StartChar: divide
Encoding: 247 247 180
Width: 507
VWidth: 0
Flags: W
HStem: 4 100<179.312 243.658> 224 47<34.9908 464.432> 390 100<253.312 318.228>
VStem: 169 87<15.6658 94.1914> 243 88<401.666 480.191>
LayerCount: 2
Fore
SplineSet
37 224 m 2xe0
 34 224 33 229 33 234 c 0
 33 245 38 263 43 271 c 1
 464 271 l 2
 466 271 467 268 467 263 c 0
 467 250 461 234 455 224 c 1
 37 224 l 2xe0
294 490 m 27
 315 490 331 471 331 450 c 27
 331 419 308 390 277 390 c 27
 255 390 243 412 243 434 c 27xe8
 243 464 264 490 294 490 c 27
220 104 m 27
 241 104 256 85 256 64 c 27
 256 33 234 4 203 4 c 27
 181 4 169 26 169 48 c 27xf0
 169 78 190 104 220 104 c 27
EndSplineSet
Substitution2: "'smcp' Lowercase to Small Capitals in Latin lookup 3-1" divide.sc
EndChar

StartChar: oslash
Encoding: 248 248 181
Width: 414
VWidth: 0
Flags: W
HStem: -5 32<128.829 202.828> 0 21G<49 67.4> 403 32<192.936 265.934>
VStem: 24 78<49.2289 249.363> 290 78<176.798 384.03>
LayerCount: 2
Fore
SplineSet
52 0 m 17x78
 46 3 29 14 33 20 c 9
 341 419 l 17
 347 416 364 406 360 400 c 9
 52 0 l 17x78
EndSplineSet
Refer: 78 111 N 1 0 0 1 0 0 2
Substitution2: "'smcp' Lowercase to Small Capitals in Latin lookup 3-1" oslash.sc
EndChar

StartChar: thorn
Encoding: 254 254 187
Width: 449
Flags: W
HStem: -235 29<-52.9379 -12.6636> -226 27<89.0912 135.868> -5 35<146.288 225.913> 380 55<258.859 353.785> 632 21<92.5941 149.029> 666 20G<217.287 230.787>
VStem: 153.287 81<542.661 667.737> 334.287 74<198.629 368.99>
LayerCount: 2
Fore
SplineSet
221.287 592 m 2xbf
 218.287 573 174.287 353 173.287 346 c 1
 200.287 371 270.287 435 321.287 435 c 0
 385.287 435 408.287 384 408.287 314 c 0
 408.287 159 278.287 -5 156.287 -5 c 0
 139.287 -5 116.287 -2 110.287 8 c 1
 77.2871 -145 l 2
 75.2871 -154 74.2871 -163 74.2871 -173 c 0
 74.2871 -178 78.2871 -193 88.2871 -196 c 0
 105.287 -200 132.287 -199 135.287 -199 c 0
 139.287 -200 137.287 -225 132.287 -227 c 1
 119.287 -227 108.287 -226 97.2871 -226 c 0x7f
 46.2871 -226 7.28711 -228 -50.7129 -235 c 1
 -55.7129 -234 -54.7129 -209 -49.7129 -206 c 1
 -31.7129 -206 -18.7129 -201 -9.71289 -190 c 0
 -2.71289 -181 1.28711 -170 6.28711 -147 c 2
 85.2871 250 l 1
 37.2871 202 l 1
 33.2871 207 31.2871 217 31.2871 222 c 0
 31.2871 226 33.2871 228 34.2871 229 c 2
 93.2871 292 l 1
 144.287 560 l 2
 147.287 578 153.287 602 153.287 613 c 0
 153.287 632 108.287 632 92.2871 632 c 1
 89.2871 636 92.2871 649 96.2871 653 c 1
 151.287 658 206.287 678 228.287 686 c 1
 233.287 683 234.287 673 234.287 667 c 0
 234.287 659 226.287 617 221.287 592 c 2xbf
281.287 380 m 0
 248.287 380 190.287 338 163.287 300 c 1
 130.287 131 l 2
 119.287 72 147.287 30 177.287 30 c 0
 262.287 30 334.287 184 334.287 303 c 0
 334.287 358 313.287 380 281.287 380 c 0
EndSplineSet
Substitution2: "'smcp' Lowercase to Small Capitals in Latin lookup 3-1" thorn.sc
EndChar

StartChar: dagger
Encoding: 8224 8224 190
Width: 358
Flags: W
HStem: -8 21G<123.5 126.5> 437 81<75.3174 133.836 310.813 365.174> 465 21<135.97 192.369 243.672 308.25> 642 20G<239.5 260>
VStem: 122 11<-5.93265 19.3369>
LayerCount: 2
Fore
SplineSet
179 486 m 8xb8
 194 486 200 492 212 505 c 1
 218 538 224 606 210 625 c 1
 214 646 229 662 250 662 c 0
 270 662 290 646 286 625 c 1
 265 606 244 538 238 505 c 1
 245 492 252 486 264 486 c 0xb8
 295 486 324 499 345 518 c 1
 365 518 372 500 372 481 c 0
 372 459.622 350 437 330 437 c 1xd8
 316 456 289 465 260 465 c 24xb8
 243 465 228 449 226 437 c 1
 229 420 234 394 240 365 c 1
 193 227 178 171 133 4 c 1
 130 -2 128 -7 125 -8 c 1
 122 -7 123 0 122 4 c 1
 142 171 149 227 155 365 c 1
 170 390 187 420 197 437 c 1xd8
 199 449 189 465 175 465 c 24xb8
 142 465 115 456 94 437 c 1
 74 437 66 450 66 471 c 0
 66 492.378 90 518 110 518 c 1xd8
 124 499 148 486 179 486 c 8xb8
EndSplineSet
EndChar

StartChar: daggerdbl
Encoding: 8225 8225 191
Width: 377
Flags: W
HStem: -8 21G<124.314 144.814> 136 81<24.7579 79.0012 255.164 315.113> 168 21<81.6195 146.298 197.082 253.844> 437 81<84.1024 143.464 319.627 374.8> 465 21<144.784 201.546 252.656 317.064> 642 20G<254.314 274.814>
LayerCount: 2
Fore
SplineSet
234.814 289 m 1x94
 217.814 260 202.814 234 192.814 217 c 1xd4
 190.814 205 199.814 189 214.814 189 c 24xa4
 245.814 189 274.814 198 295.814 217 c 1
 315.814 217 327.814 199 323.814 178 c 0
 319.814 157 299.814 136 279.814 136 c 1xc4
 265.814 155 241.814 168 210.814 168 c 0
 198.814 168 189.814 162 177.814 149 c 1
 171.814 116 164.814 48 178.814 29 c 1
 174.814 8 154.814 -8 134.814 -8 c 0
 113.814 -8 98.8145 8 102.814 29 c 1
 123.814 48 145.814 116 151.814 149 c 1
 144.814 162 138.814 168 125.814 168 c 16xa4
 94.8145 168 65.8145 155 44.8145 136 c 1
 24.8145 136 13.8145 157 17.8145 178 c 0
 21.8145 199 40.8145 217 60.8145 217 c 1xc4
 74.8145 198 98.8145 189 129.814 189 c 24xa4
 144.814 189 160.814 205 162.814 217 c 1
 159.814 234 153.814 264 148.814 289 c 1
 163.814 306 168.814 311 183.814 327 c 1
 174.814 342 175.814 341 163.814 365 c 1
 178.814 390 195.814 420 205.814 437 c 1xd4
 207.814 449 198.814 465 183.814 465 c 24x8c
 152.814 465 123.814 456 102.814 437 c 1
 82.8145 437 71.8145 455 75.8145 476 c 0
 79.8145 497 98.8145 518 118.814 518 c 1x94
 132.814 499 156.814 486 187.814 486 c 8
 200.814 486 208.814 492 220.814 505 c 1
 226.814 538 232.814 606 218.814 625 c 1
 222.814 646 243.814 662 264.814 662 c 0
 284.814 662 298.814 646 294.814 625 c 1
 273.814 606 252.814 538 246.814 505 c 1
 253.814 492 260.814 486 272.814 486 c 0x8c
 303.814 486 332.814 499 353.814 518 c 1
 373.814 518 385.814 497 381.814 476 c 0
 377.814 455 358.814 437 338.814 437 c 1x94
 324.814 456 299.814 465 268.814 465 c 24x8c
 253.814 465 236.814 449 234.814 437 c 1
 237.814 420 242.814 394 248.814 365 c 1
 228.814 343 227.814 342 213.814 327 c 1
 220.814 314 223.814 309 234.814 289 c 1x94
EndSplineSet
EndChar

StartChar: bullet
Encoding: 8226 8226 192
Width: 334
Flags: W
HStem: 155 216<123.076 208.965>
VStem: 66.0195 200.002
LayerCount: 2
Fore
SplineSet
66.0195 263 m 0
 77.0195 322 132.021 371 187.021 371 c 0
 242.021 371 277.021 322 266.021 263 c 0
 255.021 204 200.021 155 145.021 155 c 0
 90.0195 155 55.0195 204 66.0195 263 c 0
EndSplineSet
EndChar

StartChar: uni2010
Encoding: 8208 8208 193
Width: 370
VWidth: 0
Flags: W
VStem: 52 254<210.346 261>
LayerCount: 2
Fore
SplineSet
73 261 m 2
 300 273 l 2
 305 273 306 266 306 261 c 0
 306 248 293 211 283 210 c 10
 57 199 l 2
 54 199 52 206 52 214 c 0
 52 225 62 260 73 261 c 2
EndSplineSet
EndChar

StartChar: uni2011
Encoding: 8209 8209 194
Width: 370
VWidth: 0
Flags: W
VStem: 52 254<210.346 261>
LayerCount: 2
Fore
SplineSet
73 261 m 2
 300 273 l 2
 305 273 306 266 306 261 c 0
 306 248 293 211 283 210 c 10
 57 199 l 2
 54 199 52 206 52 214 c 0
 52 225 62 260 73 261 c 2
EndSplineSet
EndChar

StartChar: figuredash
Encoding: 8210 8210 195
Width: 516
Flags: W
HStem: 200 62<58.5 443.5>
LayerCount: 2
Fore
SplineSet
444 262 m 2
 448 262 450 256 450 249 c 0
 450 235 440 207 428 200 c 1
 58 200 l 2
 54 200 52 206 52 213 c 0
 52 227 62 255 74 262 c 1
 444 262 l 2
EndSplineSet
EndChar

StartChar: endash
Encoding: 8211 8211 196
Width: 564
Flags: W
HStem: 200 62<59.5 490.5>
LayerCount: 2
Fore
SplineSet
491 262 m 2
 495 262 497 256 497 249 c 0
 497 235 487 207 475 200 c 1
 59 200 l 2
 55 200 53 206 53 213 c 0
 53 227 63 255 75 262 c 1
 491 262 l 2
EndSplineSet
EndChar

StartChar: emdash
Encoding: 8212 8212 197
Width: 800
Flags: W
HStem: 200 62<59.5 726.5>
LayerCount: 2
Fore
SplineSet
727 262 m 2
 731 262 733 256 733 249 c 0
 733 235 723 207 711 200 c 1
 59 200 l 2
 55 200 53 206 53 213 c 0
 53 227 63 255 75 262 c 1
 727 262 l 2
EndSplineSet
EndChar

StartChar: afii00208
Encoding: 8213 8213 198
Width: 1070
Flags: W
HStem: 200 62<59.5 996.5>
LayerCount: 2
Fore
SplineSet
997 262 m 2
 1001 262 1003 256 1003 249 c 0
 1003 235 993 207 981 200 c 1
 59 200 l 2
 55 200 53 206 53 213 c 0
 53 227 63 255 75 262 c 1
 997 262 l 2
EndSplineSet
EndChar

StartChar: quoteleft
Encoding: 8216 8216 199
Width: 183
Flags: W
HStem: 482 224
VStem: 102.634 87<496.757 576.344>
LayerCount: 2
Fore
SplineSet
101.634 555 m 0
 119.634 649 225.634 706 233.634 706 c 0
 240.634 706 245.634 699 247.634 688 c 1
 184.634 652 166.634 606 164.634 597 c 0
 159.634 571 194.634 553 189.634 525 c 0
 184.634 501 150.634 482 120.634 482 c 0
 113.634 482 108.634 483 102.634 485 c 1
 96.6338 498 96.6338 530 101.634 555 c 0
EndSplineSet
EndChar

StartChar: quoteright
Encoding: 8217 8217 200
Width: 193
Flags: W
HStem: 484 224
VStem: 143 86<609.555 694.012>
LayerCount: 2
Fore
SplineSet
229 635 m 0
 211 541 106 484 98 484 c 0
 91 484 85 491 83 502 c 1
 146 538 165 584 167 593 c 0
 172 619 138 637 143 665 c 0
 148 689 181 708 211 708 c 0
 218 708 223 707 229 705 c 1
 235 692 234 660 229 635 c 0
EndSplineSet
EndChar

StartChar: quotesinglbase
Encoding: 8218 8218 201
Width: 196
Flags: W
HStem: -97 223
VStem: 14 87<31.6731 111.243>
LayerCount: 2
Fore
SplineSet
101 53 m 0
 83 -41 -22 -97 -30 -97 c 0
 -37 -97 -43 -91 -45 -80 c 1
 18 -44 37 2 39 11 c 0
 44 37 9 55 14 83 c 0
 19 107 53 126 83 126 c 0
 90 126 95 125 101 123 c 1
 107 110 106 78 101 53 c 0
EndSplineSet
EndChar

StartChar: quotedblleft
Encoding: 8220 8220 202
Width: 316
Flags: W
HStem: 482 224<235.634 240.634>
VStem: 102.634 87<496.757 576.344> 235.634 87<495.988 576.344>
LayerCount: 2
Fore
SplineSet
235.634 555 m 0
 253.634 649 358.634 706 366.634 706 c 0
 373.634 706 379.634 699 381.634 688 c 1
 318.634 652 299.634 606 297.634 597 c 0
 292.634 571 327.634 553 322.634 525 c 0
 317.634 501 284.634 482 254.634 482 c 0
 247.634 482 241.634 483 235.634 485 c 1
 229.634 498 230.634 530 235.634 555 c 0
101.634 555 m 0
 119.634 649 225.634 706 233.634 706 c 0
 240.634 706 245.634 699 247.634 688 c 1
 184.634 652 166.634 606 164.634 597 c 0
 159.634 571 194.634 553 189.634 525 c 0
 184.634 501 150.634 482 120.634 482 c 0
 113.634 482 108.634 483 102.634 485 c 1
 96.6338 498 96.6338 530 101.634 555 c 0
EndSplineSet
EndChar

StartChar: quotedblright
Encoding: 8221 8221 203
Width: 327
Flags: W
HStem: 484 224<224 229>
VStem: 143 86<609.555 694.012> 276 86<609.555 694.012>
LayerCount: 2
Fore
SplineSet
363 635 m 0
 345 541 239 484 231 484 c 0
 224 484 219 491 217 502 c 1
 280 538 298 584 300 593 c 0
 305 619 271 637 276 665 c 0
 281 689 314 708 344 708 c 0
 351 708 356 707 362 705 c 1
 368 692 368 660 363 635 c 0
229 635 m 0
 211 541 106 484 98 484 c 0
 91 484 85 491 83 502 c 1
 146 538 165 584 167 593 c 0
 172 619 138 637 143 665 c 0
 148 689 181 708 211 708 c 0
 218 708 223 707 229 705 c 1
 235 692 234 660 229 635 c 0
EndSplineSet
EndChar

StartChar: quotedblbase
Encoding: 8222 8222 204
Width: 329
Flags: W
HStem: -99 223
VStem: 14 87<31.6731 111.243> 147 87<25.5793 109.243>
LayerCount: 2
Fore
SplineSet
234 51 m 0
 216 -43 111 -99 103 -99 c 0
 96 -99 90 -93 88 -82 c 1
 151 -46 169 0 171 9 c 0
 176 35 142 53 147 81 c 0
 152 105 186 124 216 124 c 0
 223 124 228 123 234 121 c 1
 240 108 239 76 234 51 c 0
101 53 m 0
 83 -41 -22 -97 -30 -97 c 0
 -37 -97 -43 -91 -45 -80 c 1
 18 -44 37 2 39 11 c 0
 44 37 9 55 14 83 c 0
 19 107 53 126 83 126 c 0
 90 126 95 125 101 123 c 1
 107 110 106 78 101 53 c 0
EndSplineSet
EndChar

StartChar: onedotenleader
Encoding: 8228 8228 205
Width: 207
Flags: W
HStem: -14 116<27.9761 96.375>
VStem: 9 108<6.4082 83.234>
LayerCount: 2
Fore
SplineSet
9 32 m 0
 9 69 40 102 73 102 c 0
 99 102 117 83 117 57 c 0
 117 20 84 -14 51 -14 c 0
 25 -14 9 6 9 32 c 0
EndSplineSet
EndChar

StartChar: ellipsis
Encoding: 8230 8230 206
Width: 680
Flags: W
HStem: -14 116<27.9761 96.375 264.976 333.375 500 568.875>
VStem: 9 108<6.4082 83.234> 246 108<6.4082 83.234> 481 109<6.94324 83.5491>
LayerCount: 2
Fore
SplineSet
481 32 m 0
 481 70 513 102 546 102 c 0
 572 102 590 83 590 57 c 0
 590 20 556 -14 523 -14 c 0
 497 -14 481 6 481 32 c 0
246 32 m 0
 246 69 277 102 310 102 c 0
 336 102 354 83 354 57 c 0
 354 20 321 -14 288 -14 c 0
 262 -14 246 6 246 32 c 0
9 32 m 0
 9 69 40 102 73 102 c 0
 99 102 117 83 117 57 c 0
 117 20 84 -14 51 -14 c 0
 25 -14 9 6 9 32 c 0
EndSplineSet
EndChar

StartChar: perthousand
Encoding: 8240 8240 207
Width: 942
VWidth: 0
Flags: W
HStem: -8 28<386.061 456.221 698.061 768.221> 300 27<423.525 493.689 735.525 805.689> 338 28<174.061 244.221> 643 20G<620 631> 646 27<211.525 281.689>
VStem: 79 63<389.827 559.144> 291 63<43.8269 213.144> 309 65<451.145 624.049> 521 65<105.145 278.049> 603 63<43.8269 213.144> 833 65<105.145 278.049>
LayerCount: 2
Fore
SplineSet
775 300 m 3xe4e0
 712 300 666 210 666 132 c 27
 666 81 683 20 731 20 c 3
 794 20 833 116 833 195 c 27
 833 242 820 300 775 300 c 3xe4e0
785 327 m 3
 862 327 898 263 898 195 c 3
 898 99 817 -8 719 -8 c 3
 643 -8 603 55 603 123 c 3
 603 221 683 327 785 327 c 3
251 646 m 3xede0
 188 646 142 556 142 478 c 27
 142 427 159 366 207 366 c 3
 270 366 309 462 309 541 c 27
 309 588 296 646 251 646 c 3xede0
261 673 m 3
 338 673 374 609 374 541 c 3
 374 445 293 338 195 338 c 3
 119 338 79 401 79 469 c 3
 79 567 159 673 261 673 c 3
652 650 m 9
 56 0 l 2
 52 -4 36 -12 22 -12 c 27
 15 -12 9 -9 7 -1 c 9
 603 652 l 2
 607 656 615 663 625 663 c 27xf4e0
 637 663 648 660 652 650 c 9
463 300 m 3
 400 300 354 210 354 132 c 27xe6e0
 354 81 371 20 419 20 c 3
 482 20 521 116 521 195 c 27
 521 242 508 300 463 300 c 3
473 327 m 3
 550 327 586 263 586 195 c 3
 586 99 505 -8 407 -8 c 3
 331 -8 291 55 291 123 c 3
 291 221 371 327 473 327 c 3
EndSplineSet
EndChar

StartChar: minute
Encoding: 8242 8242 208
Width: 163
Flags: W
HStem: 494 205
VStem: 138.153 73<620.949 687.628>
LayerCount: 2
Fore
SplineSet
191.153 699 m 0
 199.153 699 211.153 696 211.153 682 c 0
 211.153 642 143.153 541 117.153 502 c 0
 113.153 496 109.153 494 105.153 494 c 0
 99.1533 494 95.1533 499 96.1533 506 c 0
 97.1533 509 120.153 612 138.153 666 c 0
 142.153 678 173.153 699 191.153 699 c 0
EndSplineSet
EndChar

StartChar: second
Encoding: 8243 8243 209
Width: 283
Flags: W
HStem: 494 205
VStem: 138.153 73<620.949 687.628> 260.152 71<618.641 687.628>
LayerCount: 2
Fore
SplineSet
312.152 699 m 0
 320.152 699 331.152 696 331.152 682 c 0
 331.152 642 266.152 544 238.153 502 c 0
 234.153 496 230.153 494 226.153 494 c 0
 220.153 494 215.153 499 216.153 506 c 0
 217.153 509 242.153 612 260.152 666 c 0
 264.152 678 294.152 699 312.152 699 c 0
191.153 699 m 0
 199.153 699 211.153 696 211.153 682 c 0
 211.153 642 143.153 541 117.153 502 c 0
 113.153 496 109.153 494 105.153 494 c 0
 99.1533 494 95.1533 499 96.1533 506 c 0
 97.1533 509 120.153 612 138.153 666 c 0
 142.153 678 173.153 699 191.153 699 c 0
EndSplineSet
EndChar

StartChar: uni2038
Encoding: 8248 8248 210
Width: 375
Flags: W
HStem: -36 146
VStem: 75 219
LayerCount: 2
Fore
SplineSet
280 -36 m 0
 268 -36 222 11 196 47 c 1
 159 10 93 -36 81 -36 c 0
 76 -36 75 -28 75 -23 c 0
 75 -8 139 17 195 100 c 1
 199 108 201 110 206 110 c 0
 224 110 212 95 246 41 c 0
 258 21 293 -15 294 -18 c 1
 293 -22 286 -36 280 -36 c 0
EndSplineSet
EndChar

StartChar: guilsinglleft
Encoding: 8249 8249 211
Width: 304
VWidth: 0
Flags: W
VStem: 27 89<219.901 267.151>
LayerCount: 2
Fore
SplineSet
220 91 m 1
 215 82 205 76 199 73 c 1
 169 112 97 182 37 228 c 0
 31 232 27 236 27 242 c 0
 27 253 35 262 42 266 c 0
 153 329 195 368 266 423 c 1
 270 422 282 417 284 408 c 1
 279 396 116 249 116 249 c 1
 116 249 220 99 220 91 c 1
EndSplineSet
EndChar

StartChar: guilsinglright
Encoding: 8250 8250 212
Width: 305
VWidth: 0
Flags: W
VStem: 181 89<228.849 276.099>
LayerCount: 2
Fore
SplineSet
77 405 m 1
 82 414 92 420 98 423 c 1
 128 384 200 314 260 268 c 0
 266 264 270 260 270 254 c 0
 270 243 262 234 255 230 c 0
 144 167 102 128 31 73 c 1
 27 74 15 79 13 88 c 1
 18 100 181 247 181 247 c 1
 181 247 77 397 77 405 c 1
EndSplineSet
EndChar

StartChar: uni203E
Encoding: 8254 8254 213
Width: 822
Flags: W
HStem: 739 62<233.5 787.5>
LayerCount: 2
Fore
SplineSet
788 801 m 2
 792 801 794 795 794 788 c 0
 794 774 784 746 772 739 c 1
 233 739 l 2
 229 739 227 745 227 752 c 0
 227 766 237 794 249 801 c 1
 788 801 l 2
EndSplineSet
EndChar

StartChar: Euro
Encoding: 8364 8364 214
Width: 618
Flags: W
HStem: -8 34.2344<283.149 428.869> 242 39<30.4486 379.867> 340 39<45.6078 395.026> 599.665 33.283<348.122 486.625>
VStem: 80.3906 90.6334<151.672 332.531> 554.07 30.504<462.044 533.311>
LayerCount: 2
Fore
SplineSet
422.399 599.665 m 0
 290.919 599.665 170.461 474.137 171.024 267.779 c 0
 171.334 154.614 230.236 26.2344 356.659 26.2344 c 0
 404.622 26.2344 443.306 46.7354 474.226 74.375 c 0
 504.702 101.619 526.225 135.801 539.876 164.124 c 1
 551.409 164.124 564.718 156.517 564.718 156.517 c 1
 561.169 137.497 514.148 37.6465 500.841 26.2344 c 1
 452.934 -0.392578 405.544 -8 333.062 -8 c 0
 196.524 -8 80.3906 110.87 80.3906 251.612 c 0
 80.3906 491.255 272.063 636.752 446.842 632.948 c 0
 495.716 631.885 549.974 619.635 593.445 608.224 c 1
 591.672 573.989 586.349 497.912 584.574 469.383 c 0
 584.157 462.673 577.477 461.775 574.815 461.775 c 0
 571.266 461.775 558.507 461.775 554.07 469.383 c 1
 558.507 545.46 493.197 599.665 422.399 599.665 c 0
47.1592 340 m 2
 43.8408 340 43.1592 344 43.1592 348 c 0
 43.1592 355 49.1592 373 56.1592 379 c 1
 394 379 l 2
 396 379 397 375 397 371 c 0
 397 366 394 349 385 340 c 1
 47.1592 340 l 2
32 242 m 2
 28.8408 242 28 246 28 250 c 0
 28 257 34 275 41 281 c 1
 378.841 281 l 2
 380.841 281 381.841 277 381.841 273 c 0
 381.841 268 378.841 251 369.841 242 c 1
 32 242 l 2
EndSplineSet
EndChar

StartChar: arrowleft
Encoding: 8592 8592 215
Width: 672
Flags: W
HStem: 216 62<119 653.5>
LayerCount: 2
Fore
SplineSet
183 335 m 10
 119 278 l 25
 654 278 l 18
 658 278 660 272 660 265 c 0
 660 251 650 223 638 216 c 1
 109 216 l 1
 109 216 133 179 150 157 c 16
 189 106 193 105 193 94 c 0
 193 84 176 76 169 73 c 1
 168 75 126 132 8 227 c 0
 5 229 4 233 4 237 c 0
 4 244 8 259 17 268 c 1
 154 347 237 422 238 423 c 1
 250 419 258 413 256 404 c 1
 256 394 251 396 183 335 c 10
EndSplineSet
EndChar

StartChar: arrowup
Encoding: 8593 8593 216
Width: 315
Flags: W
HStem: 438 21G<7 16.5 298 308>
VStem: 0 326
LayerCount: 2
Fore
SplineSet
152 556 m 1
 86 499 l 1
 19 439 20 438 13 438 c 0
 1 438 2 456 0 461 c 1
 2 462 67 520 184 667 c 0
 187 672 192 674 198 674 c 0
 207 674 216 673 222 666 c 1
 270 535 325 461 326 460 c 1
 320 446 312 437 304 437 c 0
 292 437 297 440 248 505 c 2
 210 555 l 1
 99 -21 l 2
 98 -24 93 -28 86 -28 c 0
 71 -28 47 -21 41 -13 c 1
 152 556 l 1
EndSplineSet
EndChar

StartChar: arrowright
Encoding: 8594 8594 217
Width: 676
Flags: W
HStem: 217 62<13.5 549>
LayerCount: 2
Fore
SplineSet
549 217 m 1
 13 217 l 2
 9 217 7 223 7 230 c 0
 7 244 17 272 29 279 c 1
 563 279 l 1
 520 339 l 1
 473 401 477 387 477 404 c 1
 480 417 497 420 502 423 c 1
 503 421 544 363 662 268 c 0
 665 266 666 263 666 259 c 0
 666 253 663 236 654 227 c 1
 517 148 433 74 432 73 c 1
 420 77 413 82 415 91 c 1
 415 100 420 100 491 164 c 2
 549 217 l 1
EndSplineSet
EndChar

StartChar: arrowdown
Encoding: 8595 8595 218
Width: 313
Flags: W
VStem: -10 325
LayerCount: 2
Fore
SplineSet
105 90 m 1
 217 667 l 2
 218 671 223 673 230 673 c 0
 244 673 266 666 274 658 c 1
 164 89 l 1
 230 146 l 1
 296 206 289 207 303 207 c 0
 315 207 313 189 315 184 c 1
 313 183 248 125 131 -22 c 0
 128 -27 123 -29 117 -29 c 0
 108 -29 99 -27 93 -20 c 1
 45 111 -9 184 -10 185 c 1
 -4 199 3 208 11 208 c 0
 22 208 17 206 68 138 c 1
 105 90 l 1
EndSplineSet
EndChar

StartChar: summation
Encoding: 8721 8721 219
Width: 570
Flags: W
HStem: 2 45<91.0067 417.802> 2 29<-21.5762 9.35864> 627 31<101.579 126.204>
VStem: 520 29<523.096 586.903>
LayerCount: 2
Fore
SplineSet
404 616 m 2x70
 404 616 314 617 288 617 c 0
 255 617 227 615 224 607 c 1
 351 358 l 1
 353 346 352 335 344 327 c 0
 307 291 91 87 91 57 c 0
 91 51 100 47 159 47 c 0xb0
 191 47 227 48 258 48 c 0
 293 48 382 51 412 66 c 0
 432 76 459 109 484 162 c 0
 486 166 491 168 498 168 c 0
 507 168 519 165 521 162 c 1
 493 108 453 40 438 -4 c 1
 337 -4 174 2 89 2 c 0
 27 2 -22 -3 -22 -3 c 1
 -23 -2 -23 1 -23 5 c 0
 -23 13 -19 31 -16 31 c 0
 -6 31 18 51 29 63 c 2
 268 317 l 2
 270 320 271 323 269 327 c 0
 261 347 194 490 142 592 c 0
 133 609 111 627 100 627 c 0
 97 627 97 649 106 658 c 1
 106 658 152 656 214 656 c 0
 300 656 448 664 549 664 c 1
 548 648 548 632 548 617 c 0
 548 587 549 558 549 528 c 1
 546 525 539 523 532 523 c 0
 525 523 520 525 520 530 c 0
 517 587 495 602 487 607 c 0
 473 615 437 616 404 616 c 2x70
EndSplineSet
EndChar

StartChar: minus
Encoding: 8722 8722 220
Width: 567
Flags: W
HStem: 218 56<61.4466 495.173>
LayerCount: 2
Fore
SplineSet
53.4082 228 m 1
 53.4082 228 66.4082 274 75.4082 274 c 2
 500.408 274 l 2
 503.408 274 505.408 274 505.408 269 c 0
 505.408 265 496.408 242 488.408 224 c 0
 485.408 218 481.408 218 481.408 218 c 1
 57.4082 218 l 1
 57.4082 218 51.4082 218 53.4082 228 c 1
EndSplineSet
EndChar

StartChar: uni2213
Encoding: 8723 8723 221
Width: 534
Flags: W
HStem: 221 57<53.1421 231 299 480.358> 522 57<105.109 532.536>
LayerCount: 2
Fore
SplineSet
536 579 m 1
 536 579 542 579 542 572 c 0
 542 571 542 569 541 567 c 0
 525 519 520 525 517 522 c 1
 101 522 l 1
 101 522 93 522 98 536 c 0
 110 572 113 579 119 579 c 2
 536 579 l 1
283 218 m 2
 246 26 l 1
 246 26 244 16 201 10 c 0
 198 10 197 9 195 9 c 0
 188 9 191 13 192 17 c 2
 231 216 l 2
 231 218 231 221 226 221 c 2
 41 221 l 1
 41 221 37 221 37 227 c 0
 37 236 51 267 53 272 c 0
 56 278 61 278 61 278 c 1
 238 278 l 2
 241 278 244 281 244 283 c 2
 281 473 l 1
 281 473 281 478 287 480 c 0
 311 487 322 488 326 488 c 0
 335 488 335 482 335 482 c 1
 296 282 l 2
 295 279 296 278 299 278 c 2
 485 278 l 2
 488 278 491 278 491 274 c 0
 491 265 475 232 473 227 c 0
 470 221 465 221 465 221 c 1
 288 221 l 2
 285 221 283 220 283 218 c 2
EndSplineSet
EndChar

StartChar: radical
Encoding: 8730 8730 222
Width: 462
Flags: W
LayerCount: 2
Fore
SplineSet
-19 168 m 1
 -30 174 -35 181 -35 185 c 0
 -35 193 -16 203 -10 206 c 0
 27 226 111 279 126 291 c 0
 135 298 149 298 150 290 c 0
 151 257 159 226 160 221 c 2
 220 -31 l 1
 512 791 l 1
 546 791 l 1
 209 -153 l 1
 192 -171 181 -173 175 -173 c 0
 171 -173 166 -172 166 -168 c 2
 77 220 l 1
 -19 168 l 1
EndSplineSet
EndChar

StartChar: proportional
Encoding: 8733 8733 223
Width: 655
Flags: W
HStem: 41 56<132.349 237.342 530.398 554.02> 362 60<173.187 284.185 567.845 624.125>
VStem: 34 67<129.239 277.844>
LayerCount: 2
Fore
SplineSet
234 362 m 0
 157 362 101 269 101 198 c 0
 101 142 134 97 189 97 c 0
 250 97 313 172 362 218 c 0
 363 219 364 219 363 220 c 0
 340 259 299 362 234 362 c 0
621 419 m 1
 623 415 625 405 625 401 c 0
 625 388 624 367 615 367 c 0
 558 367 485 286 445 246 c 0
 444 245 443 244 444 243 c 0
 476 185 512 100 576 100 c 0
 594 100 559 47 547 43 c 1
 425 43 388 180 378 180 c 2
 377 180 l 1
 315 117 245 41 153 41 c 0
 78 41 34 104 34 182 c 0
 34 308 144 422 257 422 c 0
 347 422 396 334 425 286 c 0
 426 284 429 283 430 285 c 0
 474 332 543 404 621 419 c 1
EndSplineSet
EndChar

StartChar: infinity
Encoding: 8734 8734 224
Width: 821
Flags: W
HStem: 43 57<129.45 240.894 523.794 634.388> 362 60<173.472 284.588 569.184 677.059>
VStem: 34 67<129.307 278.512> 704 69<185.93 333.226>
LayerCount: 2
Fore
SplineSet
614 367 m 0
 557 367 485 286 445 246 c 0
 444 245 443 244 444 243 c 0
 476 185 512 100 576 100 c 0
 653 100 704 197 704 264 c 0
 704 322 670 367 614 367 c 0
235 362 m 0
 164 362 101 279 101 199 c 0
 101 142 135 97 190 97 c 0
 251 97 314 172 363 218 c 0
 364 219 364 219 363 220 c 0
 340 259 300 362 235 362 c 0
257 422 m 0
 347 422 396 334 425 286 c 0
 426 284 430 283 431 285 c 0
 480 338 560 422 650 422 c 0
 726 422 773 359 773 281 c 0
 773 156 660 43 546 43 c 0
 424 43 388 180 378 180 c 2
 377 180 l 1
 315 117 244 41 153 41 c 0
 78 41 34 104 34 182 c 0
 34 308 144 422 257 422 c 0
EndSplineSet
EndChar

StartChar: notequal
Encoding: 8800 8800 225
Width: 522
Flags: W
HStem: 117 56<25.2782 153 241 448.122> 259 56<60.1421 254 343 476.358>
LayerCount: 2
Fore
SplineSet
343 315 m 1
 481 315 l 2
 484 315 487 316 487 312 c 0
 487 303 471 270 469 265 c 0
 466 259 462 259 462 259 c 1
 302 259 l 1
 241 173 l 1
 453 173 l 2
 457 173 460 175 459 168 c 0
 457 159 451 145 441 123 c 0
 438 117 435 117 435 117 c 1
 201 117 l 1
 128 13 l 1
 128 13 128 11 124 11 c 0
 121 11 105 15 96 31 c 0
 93 35 97 38 97 38 c 1
 153 117 l 1
 21 117 l 1
 21 117 16 117 16 124 c 0
 16 130 20 140 33 168 c 0
 36 174 40 173 40 173 c 1
 193 173 l 1
 254 259 l 1
 48 259 l 1
 48 259 42 259 44 269 c 0
 45 273 49 286 60 310 c 0
 63 316 68 315 68 315 c 1
 293 315 l 1
 358 406 l 1
 358 406 358 409 362 409 c 0
 367 409 379 406 388 391 c 0
 392 386 389 381 389 381 c 1
 343 315 l 1
EndSplineSet
EndChar

StartChar: lessequal
Encoding: 8804 8804 226
Width: 464
Flags: W
HStem: 6 56<-12.3358 351.644>
LayerCount: 2
Fore
SplineSet
2 62 m 1
 354 62 l 2
 357 62 358 59 358 53 c 3
 358 39 349 19 337 6 c 1
 -15 6 l 2
 -18 6 -20 9 -20 15 c 3
 -20 29 -9 48 2 62 c 1
435 529 m 17
 439 524 448 505 448 488 c 27
 448 483 447 477 443 475 c 2
 107 310 l 1
 383 142 l 1
 383 124 365 87 359 87 c 0
 358 87 357 87 355 88 c 2
 44 279 l 2
 36 284 33 292 33 302 c 0
 33 327 44 336 56 342 c 2
 435 529 l 17
EndSplineSet
EndChar

StartChar: greaterequal
Encoding: 8805 8805 227
Width: 466
Flags: W
HStem: 6 56<18.6642 382.644>
LayerCount: 2
Fore
SplineSet
33 62 m 1
 385 62 l 2
 388 62 389 59 389 53 c 3
 389 39 380 19 368 6 c 1
 16 6 l 2
 13 6 11 9 11 15 c 3
 11 29 22 48 33 62 c 1
41 88 m 17
 35 96 28 125 28 134 c 0
 28 138 30 140 34 142 c 2
 375 310 l 1
 104 475 l 1
 104 500 120 530 126 530 c 0
 128 530 130 530 132 529 c 2
 439 342 l 2
 446 338 451 331 451 322 c 0
 451 320 450 290 427 279 c 2
 41 88 l 17
EndSplineSet
EndChar

StartChar: partialdiff
Encoding: 8706 8706 228
Width: 439
Flags: W
HStem: 0 36<120.36 212.37> 330 37<165.531 272.441> 592 42<169.17 289.394>
VStem: 19 72<60.087 229.351> 346 61<341.586 530.184>
LayerCount: 2
Fore
SplineSet
213 330 m 0
 157 330 91 255 91 149 c 0
 91 109 97 36 166 36 c 0
 254 36 310 192 310 238 c 0
 310 290 271 330 213 330 c 0
346 430 m 0
 346 485 327 592 223 592 c 0
 189 592 155 578 120 552 c 1
 119 555 113 560 115 568 c 0
 118 581 172 634 255 634 c 0
 353 634 407 537 407 414 c 0
 407 286 353 0 135 0 c 0
 58 0 19 59 19 132 c 0
 19 227 91 367 233 367 c 0
 281 367 326 339 330 339 c 0
 343 339 346 410 346 430 c 0
EndSplineSet
EndChar

StartChar: gravecomb
Encoding: 768 768 229
Width: 0
VWidth: 967
GlyphClass: 4
Flags: W
HStem: 490 131
VStem: -355 171
LayerCount: 2
Fore
SplineSet
-192 490 m 0
 -207 490 -355 572 -355 591 c 0
 -355 614 -329 621 -316 621 c 0
 -301 621 -289 618 -279 611 c 0
 -265.6640625 601.665039062 -184 508 -184 500 c 0
 -184 497 -189 490 -192 490 c 0
EndSplineSet
EndChar

StartChar: acutecomb
Encoding: 769 769 230
Width: 0
VWidth: 967
GlyphClass: 4
Flags: W
HStem: 490 131
VStem: -333 171
LayerCount: 2
Fore
SplineSet
-325 490 m 0
 -328 490 -333 497 -333 500 c 0
 -333 508 -251.3359375 601.665039062 -238 611 c 0
 -228 618 -216 621 -201 621 c 0
 -188 621 -162 614 -162 591 c 0
 -162 572 -310 490 -325 490 c 0
EndSplineSet
EndChar

StartChar: uni0302
Encoding: 770 770 231
Width: 0
VWidth: 960
GlyphClass: 4
Flags: W
HStem: 490 135
VStem: -367.871 205
LayerCount: 2
Fore
SplineSet
-239.87109375 625 m 0
 -235.87109375 625 -232.97265625 620.948242188 -230.87109375 617 c 0
 -205.87109375 570 -191.87109375 546 -162.87109375 501 c 1
 -163.87109375 495 -170.87109375 490 -175.87109375 490 c 1
 -206.87109375 514 -253.87109375 554 -253.87109375 554 c 25
 -253.87109375 554 -319.87109375 515 -358.87109375 490 c 1
 -363.87109375 490 -368.87109375 495 -367.87109375 501 c 1
 -320.87109375 546 -295.87109375 570 -251.87109375 617 c 0
 -248.004882812 621.129882812 -243.87109375 625 -239.87109375 625 c 0
EndSplineSet
EndChar

StartChar: tildecomb
Encoding: 771 771 232
Width: 0
VWidth: 940
GlyphClass: 4
Flags: W
HStem: 490 42<-236.089 -139.913> 526 42<-361.648 -261.305>
VStem: -395.804 291
LayerCount: 2
Fore
SplineSet
-296.803710938 568 m 0x60
 -273.803710938 568 -256.803710938 563 -240.803710938 555 c 0
 -220.803710938 546 -204.803710938 532 -175.803710938 532 c 0xa0
 -143.803710938 532 -117.803710938 561 -110.803710938 568 c 1x60
 -107.803710938 567 -103.803710938 566 -104.803710938 559 c 0
 -106.803710938 545 -116.803710938 530 -125.803710938 522 c 0
 -151.803710938 498 -176.803710938 490 -203.803710938 490 c 0xa0
 -226.803710938 490 -241.803710938 496 -258.803710938 504 c 0
 -277.803710938 513 -296.803710938 526 -325.803710938 526 c 0x60
 -357.803710938 526 -383.803710938 497 -390.803710938 490 c 1xa0
 -393.803710938 491 -396.803710938 493 -395.803710938 500 c 0
 -393.803710938 514 -384.803710938 528 -375.803710938 536 c 0
 -349.803710938 560 -323.803710938 568 -296.803710938 568 c 0x60
EndSplineSet
EndChar

StartChar: dotlessi
Encoding: 305 305 233
Width: 262
Flags: W
HStem: -6 55<76.5 140.107> 380 55<97.7782 161.5>
VStem: 53 75<46 126.683> 115 75<302.317 383>
LayerCount: 2
Fore
SplineSet
111 323 m 2xe0
 112 329 115 350 115 355 c 0
 115 364 115 380 105 380 c 0
 84 380 38 325 35 322 c 1
 32 322 25 335 25 341 c 1
 36 360 104 435 151 435 c 0
 172 435 190 413 190 383 c 0xd0
 190 375 187 351 183 330 c 2
 132 106 l 2
 130 96 128 79 128 74 c 0
 128 65 128 49 138 49 c 0
 159 49 205 104 208 107 c 1
 211 107 218 94 218 88 c 1
 207 69 134 -6 87 -6 c 0
 66 -6 53 16 53 46 c 0
 53 54 56 78 60 99 c 2
 111 323 l 2xe0
EndSplineSet
Substitution2: "'smcp' Lowercase to Small Capitals in Latin lookup 3-1" dotlessi.sc
EndChar

StartChar: f_f
Encoding: 65536 -1 234
Width: 554
VWidth: 0
Flags: W
HStem: -233 41<-95.9001 -28.4951> -224 59<94.3928 196.199> 361 46<47.3211 103.516 189.59 359.609 445.552 564.597> 645 38<296.352 407> 661 38<531.607 630>
LayerCount: 2
Fore
SplineSet
371 683 m 0xb0
 425 683 467 666 481 653 c 1
 505 676 563 699 603 699 c 0
 657 699 677 680 685 665 c 1
 685 633 678 600 649 600 c 0
 616 600 605 661 572 661 c 0
 485 661 447 438 443 413 c 0
 443 411 l 0
 443 409 444 407 446 407 c 2
 561 407 l 2
 565 407 566 400 566 395 c 27
 566 381 560 369 555 361 c 1
 438 361 l 2
 435 361 433 361 432 353 c 2
 389 106 l 0
 341 -140 190 -224 125 -224 c 0x68
 71 -224 39 -189 29 -175 c 1
 -6 -215 -53 -233 -93 -233 c 0
 -147 -233 -168 -206 -176 -191 c 1
 -176 -166 -165 -131 -136 -131 c 0
 -103 -131 -106 -192 -63 -192 c 0
 -18 -192 33 -73 44 -10 c 0
 48 12 49 21 53 46 c 0
 106 354 l 1
 106 356 l 2
 106 359 105 361 103 361 c 2
 38 361 l 2
 37 361 36 362 36 364 c 0
 36 374 61 407 84 407 c 2
 113 407 l 2
 116 407 118 412 119 416 c 0
 151 580 277 683 371 683 c 0xb0
153 -165 m 0
 230 -165 277 -102 311 60 c 0
 362 354 l 1
 362 356 l 2
 362 359 361 361 359 361 c 1
 182 361 l 2
 179 361 177 361 176 353 c 2
 121 43 l 0
 109 -19 98 -59 76 -103 c 0
 75 -104 75 -106 75 -108 c 24
 75 -111 76 -115 76 -116 c 0
 80 -136 110 -165 153 -165 c 0
350 645 m 0x30
 273 645 216 561 194 454 c 0
 190 432 191 438 187 413 c 0
 187 411 l 0
 187 409 188 407 191 407 c 2
 369 407 l 2
 372 407 374 412 375 416 c 0
 387 478 412 551 430 584 c 0
 431 585 431 587 431 589 c 24
 431 592 430 596 430 597 c 0
 426 617 393 645 350 645 c 0x30
EndSplineSet
LCarets2: 1 0 
Ligature2: "'liga' Standard Ligatures lookup 0-1" f f
EndChar

StartChar: f_i
Encoding: 65537 -1 235
Width: 520
VWidth: 0
Flags: W
HStem: -231 39<-120.876 -28.1497> -6 55<324.5 388.107> 361 46<47.3211 104.125 189.915 352.473> 366 52<204.141 352.056> 661 38<277.677 351.811>
VStem: 301 75<21.7226 165.594>
LayerCount: 2
Fore
SplineSet
431 330 m 2xdc
 380 106 l 2
 378 96 376 79 376 74 c 0
 376 65 376 49 386 49 c 0
 407 49 453 104 456 107 c 1
 459 107 466 94 466 88 c 1
 455 69 382 -6 335 -6 c 0
 314 -6 301 16 301 46 c 0
 301 54 303 78 308 99 c 2
 352 293 l 2
 353 300 355 316 355 321 c 0
 355 343 348 366 329 366 c 8xdc
 272 366 182 361 182 361 c 2
 179 361 177 361 176 353 c 2
 121 54 l 2
 87 -142 -8 -231 -95 -231 c 0
 -146 -231 -170 -207 -176 -190 c 1
 -177 -160 -159 -131 -135 -131 c 0
 -108 -131 -103 -192 -61 -192 c 0
 -6 -192 36 -42 46 15 c 2
 106 354 l 1
 106 356 l 2
 106 359 105 361 103 361 c 2
 38 361 l 2
 37 361 36 362 36 364 c 0
 36 374 61 407 84 407 c 2
 113 407 l 2
 116 407 118 412 119 416 c 0
 146 582 247 699 347 699 c 0
 401 699 418 686 433 672 c 0
 449 657 459 644 465 630 c 1
 465 602 451 566 420 566 c 27
 398 566 388 584 377 603 c 0
 363 628 348 661 311 661 c 0
 275 661 224 591 194 450 c 0
 192 438 189 426 187 413 c 0
 187 411 l 0
 187 409 188 407 190 407 c 0xec
 214 407 313 410 331 412 c 0
 352 414 423 418 425 418 c 3
 429 418 439 410 439 401 c 3
 439 396 436 351 431 330 c 2xdc
EndSplineSet
LCarets2: 1 0 
Ligature2: "'liga' Standard Ligatures lookup 0-1" f i
EndChar

StartChar: f_f_i
Encoding: 65538 -1 236
Width: 781
VWidth: 0
Flags: W
HStem: -233 41<-95.9001 -28.4951> -224 47<92.4828 193.45> -6 55<585.5 649.107> 361 46<47.3211 103.516 189.59 359.609 445.584 613.473> 645 38<296.352 407> 661 38<531.988 612.811>
VStem: 562 75<21.7226 165.594>
LayerCount: 2
Fore
SplineSet
590 366 m 0x36
 438 361 l 2
 435 361 433 361 432 353 c 2
 389 106 l 0
 341 -140 190 -224 125 -224 c 0x76
 71 -224 39 -189 29 -175 c 1
 -6 -215 -53 -233 -93 -233 c 0
 -147 -233 -168 -206 -176 -191 c 1
 -176 -166 -165 -131 -136 -131 c 0
 -103 -131 -106 -192 -63 -192 c 0
 -18 -192 33 -73 44 -10 c 0
 48 12 49 21 53 46 c 0
 106 354 l 1
 106 356 l 2
 106 359 105 361 103 361 c 2
 38 361 l 2
 37 361 36 362 36 364 c 0
 36 374 61 407 84 407 c 2
 113 407 l 2
 116 407 118 412 119 416 c 0
 151 580 277 683 371 683 c 0xba
 425 683 467 666 481 653 c 1
 505 676 569 699 608 699 c 0
 662 699 679 686 694 672 c 0
 710 657 720 644 726 630 c 1
 726 602 712 566 681 566 c 27
 659 566 649 584 638 603 c 0
 624 628 609 661 572 661 c 0
 486 661 447 438 443 413 c 0
 443 411 l 0
 443 409 444 407 446 407 c 2
 592 412 l 0
 613 414 684 418 686 418 c 3
 690 418 700 410 700 401 c 3
 700 396 697 351 692 330 c 2
 641 106 l 2
 639 96 637 79 637 74 c 0
 637 65 637 49 647 49 c 0
 668 49 714 104 717 107 c 1
 720 107 727 94 727 88 c 1
 716 69 643 -6 596 -6 c 0
 575 -6 562 16 562 46 c 0
 562 54 564 78 569 99 c 2
 613 293 l 2
 614 300 616 316 616 321 c 0
 616 343 609 366 590 366 c 0x36
76 -116 m 0
 80 -136 93 -177 136 -177 c 0
 194 -177 277 -102 311 60 c 0
 362 354 l 1
 362 356 l 2
 362 359 361 361 359 361 c 1
 182 361 l 2
 179 361 177 361 176 353 c 2
 121 43 l 0
 109 -19 98 -59 76 -103 c 0
 75 -104 75 -106 75 -108 c 24
 75 -111 76 -115 76 -116 c 0
350 645 m 0x3a
 273 645 216 561 194 454 c 0
 190 432 191 438 187 413 c 0
 187 411 l 0
 187 409 188 407 191 407 c 2
 369 407 l 2
 372 407 374 412 375 416 c 0
 387 478 412 551 430 584 c 0
 431 585 431 587 431 589 c 24
 431 592 430 596 430 597 c 0
 426 617 393 645 350 645 c 0x3a
EndSplineSet
LCarets2: 2 0 0 
Ligature2: "'liga' Standard Ligatures lookup 0-1" f f i
EndChar

StartChar: f_l
Encoding: 65539 -1 237
Width: 530
VWidth: 0
Flags: W
HStem: -231 39<-120.876 -28.1497> -6 55<344 408.107> 361 46<47.3211 104.125 189.684 308.597> 661 38<281.135 391.012> 674 20G<515 522.5>
VStem: 321 75<21.7226 176.133>
LayerCount: 2
Fore
SplineSet
495 591 m 2xec
 400 106 l 2
 399 102 396 79 396 74 c 0
 396 65 396 49 406 49 c 0
 427 49 473 104 476 107 c 1
 479 107 486 94 486 88 c 1
 475 69 402 -6 355 -6 c 0
 333 -6 321 16 321 46 c 0
 321 54 324 78 328 99 c 2
 418 559 l 2
 419 563 422 585 422 589 c 3
 422 632 376 661 329 661 c 0
 263 661 215 579 187 413 c 0
 187 411 l 0
 187 409 189 407 190 407 c 2
 305 407 l 2
 309 407 310 400 310 395 c 27
 310 381 304 369 299 361 c 1
 182 361 l 2
 180 361 177 361 176 353 c 2
 121 54 l 2
 87 -142 -8 -231 -95 -231 c 0
 -146 -231 -170 -207 -176 -190 c 1
 -177 -160 -159 -131 -135 -131 c 0
 -108 -131 -103 -192 -61 -192 c 0
 -6 -192 36 -42 46 15 c 2
 106 354 l 1
 106 356 l 2
 106 359 105 361 103 361 c 2
 38 361 l 2
 37 361 36 362 36 364 c 0
 36 374 61 407 84 407 c 2
 113 407 l 2
 116 407 118 412 119 416 c 0
 146 582 247 699 347 699 c 0xf4
 401 699 430 678 442 678 c 0
 464 678 510 694 520 694 c 1
 525 694 525 682 525 678 c 9
 525 678 506 646 495 591 c 2xec
EndSplineSet
LCarets2: 1 0 
Ligature2: "'liga' Standard Ligatures lookup 0-1" f l
EndChar

StartChar: f_f_l
Encoding: 65540 -1 238
Width: 791
VWidth: 0
Flags: W
HStem: -233 41<-95.9001 -28.4951> -224 47<92.4828 193.527> -6 55<605 669.107> 361 46<47.3211 103.516 189.59 359.609 450.684 569.597> 645 38<296.352 407> 661 38<541.186 652.012> 674 20G<776 783.5>
VStem: 582 75<21.7226 176.133>
LayerCount: 2
Fore
SplineSet
683 589 m 3x33
 683 632 637 661 590 661 c 0
 524 661 476 579 448 413 c 0
 448 411 l 0
 448 409 450 407 451 407 c 2
 566 407 l 2
 570 407 571 400 571 395 c 27
 571 381 565 369 560 361 c 1
 443 361 l 2
 441 361 439 361 437 353 c 2
 389 106 l 2
 342 -140 190 -224 125 -224 c 0x75
 71 -224 39 -189 29 -175 c 1
 -6 -215 -53 -233 -93 -233 c 0
 -147 -233 -168 -206 -176 -191 c 1
 -176 -166 -165 -131 -136 -131 c 0
 -103 -131 -106 -192 -63 -192 c 0
 -18 -192 33 -73 44 -10 c 0
 48 12 49 21 53 46 c 0
 106 354 l 1
 106 356 l 2
 106 359 105 361 103 361 c 2
 38 361 l 2
 37 361 36 362 36 364 c 0
 36 374 61 407 84 407 c 2
 113 407 l 2
 116 407 118 412 119 416 c 0
 151 580 277 683 371 683 c 0xb9
 425 683 467 666 481 653 c 1
 505 676 569 699 608 699 c 0x35
 662 699 691 678 703 678 c 0
 725 678 771 694 781 694 c 1
 786 694 786 682 786 678 c 9
 786 678 767 646 756 591 c 2
 661 106 l 2
 660 102 657 79 657 74 c 0
 657 65 657 49 667 49 c 0
 688 49 734 104 737 107 c 1
 740 107 747 94 747 88 c 1
 736 69 663 -6 616 -6 c 0
 594 -6 582 16 582 46 c 0
 582 54 585 78 589 99 c 2
 679 559 l 2
 680 563 683 585 683 589 c 3x33
136 -177 m 0
 194 -177 277 -102 311 60 c 0
 362 354 l 1
 362 356 l 2
 362 359 361 361 359 361 c 1
 182 361 l 2
 179 361 177 361 176 353 c 2
 121 43 l 0
 109 -19 98 -59 76 -103 c 0
 75 -104 75 -106 75 -108 c 24
 75 -111 76 -115 76 -116 c 0
 80 -136 93 -177 136 -177 c 0
350 645 m 0x39
 273 645 216 561 194 454 c 0
 190 432 191 438 187 413 c 0
 187 411 l 0
 187 409 188 407 191 407 c 2
 369 407 l 2
 372 407 374 412 375 416 c 0
 387 478 412 551 430 584 c 0
 431 585 431 587 431 589 c 24
 431 592 430 596 430 597 c 0
 426 617 393 645 350 645 c 0x39
EndSplineSet
LCarets2: 2 0 0 
Ligature2: "'liga' Standard Ligatures lookup 0-1" f f l
EndChar

StartChar: f_b
Encoding: 65541 -1 239
Width: 723
VWidth: 0
Flags: W
HStem: -231 39<-120.876 -28.1497> -6 33<414.543 487.431> 361 46<47.3211 104.125 189.684 308.597> 380 55<546.084 628> 661 38<281.135 390.535> 674 20G<510 517.5>
VStem: 601 74<202.265 374.918>
LayerCount: 2
Fore
SplineSet
562 380 m 0xd2
 519 380 426 266 405 156 c 0
 389 75 404 27 451 27 c 0
 535 27 601 221 601 302 c 0
 601 339 597 380 562 380 c 0xd2
415 559 m 2
 416 564 420 585 420 589 c 0
 420 632 376 661 329 661 c 0
 263 661 215 579 187 413 c 0
 187 411 l 0
 187 409 189 407 190 407 c 2
 305 407 l 2
 309 407 310 400 310 395 c 27
 310 381 304 369 299 361 c 1
 182 361 l 2
 180 361 177 361 176 353 c 2
 121 54 l 2
 87 -142 -8 -231 -95 -231 c 0
 -146 -231 -170 -207 -176 -190 c 1
 -177 -160 -159 -131 -135 -131 c 0
 -108 -131 -103 -192 -61 -192 c 0
 -6 -192 36 -42 46 15 c 2
 106 354 l 1
 106 356 l 2
 106 359 105 361 103 361 c 2
 38 361 l 2
 37 361 36 362 36 364 c 0
 36 374 61 407 84 407 c 2
 113 407 l 2
 116 407 118 412 119 416 c 0
 146 582 247 699 347 699 c 0xea
 401 699 430 678 442 678 c 0
 464 678 505 694 515 694 c 1xc6
 520 694 520 682 520 678 c 9
 520 678 503 645 492 591 c 2
 430 285 l 1
 500 402 573 435 605 435 c 0
 651 435 675 391 675 322 c 0
 675 142 530 -6 423 -6 c 0
 367 -6 330 37 330 111 c 0
 330 121 334 146 336 158 c 2
 415 559 l 2
EndSplineSet
LCarets2: 1 0 
Ligature2: "'liga' Standard Ligatures lookup 0-1" f b
EndChar

StartChar: f_f_b
Encoding: 65542 -1 240
Width: 985
VWidth: 0
Flags: W
HStem: -233 41<-95.9001 -28.4951> -224 47<92.4828 193.527> -6 33<674.543 747.431> 361 46<47.3211 103.516 189.59 359.609 450.684 569.597> 380 55<806.084 888> 645 38<296.352 407> 661 38<541.186 651.354> 674 20G<771 778.5>
VStem: 861 74<202.265 374.918>
LayerCount: 2
Fore
SplineSet
822 380 m 0x2880
 779 380 686 266 665 156 c 0
 649 75 664 27 711 27 c 0
 795 27 861 221 861 302 c 0
 861 339 857 380 822 380 c 0x2880
681 589 m 0
 680 632 637 661 590 661 c 0
 524 661 476 579 448 413 c 0
 448 411 l 0
 448 409 450 407 451 407 c 2
 566 407 l 2
 570 407 571 400 571 395 c 27
 571 381 565 369 560 361 c 1
 443 361 l 2
 441 361 439 361 437 353 c 2
 389 106 l 2
 342 -140 190 -224 125 -224 c 0x7280
 71 -224 39 -189 29 -175 c 1
 -6 -215 -53 -233 -93 -233 c 0
 -147 -233 -168 -206 -176 -191 c 1
 -176 -166 -165 -131 -136 -131 c 0
 -103 -131 -106 -192 -63 -192 c 0
 -18 -192 33 -73 44 -10 c 0
 48 12 49 21 53 46 c 0
 106 354 l 1
 106 356 l 2
 106 359 105 361 103 361 c 2
 38 361 l 2
 37 361 36 362 36 364 c 0
 36 374 61 407 84 407 c 2
 113 407 l 2
 116 407 118 412 119 416 c 0
 151 580 277 683 371 683 c 0xb480
 425 683 467 666 481 653 c 1
 505 676 569 699 608 699 c 0x2280
 662 699 691 678 703 678 c 0
 725 678 766 694 776 694 c 1x2180
 781 694 781 682 781 678 c 9
 781 678 763 646 752 591 c 2
 690 285 l 1
 760 402 833 435 865 435 c 0
 911 435 935 391 935 322 c 0
 935 142 790 -6 683 -6 c 0
 627 -6 590 37 590 111 c 0
 590 121 594 146 596 158 c 2
 675 559 l 2
 676 564 680 585 681 589 c 0
136 -177 m 0
 194 -177 277 -102 311 60 c 0
 362 354 l 1
 362 356 l 2
 362 359 361 361 359 361 c 1
 182 361 l 2
 179 361 177 361 176 353 c 2
 121 43 l 0
 109 -19 98 -59 76 -103 c 0
 75 -104 75 -106 75 -108 c 24
 75 -111 76 -115 76 -116 c 0
 80 -136 93 -177 136 -177 c 0
350 645 m 0x3480
 273 645 216 561 194 454 c 0
 190 432 191 438 187 413 c 0
 187 411 l 0
 187 409 188 407 191 407 c 2
 369 407 l 2
 372 407 374 412 375 416 c 0
 387 478 412 551 430 584 c 0
 431 585 431 587 431 589 c 24
 431 592 430 596 430 597 c 0
 426 617 393 645 350 645 c 0x3480
EndSplineSet
LCarets2: 2 0 0 
Ligature2: "'liga' Standard Ligatures lookup 0-1" f f b
EndChar

StartChar: f_k
Encoding: 65543 -1 241
Width: 743
VWidth: 0
Flags: W
HStem: -231 39<-120.876 -28.1497> -4 55<581.109 640.184> 361 46<47.3211 104.125 189.684 308.597> 388 47<542.169 631.5> 661 38<281.135 391.012> 674 20G<515 522.5>
VStem: 609 78<300.053 386.608>
LayerCount: 2
Fore
SplineSet
576 388 m 0xd2
 518 388 437 291 425 230 c 1
 492 230 609 271 609 354 c 0
 609 372 604 388 576 388 c 0xd2
418 559 m 2
 419 564 422 585 422 589 c 0
 422 632 376 661 329 661 c 0
 263 661 215 579 187 413 c 0
 187 411 l 0
 187 409 189 407 190 407 c 2
 305 407 l 2
 309 407 310 400 310 395 c 27
 310 381 304 369 299 361 c 1
 182 361 l 2
 180 361 177 361 176 353 c 2
 121 54 l 2
 87 -142 -8 -231 -95 -231 c 0
 -146 -231 -170 -207 -176 -190 c 1
 -177 -160 -159 -131 -135 -131 c 0
 -108 -131 -103 -192 -61 -192 c 0
 -6 -192 36 -42 46 15 c 2
 106 354 l 1
 106 356 l 2
 106 359 105 361 103 361 c 2
 38 361 l 2
 37 361 36 362 36 364 c 0
 36 374 61 407 84 407 c 2
 113 407 l 2
 116 407 118 412 119 416 c 0
 146 582 247 699 347 699 c 0xea
 401 699 430 678 442 678 c 0
 464 678 510 694 520 694 c 1xc6
 525 694 525 682 525 678 c 9
 525 678 506 646 495 591 c 2
 443 322 l 1
 448 326 526 435 612 435 c 0
 651 435 687 406 687 367 c 0
 687 276 587 230 476 211 c 1
 564 79 592 51 633 51 c 0
 650 51 690 93 701 107 c 1
 704 107 711 93 711 88 c 1
 703 74 633 -4 589 -4 c 0
 510 -4 460 119 417 191 c 1
 380 0 l 1
 369 -3 356 -5 345 -5 c 0
 334 -5 321 -3 309 0 c 1
 418 559 l 2
EndSplineSet
LCarets2: 1 0 
Ligature2: "'liga' Standard Ligatures lookup 0-1" f k
EndChar

StartChar: f_f_k
Encoding: 65544 -1 242
Width: 1004
VWidth: 0
Flags: W
HStem: -233 41<-95.9001 -28.4951> -224 47<92.4828 193.527> -4 55<842.109 901.184> 361 46<47.3211 103.516 189.59 359.609 450.684 569.597> 388 47<803.169 892.5> 645 38<296.352 407> 661 38<541.186 652.012> 674 20G<776 783.5>
VStem: 870 78<300.053 386.608>
LayerCount: 2
Fore
SplineSet
837 388 m 0x2880
 779 388 698 291 686 230 c 1
 753 230 870 271 870 354 c 0
 870 372 865 388 837 388 c 0x2880
703 678 m 0
 725 678 771 694 781 694 c 1
 786 694 786 682 786 678 c 9
 786 678 767 646 756 591 c 2
 704 322 l 1
 709 326 787 435 873 435 c 0x2980
 912 435 948 406 948 367 c 0
 948 276 848 230 737 211 c 1
 825 79 853 51 894 51 c 0
 911 51 951 93 962 107 c 1
 965 107 972 93 972 88 c 1
 964 74 894 -4 850 -4 c 0
 771 -4 721 119 678 191 c 1
 641 0 l 1
 630 -3 617 -5 606 -5 c 0
 595 -5 582 -3 570 0 c 1
 679 559 l 2
 680 564 683 585 683 589 c 0
 683 632 637 661 590 661 c 0
 524 661 476 579 448 413 c 0
 448 411 l 0
 448 409 450 407 451 407 c 2
 566 407 l 2
 570 407 571 400 571 395 c 27
 571 381 565 369 560 361 c 1
 443 361 l 2
 441 361 439 361 437 353 c 2
 389 106 l 2
 342 -140 190 -224 125 -224 c 0x7280
 71 -224 39 -189 29 -175 c 1
 -6 -215 -53 -233 -93 -233 c 0
 -147 -233 -168 -206 -176 -191 c 1
 -176 -166 -165 -131 -136 -131 c 0
 -103 -131 -106 -192 -63 -192 c 0
 -18 -192 33 -73 44 -10 c 0
 48 12 49 21 53 46 c 0
 106 354 l 1
 106 356 l 2
 106 359 105 361 103 361 c 2
 38 361 l 2
 37 361 36 362 36 364 c 0
 36 374 61 407 84 407 c 2
 113 407 l 2
 116 407 118 412 119 416 c 0
 151 580 277 683 371 683 c 0xb480
 425 683 467 666 481 653 c 1
 505 676 569 699 608 699 c 0x2280
 662 699 691 678 703 678 c 0
136 -177 m 0x7080
 194 -177 277 -102 311 60 c 0
 362 354 l 1
 362 356 l 2
 362 359 361 361 359 361 c 1
 182 361 l 2
 179 361 177 361 176 353 c 2
 121 43 l 0
 109 -19 98 -59 76 -103 c 0
 75 -104 75 -106 75 -108 c 24
 75 -111 76 -115 76 -116 c 0
 80 -136 93 -177 136 -177 c 0x7080
350 645 m 0x3480
 273 645 216 561 194 454 c 0
 190 432 191 438 187 413 c 0
 187 411 l 0
 187 409 188 407 191 407 c 2
 369 407 l 2
 372 407 374 412 375 416 c 0
 387 478 412 551 430 584 c 0
 431 585 431 587 431 589 c 24
 431 592 430 596 430 597 c 0
 426 617 393 645 350 645 c 0x3480
EndSplineSet
LCarets2: 2 0 0 
Ligature2: "'liga' Standard Ligatures lookup 0-1" f f k
EndChar

StartChar: f_h
Encoding: 65545 -1 243
Width: 752
VWidth: 0
Flags: W
HStem: -231 39<-120.876 -28.1497> -6 55<577 641.107> 361 74<574.866 632.947> 361 46<47.3211 104.125 189.684 308.597> 661 38<281.135 391.012> 674 20G<516 523.5>
VStem: 554 75<21.7226 171.078> 603 77<222.125 388>
LayerCount: 2
Fore
SplineSet
418 559 m 2xe5
 419 564 422 585 422 589 c 3
 422 632 376 661 329 661 c 0
 263 661 215 579 187 413 c 0
 187 411 l 0
 187 409 189 407 190 407 c 2
 305 407 l 2
 309 407 310 400 310 395 c 27
 310 381 304 369 299 361 c 1
 182 361 l 2
 180 361 177 361 176 353 c 2
 121 54 l 2
 87 -142 -8 -231 -95 -231 c 0
 -146 -231 -170 -207 -176 -190 c 1
 -177 -160 -159 -131 -135 -131 c 0
 -108 -131 -103 -192 -61 -192 c 0
 -6 -192 36 -42 46 15 c 2
 106 354 l 1
 106 356 l 2
 106 359 105 361 103 361 c 2
 38 361 l 2
 37 361 36 362 36 364 c 0
 36 374 61 407 84 407 c 2
 113 407 l 2
 116 407 118 412 119 416 c 0
 146 582 247 699 347 699 c 0xd9
 401 699 430 678 442 678 c 0
 464 678 511 694 521 694 c 1
 526 694 526 682 526 678 c 9
 526 678 506 646 495 591 c 2
 444 330 l 1
 426 238 l 1
 439 263 559 435 625 435 c 0
 664 435 680 407 680 369 c 0xe5
 680 335 674 298 666 260 c 2
 633 106 l 2
 632 102 629 79 629 74 c 0
 629 65 629 49 639 49 c 0
 660 49 706 104 709 107 c 1
 712 107 719 94 719 88 c 1
 708 69 635 -6 588 -6 c 0
 566 -6 554 16 554 46 c 0xe6
 554 54 556 78 561 99 c 2
 596 264 l 2
 598 273 603 307 603 318 c 0
 603 341 601 361 584 361 c 0
 548 361 428 236 405 119 c 0
 399 88 390 46 380 0 c 1
 370 -3 354 -4 344 -4 c 0
 334 -4 322 -3 310 0 c 1
 418 559 l 2xe5
EndSplineSet
LCarets2: 1 0 
Ligature2: "'liga' Standard Ligatures lookup 0-1" f h
EndChar

StartChar: f_f_h
Encoding: 65546 -1 244
Width: 1013
VWidth: 0
Flags: W
HStem: -233 41<-95.9001 -28.4951> -224 47<92.4828 193.527> -6 55<838 902.107> 361 74<835.866 893.947> 361 46<47.3211 103.516 189.59 359.609 450.684 569.597> 645 38<296.352 407> 661 38<541.186 652.012> 674 20G<777 784.5>
VStem: 815 75<21.7226 171.078> 864 77<222.125 388>
LayerCount: 2
Fore
SplineSet
703 678 m 0x2240
 725 678 772 694 782 694 c 1
 787 694 787 682 787 678 c 9
 787 678 767 646 756 591 c 2
 705 330 l 1
 687 238 l 1
 700 263 820 435 886 435 c 0
 925 435 941 407 941 369 c 0x3140
 941 335 935 298 927 260 c 2
 894 106 l 2
 893 102 890 79 890 74 c 0
 890 65 890 49 900 49 c 0
 921 49 967 104 970 107 c 1
 973 107 980 94 980 88 c 1
 969 69 896 -6 849 -6 c 0
 827 -6 815 16 815 46 c 0x3180
 815 54 817 78 822 99 c 2
 857 264 l 2
 859 273 864 307 864 318 c 0
 864 341 862 361 845 361 c 0x3140
 809 361 689 236 666 119 c 0
 660 88 651 46 641 0 c 1
 631 -3 615 -4 605 -4 c 0
 595 -4 583 -3 571 0 c 1
 679 559 l 2
 680 564 683 585 683 589 c 3
 683 632 637 661 590 661 c 0
 524 661 476 579 448 413 c 0
 448 411 l 0
 448 409 450 407 451 407 c 2
 566 407 l 2
 570 407 571 400 571 395 c 27
 571 381 565 369 560 361 c 1
 443 361 l 2
 441 361 439 361 437 353 c 2
 389 106 l 2
 342 -140 190 -224 125 -224 c 0x6a40
 71 -224 39 -189 29 -175 c 1
 -6 -215 -53 -233 -93 -233 c 0
 -147 -233 -168 -206 -176 -191 c 1
 -176 -166 -165 -131 -136 -131 c 0
 -103 -131 -106 -192 -63 -192 c 0
 -18 -192 33 -73 44 -10 c 0
 48 12 49 21 53 46 c 0
 106 354 l 1
 106 356 l 2
 106 359 105 361 103 361 c 2
 38 361 l 2
 37 361 36 362 36 364 c 0
 36 374 61 407 84 407 c 2
 113 407 l 2
 116 407 118 412 119 416 c 0
 151 580 277 683 371 683 c 0xac40
 425 683 467 666 481 653 c 1
 505 676 569 699 608 699 c 0
 662 699 691 678 703 678 c 0x2240
136 -177 m 0x68
 194 -177 277 -102 311 60 c 0
 362 354 l 1
 362 356 l 2
 362 359 361 361 359 361 c 1
 182 361 l 2
 179 361 177 361 176 353 c 2
 121 43 l 0
 109 -19 98 -59 76 -103 c 0
 75 -104 75 -106 75 -108 c 24
 75 -111 76 -115 76 -116 c 0
 80 -136 93 -177 136 -177 c 0x68
350 645 m 0x2c
 273 645 216 561 194 454 c 0
 190 432 191 438 187 413 c 0
 187 411 l 0
 187 409 188 407 191 407 c 2
 369 407 l 2
 372 407 374 412 375 416 c 0
 387 478 412 551 430 584 c 0
 431 585 431 587 431 589 c 24
 431 592 430 596 430 597 c 0
 426 617 393 645 350 645 c 0x2c
EndSplineSet
LCarets2: 2 0 0 
Ligature2: "'liga' Standard Ligatures lookup 0-1" f f h
EndChar

StartChar: f_j
Encoding: 65547 -1 245
Width: 483
VWidth: 0
Flags: W
HStem: -231 39<-120.876 -28.1497> 361 46<47.3211 104.125 189.709 352.473> 366 52<204.141 352.056> 661 38<277.24 351.811>
VStem: 355 84<263.281 408.113>
LayerCount: 2
Fore
SplineSet
430 330 m 0xb8
 375 45 l 2
 368 9 347 -67 304 -124 c 0
 262 -179 200 -221 165 -235 c 1
 161 -232 156 -222 156 -215 c 1
 223 -177 276 -89 298 22 c 2
 352 293 l 2
 354 301 355 316 355 321 c 0
 355 343 348 366 329 366 c 8xb8
 272 366 182 361 182 361 c 2
 179 361 177 361 176 353 c 2
 121 54 l 2
 87 -142 -8 -231 -95 -231 c 0
 -146 -231 -170 -207 -176 -190 c 1
 -177 -160 -159 -131 -135 -131 c 0
 -108 -131 -103 -192 -61 -192 c 0
 -6 -192 36 -42 46 15 c 2
 106 354 l 1
 106 356 l 2
 106 359 105 361 103 361 c 2
 38 361 l 2
 37 361 36 362 36 364 c 0
 36 374 61 407 84 407 c 2
 113 407 l 2
 116 407 118 412 119 416 c 0
 146 582 247 699 347 699 c 0
 401 699 418 686 433 672 c 0
 449 657 459 644 465 630 c 1
 465 602 451 566 420 566 c 27
 398 566 388 584 377 603 c 0
 363 628 348 661 311 661 c 0
 272 661 215 579 187 413 c 0
 187 411 l 0
 187 409 188 407 190 407 c 0xd8
 214 407 313 410 331 412 c 0
 352 414 423 418 425 418 c 3
 429 418 439 410 439 401 c 3
 439 396 433 351 430 330 c 0xb8
EndSplineSet
LCarets2: 1 0 
Ligature2: "'liga' Standard Ligatures lookup 0-1" f j
EndChar

StartChar: f_f_j
Encoding: 65548 -1 246
Width: 743
VWidth: 0
Flags: W
HStem: -233 41<-95.9001 -28.4951> -224 47<92.4828 193.45> 361 46<47.3211 103.516 189.59 359.609 445.584 613.473> 645 38<296.352 407> 661 38<531.988 612.811>
VStem: 616 84<263.281 408.113>
LayerCount: 2
Fore
SplineSet
686 418 m 3x2c
 690 418 700 410 700 401 c 3
 700 396 694 351 691 330 c 0
 636 45 l 2
 629 9 608 -67 565 -124 c 0
 523 -179 461 -221 426 -235 c 1
 422 -232 417 -222 417 -215 c 1
 484 -177 537 -89 559 22 c 2
 613 293 l 2
 615 301 616 316 616 321 c 0
 616 343 609 366 590 366 c 0
 581 366 438 361 438 361 c 0
 435 361 433 361 432 353 c 2
 389 106 l 0
 341 -140 190 -224 125 -224 c 0x6c
 71 -224 39 -189 29 -175 c 1
 -6 -215 -53 -233 -93 -233 c 0
 -147 -233 -168 -206 -176 -191 c 1
 -176 -166 -165 -131 -136 -131 c 0
 -103 -131 -106 -192 -63 -192 c 0
 -18 -192 33 -73 44 -10 c 0
 48 12 49 21 53 46 c 0
 106 354 l 1
 106 356 l 2
 106 359 105 361 103 361 c 2
 38 361 l 2
 37 361 36 362 36 364 c 0
 36 374 61 407 84 407 c 2
 113 407 l 2
 116 407 118 412 119 416 c 0
 151 580 277 683 371 683 c 0xb4
 425 683 467 666 481 653 c 1
 505 676 569 699 608 699 c 0
 662 699 679 686 694 672 c 0
 710 657 720 644 726 630 c 1
 726 602 712 566 681 566 c 27
 659 566 649 584 638 603 c 0
 624 628 609 661 572 661 c 0
 486 661 447 438 443 413 c 0
 443 411 l 0
 443 409 444 407 446 407 c 0
 472 407 574 410 592 412 c 0
 613 414 684 418 686 418 c 3x2c
76 -116 m 0
 80 -136 93 -177 136 -177 c 0
 194 -177 277 -102 311 60 c 0
 362 354 l 1
 362 356 l 2
 362 359 361 361 359 361 c 1
 182 361 l 2
 179 361 177 361 176 353 c 2
 121 43 l 0
 109 -19 98 -59 76 -103 c 0
 75 -104 75 -106 75 -108 c 24
 75 -111 76 -115 76 -116 c 0
350 645 m 0x34
 273 645 216 561 194 454 c 0
 190 432 191 438 187 413 c 0
 187 411 l 0
 187 409 188 407 191 407 c 2
 369 407 l 2
 372 407 374 412 375 416 c 0
 387 478 412 551 430 584 c 0
 431 585 431 587 431 589 c 24
 431 592 430 596 430 597 c 0
 426 617 393 645 350 645 c 0x34
EndSplineSet
LCarets2: 2 0 0 
Ligature2: "'liga' Standard Ligatures lookup 0-1" f f j
EndChar

StartChar: T_h
Encoding: 65549 -1 247
Width: 983
VWidth: 0
Flags: W
HStem: -6 55<802 866.107> -3 27<131.428 191.016 305.438 351.422> 361 74<799.866 869.5> 615 45<129.087 310.003 403.06 629.794> 674 20G<739.5 747.5>
VStem: 59 30<521.522 551.296> 131 166<3.5 63.5> 779 75<21.7226 171.078> 828 77<222.125 388>
LayerCount: 2
Fore
SplineSet
638 530 m 2xbe80
 639 536 640 539 640 543 c 0
 640 614 630 615 512 615 c 0
 453 615 411 610 406 600 c 0
 393 572 386 540 378 500 c 2
 308 139 l 2
 301 104 297 78 297 49 c 0xbe80
 297 30 351 24 351 24 c 2
 352 24 353 22 353 20 c 0
 353 14 349 1 347 -3 c 1
 310 -1 284 2 243 2 c 0
 200 2 176 -1 133 -3 c 1
 132 -2 131 2 131 5 c 0
 131 13 134 24 138 24 c 0
 149 24 196 33 202 46 c 0
 214 74 221 104 228 142 c 2
 297 497 l 2
 304 534 310 563 310 594 c 0
 310 604 314 615 211 615 c 0
 139 615 122 599 89 526 c 0
 87 522 84 521 79 521 c 0
 71 521 62 525 59 528 c 1
 103 671 l 1
 117 667 153 660 166 660 c 0
 249 659 293 654 368 654 c 0
 443 654 484 658 556 660 c 0
 646 662 734 694 745 694 c 1
 750 694 750 682 750 678 c 9
 750 678 731 646 720 591 c 2
 669 330 l 1
 651 238 l 1
 664 263 784 435 850 435 c 0
 889 435 905 407 905 369 c 0x7e80
 905 335 899 298 891 260 c 2
 858 106 l 2
 857 102 854 79 854 74 c 0
 854 65 854 49 864 49 c 0
 885 49 931 104 934 107 c 1
 937 107 944 94 944 88 c 1
 933 69 860 -6 813 -6 c 0
 791 -6 779 16 779 46 c 0xbf
 779 54 781 78 786 99 c 2
 821 264 l 2
 823 273 828 307 828 318 c 0
 828 341 826 361 809 361 c 0
 773 361 653 236 630 119 c 0
 624 88 615 46 605 0 c 1
 595 -3 579 -4 569 -4 c 0
 559 -4 547 -3 535 0 c 1
 638 530 l 2xbe80
EndSplineSet
LCarets2: 1 0 
Ligature2: "'liga' Standard Ligatures lookup 0-1" T h
EndChar

StartChar: uni0304
Encoding: 772 772 261
Width: 0
VWidth: 957
GlyphClass: 4
Flags: W
HStem: 490 39<-368.044 -148.604>
VStem: -370 223<490.428 529>
LayerCount: 2
Fore
SplineSet
-157 490 m 1
 -367 490 l 1
 -367 490 -370 493 -370 499 c 0
 -370 506 -363 529 -357.640625 529 c 2
 -151.640625 529 l 2
 -149.640625 529 -147 526 -147 522 c 0
 -147 516.901367188 -149 499 -157 490 c 1
EndSplineSet
EndChar

StartChar: uni0305
Encoding: 773 773 262
Width: 0
GlyphClass: 4
Flags: W
HStem: 739 63<138.455 681.265>
LayerCount: 2
Fore
SplineSet
129.408 749 m 0
 129.408 751 142.408 802 152.408 802 c 2
 694.408 802 l 2
 696.408 802 699.408 801 697.408 793 c 0
 694.408 775 683.408 750 681.408 746 c 0
 678.408 740 672.408 739 672.408 739 c 1
 133.408 739 l 1
 133.408 739 127.408 739 129.408 749 c 0
EndSplineSet
EndChar

StartChar: uni0306
Encoding: 774 774 263
Width: 0
VWidth: 994
GlyphClass: 4
Flags: W
HStem: 490 46<-294.141 -192.562>
VStem: -334.816 23<567.811 605.105> -149.816 17.8164<590.732 607.038>
LayerCount: 2
Fore
SplineSet
-132 600 m 1
 -132 597 -133.134765625 591.880859375 -133.81640625 590 c 0
 -153 537 -203.81640625 490 -253.81640625 490 c 0
 -303.81640625 490 -337.81640625 534 -334.81640625 591 c 0
 -334.81640625 593 -334.18359375 598 -334 599 c 1
 -331.18359375 604 -319 613 -311.81640625 608 c 1
 -310.81640625 565 -283.81640625 536 -244.81640625 536 c 0
 -205.81640625 536 -167.81640625 565 -149.81640625 608 c 1
 -146 612 -134 606 -132 600 c 1
EndSplineSet
EndChar

StartChar: uni0307
Encoding: 775 775 264
Width: 0
VWidth: 1019
GlyphClass: 4
Flags: W
HStem: 490 100<-284.711 -218.148>
VStem: -298.088 93<502.854 576.333>
LayerCount: 2
Fore
SplineSet
-298.087890625 540 m 0
 -293.087890625 568 -267.087890625 590 -241.087890625 590 c 0
 -215.087890625 590 -200.087890625 568 -205.087890625 540 c 0
 -210.087890625 512 -235.087890625 490 -261.087890625 490 c 0
 -287.087890625 490 -303.087890625 512 -298.087890625 540 c 0
EndSplineSet
EndChar

StartChar: uni0308
Encoding: 776 776 265
Width: 0
VWidth: 1043
GlyphClass: 4
Flags: W
HStem: 490 92<-370.376 -306.202 -200.376 -136.202>
VStem: -382.123 87<500.924 569.908> -212.123 87<500.924 569.455>
LayerCount: 2
Fore
SplineSet
-158.123046875 582 m 27
 -135.123046875 582 -120.123046875 560 -125.123046875 535 c 24
 -130.123046875 510 -154.123046875 490 -177.123046875 490 c 27
 -200.123046875 490 -217.123046875 511 -212.123046875 536 c 24
 -207.123046875 561 -181.123046875 582 -158.123046875 582 c 27
-329.123046875 582 m 27
 -306.123046875 582 -290.123046875 560 -295.123046875 535 c 24
 -300.123046875 510 -324.123046875 490 -347.123046875 490 c 27
 -370.123046875 490 -387.123046875 511 -382.123046875 536 c 24
 -377.123046875 561 -352.123046875 582 -329.123046875 582 c 27
EndSplineSet
EndChar

StartChar: hookabovecomb
Encoding: 777 777 266
Width: 0
GlyphClass: 4
Flags: W
HStem: 487 58<-308.433 -278.013> 607 35<-306.016 -243.858>
VStem: -310 32<491.611 527.486> -241 45<551.173 604.214>
LayerCount: 2
Fore
SplineSet
-278 607 m 0
 -297 607 -314 596 -318 590 c 1
 -321 591 -324 596 -324 601 c 0
 -324 617 -288 642 -259 642 c 0
 -222 642 -196 621 -196 590 c 0
 -196 551 -243 536 -264 527 c 0
 -276.33203125 521.71484375 -278 516 -278 510 c 0
 -278 504 -274.732421875 498 -272.732421875 495 c 1
 -276.836914062 491 -287 487 -292 487 c 1
 -297 489 -310 498 -310 515 c 0
 -310 532 -291 538 -276 545 c 0
 -256 554 -241 561.737304688 -241 579 c 0
 -241 597 -261 607 -278 607 c 0
EndSplineSet
EndChar

StartChar: uni030A
Encoding: 778 778 267
Width: 0
VWidth: 1012
GlyphClass: 4
Flags: W
HStem: 490 34<-293.006 -221.229> 635 34<-278.167 -205.294>
VStem: -331.073 163
LayerCount: 2
Fore
SplineSet
-300.073242188 580 m 0
 -306.073242188 549 -288.073242188 524 -260.073242188 524 c 0
 -232.073242188 524 -204.073242188 549 -198.073242188 580 c 0
 -192.073242188 611 -210.073242188 635 -238.073242188 635 c 0
 -266.073242188 635 -294.073242188 611 -300.073242188 580 c 0
-331.073242188 580 m 0
 -321.073242188 629 -276.073242188 669 -231.073242188 669 c 0
 -186.073242188 669 -158.073242188 629 -168.073242188 580 c 0
 -178.073242188 531 -221.073242188 490 -266.073242188 490 c 0
 -311.073242188 490 -341.073242188 531 -331.073242188 580 c 0
EndSplineSet
EndChar

StartChar: uni030C
Encoding: 780 780 269
Width: 0
GlyphClass: 4
Flags: W
HStem: 493 135
VStem: -347 205
LayerCount: 2
Fore
SplineSet
-270 493 m 0
 -274 493 -276.899414062 497.051757812 -279 501 c 0
 -304 548 -318 572 -347 617 c 1
 -346 623 -339 628 -334 628 c 1
 -302 601 -256 564 -256 564 c 25
 -256 564 -190 603 -151 628 c 1
 -146 628 -141 623 -142 617 c 1
 -189 572 -214 548 -258 501 c 0
 -261.866210938 496.870117188 -266 493 -270 493 c 0
EndSplineSet
EndChar

StartChar: uni0312
Encoding: 786 786 270
Width: 0
GlyphClass: 4
Flags: W
HStem: 458 180
VStem: 111 99<477.748 543.702>
LayerCount: 2
Fore
SplineSet
210 513 m 0
 210 481 163 458 124 458 c 1
 111 468 111 491 111 499 c 0
 111 554 172 618 205 636 c 1
 206 637 209 638 213 638 c 0
 225 638 231 634 231 631 c 0
 231 625 188 611 180 570 c 0
 174 540 210 539 210 513 c 0
EndSplineSet
EndChar

StartChar: uni0315
Encoding: 789 789 271
Width: 0
GlyphClass: 4
Flags: W
HStem: 465 187
VStem: 173 68<546.578 633.614>
LayerCount: 2
Fore
SplineSet
162 592 m 0
 162 630 196 652 236 652 c 1
 240 645 241 636 241 624 c 0
 241 614 240 603 238 590 c 0
 229 545 169 480 144 466 c 0
 143 465 139 465 137 465 c 0
 132 465 127 472 127 477 c 0
 127 481 173 504 173 551 c 0
 173 562 162 574 162 592 c 0
EndSplineSet
EndChar

StartChar: dotbelowcomb
Encoding: 803 803 272
Width: 0
GlyphClass: 4
Flags: W
HStem: -132 100<-291.939 -225.377>
VStem: -305 93<-118.333 -44.854>
LayerCount: 2
Fore
SplineSet
-305 -82 m 0
 -300 -54 -275 -32 -249 -32 c 0
 -223 -32 -207 -54 -212 -82 c 0
 -217 -110 -243 -132 -269 -132 c 0
 -295 -132 -310 -110 -305 -82 c 0
EndSplineSet
EndChar

StartChar: uni0326
Encoding: 806 806 273
Width: 0
GlyphClass: 4
Flags: W
HStem: -193 180
VStem: -302 99<-98.7024 -32.7479>
LayerCount: 2
Fore
SplineSet
-302 -68 m 0
 -302 -36 -255 -13 -216 -13 c 1
 -203 -23 -203 -46 -203 -54 c 0
 -203 -109 -264 -173 -297 -191 c 1
 -298 -192 -301 -193 -305 -193 c 0
 -317 -193 -323 -189 -323 -186 c 0
 -323 -180 -280 -166 -272 -125 c 0
 -266 -95 -302 -94 -302 -68 c 0
EndSplineSet
EndChar

StartChar: uni0327
Encoding: 807 807 274
Width: 0
GlyphClass: 4
Flags: W
HStem: -152 24<-303.269 -242.392> -61 34<-246.556 -229.571> -24 20G<-249.556 -225.556>
VStem: -323.556 132
LayerCount: 2
Fore
SplineSet
-246.555664062 -27 m 1
 -223.555664062 -27 l 2
 -199.555664062 -27 -186.555664062 -50 -191.555664062 -76 c 0
 -200.555664062 -123 -245.555664062 -152 -293.555664062 -152 c 0
 -304.555664062 -152 -318.555664062 -147 -323.555664062 -143 c 1
 -323.555664062 -138 -324.555664062 -135 -323.555664062 -129 c 0
 -322.555664062 -122 -314.555664062 -115 -308.555664062 -115 c 0
 -297.555664062 -115 -291.555664062 -128 -276.555664062 -128 c 0
 -250.555664062 -128 -232.555664062 -112 -229.555664062 -95 c 0
 -224.555664062 -71 -239.555664062 -61 -251.555664062 -61 c 0
 -261.555664062 -61 -267.555664062 -64 -277.555664062 -68 c 0
 -279.555664062 -68 -287.555664062 -59 -284.555664062 -55 c 0
 -273.555664062 -40 -254.555664062 -18 -244.555664062 -4 c 1
 -225.555664062 -4 l 1
 -246.555664062 -27 l 1
EndSplineSet
EndChar

StartChar: uni0328
Encoding: 808 808 275
Width: 0
GlyphClass: 4
Flags: W
HStem: -218 59<-226.391 -140.308>
LayerCount: 2
Fore
SplineSet
-72.3935546875 42 m 3
 -56.3935546875 42 -35.3935546875 37 -48.3935546875 25 c 0
 -74.3935546875 3 -184.390625 -52 -196.390625 -116 c 0
 -199.390625 -131 -198.390625 -159 -166.390625 -159 c 3
 -119.393554688 -159 -89.3935546875 -121 -83.3935546875 -121 c 3
 -82.3935546875 -121 -79.3935546875 -126 -81.3935546875 -134 c 0
 -82.3935546875 -139 -85.3935546875 -147 -89.3935546875 -151 c 0
 -115.393554688 -180 -158.390625 -218 -200.390625 -218 c 0
 -252.390625 -218 -256.390625 -168 -251.390625 -141 c 0
 -238.390625 -75 -99.3935546875 42 -72.3935546875 42 c 3
EndSplineSet
EndChar

StartChar: gravecomb.cap
Encoding: 65550 -1 284
Width: 222
GlyphClass: 4
Flags: W
HStem: 694 108
VStem: 164 181
LayerCount: 2
Fore
SplineSet
339 694 m 0
 324 694 164 755 164 780 c 0
 164 791 183 802 212 802 c 0
 219 802 236 799 239 797 c 0
 264 781 345 711 345 704 c 0
 345 701 340 694 339 694 c 0
EndSplineSet
EndChar

StartChar: acutecomb.cap
Encoding: 65551 -1 285
Width: 225
GlyphClass: 4
Flags: W
HStem: 694 108
VStem: 150 181
LayerCount: 2
Fore
SplineSet
156 694 m 0
 155 694 150 701 150 704 c 0
 150 711 231 781 256 797 c 0
 259 799 276 802 283 802 c 0
 312 802 331 791 331 780 c 0
 331 755 171 694 156 694 c 0
EndSplineSet
EndChar

StartChar: uni0302.cap
Encoding: 65552 -1 286
Width: 295
GlyphClass: 4
Flags: W
HStem: 711 125
VStem: 173 234
LayerCount: 2
Fore
SplineSet
319 836 m 0
 323 836 326.646 832.802 329 829 c 0
 355 787 373 762 407 721 c 1
 406 715 398 711 392 711 c 1
 355 736 303 770 303 770 c 25
 303 770 231 735 183 711 c 1
 177 711 172 715 173 721 c 1
 229 763 257 786 305 829 c 0
 309.769 833.272 315 836 319 836 c 0
EndSplineSet
EndChar

StartChar: uni030A.cap
Encoding: 65553 -1 287
Width: 385
GlyphClass: 4
Flags: W
HStem: 502 34<239.638 311.476> 647 34<254.379 327.4>
VStem: 200.882 164
LayerCount: 2
Fore
SplineSet
231.882 592 m 0
 225.882 561 244.882 536 272.882 536 c 0
 300.882 536 327.882 561 333.882 592 c 0
 339.882 623 322.882 647 294.882 647 c 0
 266.882 647 237.882 623 231.882 592 c 0
200.882 592 m 0
 210.882 641 256.882 681 301.882 681 c 0
 346.882 681 374.882 641 364.882 592 c 0
 354.882 543 311.882 502 266.882 502 c 0
 221.882 502 190.882 543 200.882 592 c 0
EndSplineSet
EndChar

StartChar: tildecomb.cap
Encoding: 65554 -1 288
Width: 284
GlyphClass: 4
Flags: W
HStem: 725 42<336.703 441.229> 763 42<206.771 311.297>
VStem: 173 301
LayerCount: 2
Fore
SplineSet
270 805 m 0x60
 294 805 310 803 331 791 c 0
 352 779 372 767 403 767 c 0xa0
 437 767 462 798 468 805 c 1x60
 471 804 474 802 474 795 c 0
 474 781 465 767 456 758 c 0
 431 734 407 725 378 725 c 0xa0
 354 725 338 727 317 739 c 0
 296 751 276 763 245 763 c 0x60
 211 763 186 732 180 725 c 1xa0
 177 726 173 728 173 735 c 0
 173 749 183 763 192 772 c 0
 217 796 241 805 270 805 c 0x60
EndSplineSet
EndChar

StartChar: uni0304.cap
Encoding: 65555 -1 289
Width: 352
GlyphClass: 4
Flags: W
HStem: 557 39<169.956 415.396>
VStem: 168 249<557.428 596>
LayerCount: 2
Fore
SplineSet
407 557 m 1
 171 557 l 1
 171 557 168 560 168 566 c 0
 168 573 175 596 180.359 596 c 2
 412.359 596 l 2
 414.359 596 417 593 417 589 c 0
 417 583.901 415 566 407 557 c 1
EndSplineSet
EndChar

StartChar: uni0306.cap
Encoding: 65556 -1 290
Width: 231
GlyphClass: 4
Flags: W
HStem: 525 48<169.284 279.468>
VStem: 133.021 23<598.719 630.925> 317.021 19<615.095 631.975>
LayerCount: 2
Fore
SplineSet
225.021 573 m 0
 264.021 573 301.021 594 317.021 631 c 0
 317.021 633 320.021 633 322.021 633 c 0
 328.021 633 337.021 626 336.021 622 c 0
 336.021 621 334.021 617 334.021 615 c 0
 317.021 569 266.021 525 216.021 525 c 0
 166.021 525 132.021 566 133.021 616 c 0
 133.021 618 133.021 621 133.021 622 c 0
 134.021 626 146.021 633 152.021 633 c 0
 154.021 633 156.021 633 156.021 631 c 0
 158.021 594 186.021 573 225.021 573 c 0
EndSplineSet
EndChar

StartChar: uni0327.cap
Encoding: 65557 -1 291
Width: 402
GlyphClass: 4
Flags: W
HStem: -174 28<124.697 195.832> -67 40<191.444 210.734> -20 20G<187.444 216.444>
VStem: 100.444 156
LayerCount: 2
Fore
SplineSet
191.444 -27 m 1
 219.444 -27 l 2
 248.444 -27 262.444 -54 256.444 -85 c 0
 245.444 -140 192.444 -174 135.444 -174 c 0
 122.444 -174 106.444 -169 100.444 -164 c 1
 100.444 -158 99.4443 -154 100.444 -147 c 0
 102.444 -139 111.444 -131 118.444 -131 c 0
 131.444 -131 138.444 -146 156.444 -146 c 0
 187.444 -146 207.444 -127 211.444 -107 c 0
 216.444 -79 199.444 -67 185.444 -67 c 0
 173.444 -67 166.444 -70 154.444 -75 c 0
 152.444 -75 143.444 -65 146.444 -60 c 0
 160.444 -42 181.444 -17 193.444 0 c 1
 216.444 0 l 1
 191.444 -27 l 1
EndSplineSet
EndChar

StartChar: uni0323.cap
Encoding: 65559 -1 293
Width: 238
GlyphClass: 4
Flags: W
HStem: -136 100<81.9726 148.851>
VStem: 68.9121 92.9999<-123.146 -48.854>
LayerCount: 2
Fore
SplineSet
68.9121 -86 m 0
 73.9121 -58 98.9121 -36 124.912 -36 c 0
 150.912 -36 166.912 -58 161.912 -86 c 0
 156.912 -114 131.912 -136 105.912 -136 c 0
 79.9121 -136 63.9121 -114 68.9121 -86 c 0
EndSplineSet
EndChar

StartChar: uni0305.cap
Encoding: 65560 -1 294
Width: 526
GlyphClass: 4
Flags: W
HStem: 739 63<139.455 682.265>
LayerCount: 2
Fore
SplineSet
130.408 749 m 0
 130.408 751 143.408 802 153.408 802 c 2
 695.408 802 l 2
 697.408 802 700.408 801 698.408 793 c 0
 695.408 775 684.408 750 682.408 746 c 0
 679.408 740 673.408 739 673.408 739 c 1
 134.408 739 l 1
 134.408 739 128.408 739 130.408 749 c 0
EndSplineSet
EndChar

StartChar: hookabovecomb.cap
Encoding: 65561 -1 295
Width: 164
GlyphClass: 4
Flags: W
HStem: 481 62<143.547 175.781> 596 36<138.084 210.094>
VStem: 140 36<486.303 523.232> 212 47<548.303 593.127>
LayerCount: 2
Fore
SplineSet
170 596 m 0
 149 596 130 585 125 578 c 1
 122 579 118 583 118 589 c 0
 118 606 158 632 191 632 c 0
 233 632 259 607 259 584 c 0
 259 548 219 532 196 524 c 0
 185 520 176 516 176 509 c 0
 176 502 180 493 182 490 c 1
 177 485 167 481 161 481 c 1
 155 483 140 492 140 511 c 0
 140 525 161 536 178 543 c 0
 196 550 212 560 212 571 c 0
 212 590 189 596 170 596 c 0
EndSplineSet
EndChar

StartChar: uni030B.cap
Encoding: 65562 -1 296
Width: 359
GlyphClass: 4
Flags: W
HStem: 694 108<300 312>
VStem: 150 326
LayerCount: 2
Fore
SplineSet
301 694 m 0
 300 694 295 701 295 704 c 0
 295 711 376 781 401 797 c 0
 404 799 421 802 428 802 c 0
 457 802 476 791 476 780 c 0
 476 755 316 694 301 694 c 0
156 694 m 0
 155 694 150 701 150 704 c 0
 150 711 231 781 256 797 c 0
 259 799 276 802 283 802 c 0
 312 802 331 791 331 780 c 0
 331 755 171 694 156 694 c 0
EndSplineSet
EndChar

StartChar: uni0308.cap
Encoding: 65563 -1 297
Width: 312
GlyphClass: 4
Flags: W
HStem: 712 100<186.017 252.579 354.017 420.895>
VStem: 172.956 93<725.667 799.146> 340.956 93<724.854 799.146>
LayerCount: 2
Fore
SplineSet
340.956 762 m 0
 345.956 790 370.956 812 396.956 812 c 0
 422.956 812 438.956 790 433.956 762 c 0
 428.956 734 403.956 712 377.956 712 c 0
 351.956 712 335.956 734 340.956 762 c 0
172.956 762 m 0
 177.956 790 202.956 812 228.956 812 c 0
 254.956 812 270.956 790 265.956 762 c 0
 260.956 734 234.956 712 208.956 712 c 0
 182.956 712 167.956 734 172.956 762 c 0
EndSplineSet
EndChar

StartChar: uni0308.narrow
Encoding: 65564 -1 298
Width: 269
VWidth: 0
GlyphClass: 4
Flags: W
HStem: 477 100<144.312 209.228 277.312 342.228>
VStem: 134 88<488.666 567.191> 267 88<488.666 567.191>
LayerCount: 2
Fore
SplineSet
318 577 m 27
 339 577 355 558 355 537 c 27
 355 506 332 477 301 477 c 27
 279 477 267 499 267 521 c 27
 267 551 288 577 318 577 c 27
185 577 m 27
 206 577 222 558 222 537 c 27
 222 506 199 477 168 477 c 27
 146 477 134 499 134 521 c 27
 134 551 155 577 185 577 c 27
EndSplineSet
EndChar

StartChar: uni030C.cap
Encoding: 65565 -1 299
Width: 240
GlyphClass: 4
Flags: W
HStem: 711 125
VStem: 173 234
LayerCount: 2
Fore
SplineSet
261 711 m 0
 256 711 253 714 251 718 c 0
 225 763 206 784 173 826 c 1
 174 832 182 836 188 836 c 1
 225 811 277 777 277 777 c 25
 277 777 352 813 397 836 c 1
 403 836 408 832 407 826 c 1
 353 784 324 763 275 718 c 0
 270 714 266 711 261 711 c 0
EndSplineSet
EndChar

StartChar: Aogonek
Encoding: 260 260 302
Width: 586
Flags: W
HStem: -230 59<288.532 363.616> -3 29<-52.374 2.0531 79.0786 133.829 503.426 542.828> 256 33<192.219 367.383> 643 20G<381.532 387.032>
VStem: 252.532 54<-191.5 -113.016>
LayerCount: 2
Fore
SplineSet
487.532 60 m 0
 492.532 36 536.531 26 543.531 26 c 1
 546.531 19 542.531 0 540.531 -3 c 1
 503.532 -1 528.531 0 492.532 0 c 0
 383.532 0 306.532 -104 306.532 -139 c 0
 306.532 -154 312.532 -171 337.532 -171 c 0
 384.532 -171 414.532 -133 420.532 -133 c 0
 428.532 -133 417.532 -160 414.532 -163 c 0
 388.532 -192 345.532 -230 303.532 -230 c 0
 273.532 -230 252.532 -205 252.532 -178 c 0
 252.532 -123 315.532 -56 360.532 -11 c 0
 381.532 10 397.532 15 397.532 53 c 0
 397.532 65 396.338 97.0506 395 106 c 2
 372.57 256 l 1
 174.011 256 l 1
 140.035 194.37 111.453 142.19 102.532 125 c 0
 84.4028 90.0669 74 65 74 50 c 0
 74 29 128.532 26 135.532 26 c 1
 137.532 23 134.532 3 131.532 -3 c 1
 94.5322 -1 83.5322 2 42.5322 2 c 0
 -0.467773 2 -12.4678 -1 -55.4678 -3 c 1
 -57.4678 0 -53.4678 19 -49.4678 26 c 1
 -38.4678 26 -4.59237 32.1161 7.53223 45 c 0
 32 71 49.4767 103.031 69.5322 139 c 2
 345.532 634 l 2
 354.532 650 377.532 663 385.532 663 c 0
 388.532 663 390 661 390.532 660 c 1
 476.572 126 l 2
 478.31 115.211 483.532 80 487.532 60 c 0
192.219 289 m 1
 367.383 289 l 1
 328.532 535 l 1
 192.219 289 l 1
EndSplineSet
EndChar

StartChar: aogonek
Encoding: 261 261 303
Width: 449
Flags: W
HStem: -230 59<194 269.084> -5 58<80.9231 161.03> 395 40<221.739 322.5>
VStem: 19 74<65.1934 221.895> 158 54<-193.5 -113.684> 243 75<21.1457 164.743>
LayerCount: 2
Fore
SplineSet
259 395 m 0
 182 395 93 266 93 151 c 0
 93 89 109 53 144 53 c 0
 194 53 265 178 284 274 c 2
 305 380 l 1
 296 390 272 395 259 395 c 0
408 88 m 1
 402 77 372 47 345 25 c 0
 308 -5 212 -88 212 -139 c 0
 212 -154 218 -171 243 -171 c 0
 290 -171 320 -133 326 -133 c 0
 334 -133 323 -160 320 -163 c 0
 294 -192 251 -230 209 -230 c 0
 179 -230 158 -207 158 -180 c 0
 158 -129 219 -51 266 -4 c 1
 251 2 243 22 243 46 c 0
 243 54 246 78 250 99 c 0
 253 117 254 123 255 130 c 1
 235 94 166 -5 108 -5 c 0
 54 -5 19 43 19 113 c 0
 19 287 183 435 305 435 c 0
 340 435 364 429 383 422 c 1
 322 106 l 2
 321 102 318 79 318 74 c 0
 318 65 318 49 328 49 c 0
 349 49 395 104 398 107 c 1
 401 107 408 94 408 88 c 1
EndSplineSet
Substitution2: "'smcp' Lowercase to Small Capitals in Latin lookup 3-1" aogonek.sc
EndChar

StartChar: Eogonek
Encoding: 280 280 319
Width: 554
Flags: W
HStem: -230 59<231.633 306.717> -3 33<-2.39777 69.4548 158.472 315.089> 316 33<214.58 369.546> 630 27<120.158 178.633 269.882 468.353>
VStem: 195.633 54<-193.5 -110.914> 383 29<230.036 271.632> 505 29<523.182 590.783>
LayerCount: 2
Fore
SplineSet
422 -4 m 1
 326.633 -4 249.633 -89 249.633 -139 c 0
 249.633 -154 255.633 -171 280.633 -171 c 0
 327.633 -171 357.633 -133 363.633 -133 c 0
 371.633 -133 360.633 -160 357.633 -163 c 0
 331.633 -192 288.633 -230 246.633 -230 c 0
 216.633 -230 195.633 -207 195.633 -180 c 0
 195.633 -127 259.633 -30 316.633 -3 c 1
 254.633 -2 182.633 0 105.633 0 c 0
 61.6328 0 30.6328 -3 -5.36719 -3 c 1
 -9.36719 2 -5.36719 21 -0.367188 26 c 1
 10.6328 26 62.6328 31 67.6328 42 c 0
 75.6328 58 80.6328 86 86.6328 116 c 2
 169.633 543 l 2
 175.633 573 180.633 601 178.633 617 c 0
 177.633 628 128.633 633 117.633 633 c 1
 114.633 638 117.633 657 123.633 662 c 1
 161.633 660 195.633 657 233 657 c 0
 320 657 432 664 533 664 c 1
 530 614 534 573 534 528 c 1
 531 525 523 523 516 523 c 0
 509 523 505 525 505 530 c 0
 500 610 466 630 417 630 c 2
 337 630 l 2
 326 630 276 629 271 619 c 0
 263 603 256 574 251 547 c 2
 214 355 l 2
 213 350 233 349 253 349 c 2
 302 349 l 2
 391 349 389 355 418 421 c 0
 420 426 427 428 434 428 c 0
 441 428 446 426 448 423 c 1
 412 234 l 1
 410 232 403 230 396 230 c 0
 389 230 384 233 383 238 c 0
 380 295 377 302 370 308 c 0
 361 315 308 316 273 316 c 0
 247 316 205.772 315.996 204 307 c 2
 165 109 l 2
 162 94 153 45 158 40 c 0
 168 30 183 30 222 30 c 2
 266 30 l 2
 317 30 358 40 390 61 c 0
 417 79 443 109 468 162 c 0
 470 166 476 168 483 168 c 0
 492 168 503 165 505 162 c 1
 477 108 437 40 422 -4 c 1
EndSplineSet
EndChar

StartChar: eogonek
Encoding: 281 281 320
Width: 363
Flags: W
HStem: -230 59<55.0078 130.092> -6 59<123.615 141.008> 193 25<105.008 147.903> 394 41<196.767 299.508>
VStem: 20.0078 53<-170.24 -123.894> 23.0078 78.0002<76.3633 217.001 218 241.157> 266.008 74<313.223 388.912>
LayerCount: 2
Fore
SplineSet
105.008 218 m 1xf2
 144.008 218 266.008 280 266.008 354 c 0
 266.008 381 243.008 394 224.008 394 c 0
 155.008 394 110.008 269 105.008 218 c 1xf2
20.0078 -180 m 0xfa
 19.0078 -131 114.008 -30 141.008 -6 c 1
 138.008 -6 136.008 -6 133.008 -6 c 0
 62.0078 -6 23.0078 46 23.0078 139 c 0xf6
 23.0078 287 159.008 435 274.008 435 c 0
 325.008 435 340.008 403 340.008 373 c 0
 340.008 277 165.008 193 103.008 193 c 1
 102.008 190 101.008 166 101.008 161 c 0
 101.008 100 120.008 53 170.008 53 c 0
 215.008 53 270.008 119 273.008 122 c 1
 276.008 122 285.008 108 285.008 102 c 1
 280.008 93 266.008 76 244.008 54 c 0
 189.008 0 73.0078 -99 73.0078 -139 c 0
 73.0078 -154 79.0078 -171 104.008 -171 c 0
 151.008 -171 181.008 -133 187.008 -133 c 0
 195.008 -133 184.008 -160 181.008 -163 c 0
 155.008 -192 112.008 -230 70.0078 -230 c 0
 40.0078 -230 20.0078 -207 20.0078 -180 c 0xfa
EndSplineSet
Substitution2: "'smcp' Lowercase to Small Capitals in Latin lookup 3-1" eogonek.sc
EndChar

StartChar: Iogonek
Encoding: 302 302 339
Width: 313
Flags: W
HStem: -230 59<21 96.0836> -3 29<-4.82571 65.9961 158.304 214.525> 633 29<118.716 177.552 269.997 340.019>
VStem: -14 53<-193.5 -106.025>
LayerCount: 2
Fore
SplineSet
218 26 m 1
 220 22 214 1 212 -3 c 1
 196 -3 180 -6 165 -10 c 0
 93 -31 39 -97 39 -139 c 0
 39 -154 45 -171 70 -171 c 0
 117 -171 147 -133 153 -133 c 0
 161 -133 150 -160 147 -163 c 0
 121 -192 78 -230 36 -230 c 0
 6 -230 -14 -207 -14 -180 c 0
 -14 -118 51 -25 108 2 c 1
 72 2 33 -1 -6 -3 c 1
 -10 2 -6 21 -1 26 c 1
 10 26 62 31 67 42 c 0
 75 58 80 86 86 116 c 2
 169 543 l 2
 175 573 180 601 178 617 c 0
 177 628 128 633 117 633 c 1
 114 638 117 657 123 662 c 1
 161 660 196 657 232 657 c 0
 268 657 303 660 342 662 c 1
 346 657 341 638 336 633 c 1
 325 633 274 628 269 617 c 0
 261 601 256 573 250 543 c 2
 167 116 l 2
 161 86 155 58 157 42 c 0
 158 31 207 26 218 26 c 1
EndSplineSet
EndChar

StartChar: iogonek
Encoding: 303 303 340
Width: 263
Flags: W
HStem: -230 59<40 115.084> 380 55<97.7782 161.5> 546 100<127.035 191.228>
VStem: 4 54<-193.5 -108.84> 115 75<302.317 383> 116 88<557.783 635.875>
LayerCount: 2
Fore
SplineSet
168 646 m 0xf4
 189 646 204 627 204 606 c 0
 204 575 181 546 150 546 c 0
 128 546 116 567 116 589 c 0
 116 619 138 646 168 646 c 0xf4
218 88 m 1
 213 79 190 55 169 36 c 0
 116 -12 58 -88 58 -139 c 0
 58 -154 64 -171 89 -171 c 0
 136 -171 166 -133 172 -133 c 0
 180 -133 169 -160 166 -163 c 0
 140 -192 97 -230 55 -230 c 0
 25 -230 4 -207 4 -180 c 0
 4 -130 61 -43 93 -6 c 1
 91 -6 89 -6 87 -6 c 0
 66 -6 53 16 53 46 c 0
 53 54 56 78 60 99 c 2
 111 323 l 2
 112 329 115 350 115 355 c 0
 115 364 115 380 105 380 c 0
 84 380 38 325 35 322 c 1
 32 322 25 335 25 341 c 1
 36 360 104 435 151 435 c 0
 172 435 190 413 190 383 c 0xf8
 190 375 187 351 183 330 c 2
 132 106 l 2
 130 96 128 79 128 74 c 0
 128 65 128 49 138 49 c 0
 159 49 205 104 208 107 c 1
 211 107 218 94 218 88 c 1
EndSplineSet
Substitution2: "'smcp' Lowercase to Small Capitals in Latin lookup 3-1" iogonek.sc
EndChar

StartChar: Uogonek
Encoding: 370 370 388
Width: 682
Flags: W
HStem: -230 59<252.705 327.789> -4 58<231.007 376.404> 633 29<106.814 165.257 256.702 326.724 533.114 590.164 664.088 737.719>
VStem: 216.705 54<-188.5 -113.035>
LayerCount: 2
Fore
SplineSet
270.705 -139 m 0
 270.705 -154 276.705 -171 301.705 -171 c 0
 348.705 -171 378.705 -133 384.705 -133 c 0
 392.705 -133 381.705 -160 378.705 -163 c 0
 352.705 -192 309.705 -230 267.705 -230 c 0
 237.705 -230 216.705 -202 216.705 -175 c 0
 216.705 -124 285.705 -41 339.705 0 c 1
 321.705 -3 302.705 -4 283.705 -4 c 0
 210.497 -4 153.851 23.9834 121.7 74 c 0
 93.6855 117.583 84.2705 177.895 98.7051 251 c 2
 155.705 543 l 2
 161.705 573 167.705 601 165.705 617 c 0
 164.705 628 115.705 633 104.705 633 c 1
 101.705 638 104.705 657 110.705 662 c 1
 148.705 660 182.705 657 218.705 657 c 0
 254.705 657 289.705 660 328.705 662 c 1
 332.705 657 327.705 638 322.705 633 c 1
 311.705 633 260.705 628 255.705 617 c 0
 247.705 601 242.705 573 236.705 543 c 2
 188.705 296 l 2
 173.851 219.402 175.805 161.769 193.368 122 c 0
 213.639 76.1025 254.699 54 314.705 54 c 0
 410.705 54 501.705 102 537.705 274 c 1
 590.705 545 l 2
 597.705 581 600.705 598 594.705 614 c 0
 590.705 624 546.705 634 531.705 634 c 1
 528.705 641 532.705 657 535.705 663 c 1
 572.705 661 596.705 658 637.705 658 c 0
 680.705 658 696.705 661 739.705 663 c 1
 741.705 658 741.705 645 734.705 634 c 1
 723.705 634 666.705 626 657.705 614 c 0
 646.705 599 642.705 584 635.705 546 c 2
 582.705 276 l 2
 559.705 161 511.705 87 448.705 43 c 0
 365.705 -15 270.705 -91 270.705 -139 c 0
EndSplineSet
EndChar

StartChar: uogonek
Encoding: 371 371 389
Width: 490
Flags: W
HStem: -230 59<235 310.084> -6 74<89.5 164.733> 380 55<92.7782 156.5>
VStem: 59 77<47 206.875> 110 75<257.922 406.545> 199 54<-193.5 -113.684>
LayerCount: 2
Fore
SplineSet
199 -180 m 0xf4
 199 -129 260 -51 307 -4 c 1
 292 2 284 22 284 46 c 0
 285 54 288 78 292 99 c 0
 298 133 303 152 310 186 c 1
 284 130 175 -6 109 -6 c 0
 70 -6 59 28 59 66 c 0xf4
 59 94 67 140 73 169 c 2
 106 323 l 2
 107 329 110 350 110 355 c 0
 110 364 110 380 100 380 c 0
 79 380 33 325 30 322 c 1
 27 322 20 335 20 341 c 1
 31 360 99 435 146 435 c 0
 167 435 185 413 185 383 c 0xec
 185 375 182 351 178 330 c 2
 143 165 l 2
 141 156 136 122 136 111 c 0
 136 88 138 68 155 68 c 0
 191 68 310 194 334 319 c 0
 342 362 347 386 356 429 c 1
 366 432 377 433 387 433 c 0
 397 433 414 432 426 429 c 1
 364 106 l 2
 362 96 360 79 359 74 c 0
 359 65 359 49 369 49 c 0
 390 49 436 104 439 107 c 1
 442 107 449 94 449 88 c 1
 443 77 413 47 386 25 c 0
 349 -5 253 -88 253 -139 c 0
 253 -154 259 -171 284 -171 c 0
 331 -171 361 -133 367 -133 c 0
 375 -133 364 -160 361 -163 c 0
 335 -192 292 -230 250 -230 c 0
 220 -230 199 -207 199 -180 c 0xf4
EndSplineSet
Substitution2: "'smcp' Lowercase to Small Capitals in Latin lookup 3-1" uogonek.sc
EndChar

StartChar: Hbar
Encoding: 294 294 402
Width: 686
Flags: W
HStem: -3 29<-3.19338 67.6284 159.081 217.916 369.807 440.629 532.081 590.916> 316 40<215.284 499.509> 472 34<106.727 668.069> 633 29<120.349 179.184 271.63 341.651 493.349 552.184 644.63 714.651>
LayerCount: 2
Fore
SplineSet
116 506 m 1
 141 506 656 506 668 506 c 0
 671 506 672 502 671 498 c 0
 670 493 665 480 660 472 c 1
 635 472 119 472 107 472 c 0
 104 472 104 479 105 483 c 0
 106 488 109 498 116 506 c 1
EndSplineSet
Refer: 39 72 N 1 0 0 1 0.999523 0 2
EndChar

StartChar: hbar
Encoding: 295 295 403
Width: 470
Flags: W
HStem: -6 55<289 353.107> 361 74<286.866 356.5> 531 34<79.7275 318.069> 631 21<78.307 134.742> 665 20<203 216.5>
VStem: 139 81<548.203 666.737> 266 75<21.7226 171.078> 315 77<222.125 388>
LayerCount: 2
Fore
SplineSet
89 565 m 1xfc
 114 565 306 565 318 565 c 0
 321 565 322 561 321 557 c 0
 320 552 315 539 310 531 c 1
 285 531 92 531 80 531 c 0
 77 531 77 538 78 542 c 0
 79 547 82 557 89 565 c 1xfc
EndSplineSet
Refer: 71 104 N 1 0 0 1 0 0 2
Substitution2: "'smcp' Lowercase to Small Capitals in Latin lookup 3-1" hbar.sc
EndChar

StartChar: Lslash
Encoding: 321 321 404
Width: 529
Flags: W
HStem: 0 30<-1.6309 68.5591 157.566 355.368> 633 29<119.362 179.005 270.451 340.472>
LayerCount: 2
Fore
SplineSet
64.999 207 m 2
 437.999 447 l 1
 441.999 442 451.999 419 447.999 416 c 2
 74.999 178 l 1
 70.999 184 60.999 204 64.999 207 c 2
EndSplineSet
Refer: 43 76 N 1 0 0 1 -0.999672 0 2
EndChar

StartChar: lslash
Encoding: 322 322 405
Width: 245
Flags: W
HStem: -6 55<60 124.107> 631 21<82.307 138.742> 665 20<207 220.5>
VStem: 37 75<21.7226 176.133> 143 81<545.078 666.737>
LayerCount: 2
Fore
SplineSet
42 288 m 2
 240 423 l 1
 243 418 253 399 248 396 c 2
 49 260 l 1
 45 266 37 285 42 288 c 2
EndSplineSet
Refer: 75 108 N 1 0 0 1 0 0 2
Substitution2: "'smcp' Lowercase to Small Capitals in Latin lookup 3-1" lslash.sc
EndChar

StartChar: Tbar
Encoding: 358 358 406
Width: 588
Flags: W
HStem: -3 29<134.981 205.003 296.448 356.091> 308 40<143.682 473.883> 620 35<158.808 323.834 404.834 560.882>
VStem: 586.834 32<494.463 587.263>
LayerCount: 2
Fore
SplineSet
153 348 m 1
 180 348 460 348 473 348 c 0
 477 348 478 343 477 338 c 0
 476 332 470 317 465 308 c 1
 438 308 158 308 145 308 c 0
 141 308 141 316 142 321 c 0
 143 327 146 339 153 348 c 1
EndSplineSet
Refer: 51 84 N 1 0 0 1 1 0 2
EndChar

StartChar: tbar
Encoding: 359 359 407
Width: 285
VWidth: 0
Flags: W
HStem: -6 55<73.5 137.107> 275 40<44.6816 282.883> 376 37<51.1577 111 189 268.371>
VStem: 43 243 50 75<21.7226 177.312>
LayerCount: 2
Fore
SplineSet
54 315 m 1xf0
 81 315 269 315 282 315 c 0
 286 315 287 310 286 305 c 0
 285 299 279 284 274 275 c 1
 247 275 59 275 46 275 c 0
 42 275 42 283 43 288 c 0
 44 294 47 306 54 315 c 1xf0
EndSplineSet
Refer: 83 116 N 1 0 0 1 1 0 2
Substitution2: "'smcp' Lowercase to Small Capitals in Latin lookup 3-1" tbar.sc
EndChar

StartChar: dcroat
Encoding: 273 273 408
Width: 446
Flags: W
HStem: -5 58<76.4454 158.959 287 328.674> 395 40<222.947 290.664> 531 34<246.727 485.069> 631 21<287.307 343.742> 665 20<412 425.5>
VStem: 19 74<65.1712 219.36> 243 75<21.7226 163.305> 348 81<544.516 666.737>
LayerCount: 2
Fore
SplineSet
256 565 m 1
 281 565 473 565 485 565 c 0
 488 565 489 561 488 557 c 0
 487 552 482 539 477 531 c 1
 452 531 259 531 247 531 c 0
 244 531 244 538 245 542 c 0
 246 547 249 557 256 565 c 1
EndSplineSet
Refer: 67 100 N 1 0 0 1 0 0 2
Substitution2: "'smcp' Lowercase to Small Capitals in Latin lookup 3-1" dcroat.sc
EndChar

